<svg width="32" height="32" viewBox="0 0 32 32" fill="none" xmlns="http://www.w3.org/2000/svg">
<path d="M28.2637 18.1957L31.1756 7.32943C31.3594 6.64381 31.265 5.92818 30.91 5.31381C30.5556 4.69943 29.9825 4.25943 29.2975 4.07631L19.9831 1.58006C19.2975 1.39693 18.5819 1.49068 17.9675 1.84568C17.3531 2.20068 16.9137 2.77318 16.73 3.45881L16 6.18318L15.27 3.45881C15.0862 2.77318 14.6469 2.20068 14.0325 1.84568C13.4181 1.49068 12.7025 1.39693 12.0169 1.58006L2.70248 4.07631C2.01748 4.25943 1.44436 4.69943 1.08998 5.31381C0.734981 5.92818 0.640606 6.64381 0.824356 7.32943L3.73623 18.1957C3.88748 18.7607 4.21311 19.2488 4.66686 19.6019V26.0713H3.74748C3.31623 26.0713 2.96623 26.4213 2.96623 26.8526V27.8544C2.96623 29.3188 4.15811 30.5107 5.62248 30.5107H26.3775C27.8419 30.5107 29.0337 29.3188 29.0337 27.8544V26.8526C29.0337 26.4213 28.6837 26.0713 28.2525 26.0713H27.3331V19.6019C27.7869 19.2488 28.1125 18.7607 28.2637 18.1957ZM9.51248 13.8838C8.29248 13.4507 6.20061 12.5251 5.83686 11.1682C5.31811 9.23194 7.50561 7.83819 9.13186 9.44194C9.73811 7.23944 12.33 7.35318 12.8487 9.28943C13.26 10.8257 11.4762 12.9919 10.7212 13.8219C10.7012 13.8444 10.6794 13.8644 10.6569 13.8838H9.51248ZM18.8481 10.4219C19.2594 8.88568 21.8875 7.90131 22.9569 7.56006C23.2337 7.47193 23.5362 7.55318 23.7319 7.76818C24.4875 8.59818 26.2712 10.7644 25.8594 12.3007C25.4762 13.7301 23.9644 14.1657 22.955 13.4101L23.005 13.8838H20.0569C20.0744 13.8513 20.0931 13.8188 20.115 13.7888L20.8087 12.8357C19.5569 12.9851 18.465 11.8513 18.8481 10.4219ZM6.22936 26.0713V16.6688C6.22936 15.9944 6.77811 15.4463 7.45186 15.4463H12.6812V15.7913C12.6812 16.5907 13.3312 17.2407 14.1306 17.2407H17.8694C18.6687 17.2407 19.3187 16.5907 19.3187 15.7913V15.4463H24.5481C25.2225 15.4463 25.7706 15.9951 25.7706 16.6688V26.0713H6.22936Z" fill="#7644CE"/>
<path d="M11.8569 18.6637H9.11877C8.68752 18.6637 8.33752 19.0137 8.33752 19.4449C8.33752 19.8762 8.68752 20.2262 9.11877 20.2262H10.71L9.27815 23.8624C9.12002 24.2637 9.31752 24.7174 9.71877 24.8756C9.81252 24.9124 9.9094 24.9299 10.005 24.9299C10.3163 24.9299 10.6113 24.7424 10.7319 24.4349L12.5844 19.7312C12.6794 19.4906 12.6488 19.2187 12.5031 19.0049C12.3575 18.7912 12.1156 18.6637 11.8575 18.6637H11.8569Z" fill="#7644CE"/>
<path d="M17.3694 18.6637H14.6312C14.2 18.6637 13.85 19.0137 13.85 19.4449C13.85 19.8762 14.2 20.2262 14.6312 20.2262H16.2225L14.7906 23.8624C14.6325 24.2637 14.83 24.7174 15.2312 24.8756C15.325 24.9124 15.4219 24.9299 15.5175 24.9299C15.8287 24.9299 16.1237 24.7424 16.2444 24.4349L18.0968 19.7312C18.1918 19.4906 18.1612 19.2187 18.0156 19.0049C17.87 18.7912 17.6281 18.6637 17.37 18.6637H17.3694Z" fill="#C770FE"/>
<path d="M22.8813 18.6637H20.1431C19.7119 18.6637 19.3619 19.0137 19.3619 19.4449C19.3619 19.8762 19.7119 20.2262 20.1431 20.2262H21.7344L20.3025 23.8624C20.1444 24.2637 20.3419 24.7174 20.7431 24.8756C20.8369 24.9124 20.9338 24.9299 21.0294 24.9299C21.3406 24.9299 21.6356 24.7424 21.7563 24.4349L23.6088 19.7312C23.7038 19.4906 23.6731 19.2187 23.5275 19.0049C23.3819 18.7912 23.14 18.6637 22.8819 18.6637H22.8813Z" fill="#C770FE"/>
</svg>
