<svg width="40" height="40" viewBox="0 0 40 40" fill="none" xmlns="http://www.w3.org/2000/svg">
<path d="M20 0.5C30.7696 0.5 39.5 9.23045 39.5 20C39.5 30.7696 30.7696 39.5 20 39.5C9.23045 39.5 0.5 30.7696 0.5 20C0.5 9.23045 9.23045 0.5 20 0.5Z" fill="#14132D"/>
<path d="M20 0.5C30.7696 0.5 39.5 9.23045 39.5 20C39.5 30.7696 30.7696 39.5 20 39.5C9.23045 39.5 0.5 30.7696 0.5 20C0.5 9.23045 9.23045 0.5 20 0.5Z" stroke="#3B3076"/>
<path fill-rule="evenodd" clip-rule="evenodd" d="M19.2932 16.293C19.4807 16.1056 19.735 16.0002 20.0002 16.0002C20.2653 16.0002 20.5197 16.1056 20.7072 16.293L26.3642 21.95C26.5463 22.1386 26.6471 22.3912 26.6449 22.6534C26.6426 22.9156 26.5374 23.1664 26.352 23.3518C26.1666 23.5373 25.9158 23.6424 25.6536 23.6447C25.3914 23.647 25.1388 23.5462 24.9502 23.364L20.0002 18.414L15.0502 23.364C14.8616 23.5462 14.609 23.647 14.3468 23.6447C14.0846 23.6424 13.8338 23.5373 13.6484 23.3518C13.463 23.1664 13.3578 22.9156 13.3555 22.6534C13.3532 22.3912 13.454 22.1386 13.6362 21.95L19.2932 16.293Z" fill="white"/>
</svg>
