<svg width="14" height="8" viewBox="0 0 14 8" fill="none" xmlns="http://www.w3.org/2000/svg">
<path fill-rule="evenodd" clip-rule="evenodd" d="M7.70734 7.70685C7.51981 7.89433 7.26551 7.99964 7.00034 7.99964C6.73518 7.99964 6.48087 7.89433 6.29334 7.70685L0.636343 2.04985C0.540833 1.95761 0.464651 1.84726 0.412242 1.72526C0.359833 1.60326 0.332246 1.47204 0.331092 1.33926C0.329939 1.20648 0.355241 1.0748 0.405521 0.951901C0.455802 0.829005 0.530055 0.717352 0.623948 0.623459C0.717841 0.529567 0.829492 0.455314 0.952389 0.405033C1.07529 0.354752 1.20696 0.32945 1.33974 0.330604C1.47252 0.331758 1.60374 0.359344 1.72575 0.411753C1.84775 0.464162 1.9581 0.540344 2.05034 0.635854L7.00034 5.58586L11.9503 0.635854C12.1389 0.453696 12.3915 0.352902 12.6537 0.35518C12.9159 0.357459 13.1668 0.462628 13.3522 0.648036C13.5376 0.833444 13.6427 1.08426 13.645 1.34645C13.6473 1.60865 13.5465 1.86125 13.3643 2.04985L7.70734 7.70685Z" fill="#1D1C25"/>
</svg>
