<svg width="18" height="17" viewBox="0 0 18 17" fill="none" xmlns="http://www.w3.org/2000/svg">
<path d="M9.00033 16.8332C13.5837 16.8332 17.3337 13.0832 17.3337 8.49984C17.3337 3.9165 13.5837 0.166504 9.00033 0.166504C4.41699 0.166504 0.666992 3.9165 0.666992 8.49984C0.666992 13.0832 4.41699 16.8332 9.00033 16.8332ZM9.25033 4.57484C9.41699 4.42484 9.61699 4.33317 9.83366 4.33317C10.0587 4.33317 10.2503 4.42484 10.4253 4.57484C10.5837 4.74984 10.667 4.94984 10.667 5.1665C10.667 5.3915 10.5837 5.58317 10.4253 5.75817C10.2503 5.9165 10.0587 5.99984 9.83366 5.99984C9.61699 5.99984 9.41699 5.9165 9.25033 5.75817C9.09199 5.58317 9.00033 5.3915 9.00033 5.1665C9.00033 4.94984 9.09199 4.74984 9.25033 4.57484ZM7.16699 8.47484C7.16699 8.47484 8.97533 7.0415 9.63366 6.98317C10.2503 6.93317 10.1253 7.6415 10.067 8.00817L10.0587 8.05817C9.94199 8.49984 9.80033 9.03317 9.65866 9.5415C9.34199 10.6998 9.03366 11.8332 9.10866 12.0415C9.19199 12.3248 9.70866 11.9665 10.0837 11.7165C10.1337 11.6832 10.1753 11.6498 10.217 11.6248C10.217 11.6248 10.2837 11.5582 10.3503 11.6498C10.367 11.6748 10.3837 11.6998 10.4003 11.7165C10.4753 11.8332 10.517 11.8748 10.417 11.9415L10.3837 11.9582C10.2003 12.0832 9.41699 12.6332 9.10033 12.8332C8.75866 13.0582 7.45033 13.8082 7.65033 12.3498C7.82533 11.3248 8.05866 10.4415 8.24199 9.74984C8.58366 8.49984 8.73366 7.93317 7.96699 8.42484C7.65866 8.60817 7.47533 8.72484 7.36699 8.79984C7.27533 8.8665 7.26699 8.8665 7.20866 8.75817L7.18366 8.70817L7.14199 8.6415C7.08366 8.55817 7.08366 8.54984 7.16699 8.47484Z" fill="#747474"/>
</svg>
