<svg width="10" height="16" viewBox="0 0 10 16" fill="none" xmlns="http://www.w3.org/2000/svg">
<path d="M2 16C1.45 16 0.979335 15.8043 0.588001 15.413C0.196668 15.0217 0.000668362 14.5507 1.69492e-06 14C-0.000664972 13.4493 0.195335 12.9787 0.588001 12.588C0.980668 12.1973 1.45133 12.0013 2 12C2.54867 11.9987 3.01967 12.1947 3.413 12.588C3.80634 12.9813 4.002 13.452 4 14C3.998 14.548 3.80234 15.019 3.413 15.413C3.02367 15.807 2.55267 16.0027 2 16ZM8 16C7.45 16 6.97934 15.8043 6.588 15.413C6.19667 15.0217 6.00067 14.5507 6 14C5.99934 13.4493 6.19534 12.9787 6.588 12.588C6.98067 12.1973 7.45134 12.0013 8 12C8.54867 11.9987 9.01967 12.1947 9.413 12.588C9.80634 12.9813 10.002 13.452 10 14C9.998 14.548 9.80234 15.019 9.413 15.413C9.02367 15.807 8.55267 16.0027 8 16ZM2 10C1.45 10 0.979335 9.80434 0.588001 9.41301C0.196668 9.02167 0.000668362 8.55067 1.69492e-06 8.00001C-0.000664972 7.44934 0.195335 6.97867 0.588001 6.58801C0.980668 6.19734 1.45133 6.00134 2 6.00001C2.54867 5.99867 3.01967 6.19467 3.413 6.58801C3.80634 6.98134 4.002 7.45201 4 8.00001C3.998 8.54801 3.80234 9.01901 3.413 9.41301C3.02367 9.80701 2.55267 10.0027 2 10ZM8 10C7.45 10 6.97934 9.80434 6.588 9.41301C6.19667 9.02167 6.00067 8.55067 6 8.00001C5.99934 7.44934 6.19534 6.97867 6.588 6.58801C6.98067 6.19734 7.45134 6.00134 8 6.00001C8.54867 5.99867 9.01967 6.19467 9.413 6.58801C9.80634 6.98134 10.002 7.45201 10 8.00001C9.998 8.54801 9.80234 9.01901 9.413 9.41301C9.02367 9.80701 8.55267 10.0027 8 10ZM2 4.00001C1.45 4.00001 0.979335 3.80434 0.588001 3.41301C0.196668 3.02167 0.000668362 2.55067 1.69492e-06 2.00001C-0.000664972 1.44934 0.195335 0.978673 0.588001 0.588007C0.980668 0.19734 1.45133 0.00134009 2 6.75676e-06C2.54867 -0.00132658 3.01967 0.194673 3.413 0.588007C3.80634 0.98134 4.002 1.45201 4 2.00001C3.998 2.54801 3.80234 3.01901 3.413 3.41301C3.02367 3.80701 2.55267 4.00267 2 4.00001ZM8 4.00001C7.45 4.00001 6.97934 3.80434 6.588 3.41301C6.19667 3.02167 6.00067 2.55067 6 2.00001C5.99934 1.44934 6.19534 0.978673 6.588 0.588007C6.98067 0.19734 7.45134 0.00134009 8 6.75676e-06C8.54867 -0.00132658 9.01967 0.194673 9.413 0.588007C9.80634 0.98134 10.002 1.45201 10 2.00001C9.998 2.54801 9.80234 3.01901 9.413 3.41301C9.02367 3.80701 8.55267 4.00267 8 4.00001Z" fill="#747474"/>
</svg>
