<svg width="32" height="32" viewBox="0 0 32 32" fill="none" xmlns="http://www.w3.org/2000/svg">
<g clip-path="url(#clip0_1572_625)">
<path d="M16 7.5C16.5178 7.5 16.9375 7.08027 16.9375 6.5625C16.9375 6.04473 16.5178 5.625 16 5.625C15.4822 5.625 15.0625 6.04473 15.0625 6.5625C15.0625 7.08027 15.4822 7.5 16 7.5Z" fill="#7644CE"/>
<path d="M16 15C16.5178 15 16.9375 14.5803 16.9375 14.0625C16.9375 13.5447 16.5178 13.125 16 13.125C15.4822 13.125 15.0625 13.5447 15.0625 14.0625C15.0625 14.5803 15.4822 15 16 15Z" fill="#7644CE"/>
<path d="M22.25 10.625C22.7678 10.625 23.1875 10.2053 23.1875 9.6875C23.1875 9.16973 22.7678 8.75 22.25 8.75C21.7322 8.75 21.3125 9.16973 21.3125 9.6875C21.3125 10.2053 21.7322 10.625 22.25 10.625Z" fill="#7644CE"/>
<path d="M8.5 17.5C9.01777 17.5 9.4375 17.0803 9.4375 16.5625C9.4375 16.0447 9.01777 15.625 8.5 15.625C7.98223 15.625 7.5625 16.0447 7.5625 16.5625C7.5625 17.0803 7.98223 17.5 8.5 17.5Z" fill="#7644CE"/>
<path d="M13.1875 14.0625C13.1875 12.5117 14.4492 11.25 16 11.25C17.5508 11.25 18.8125 12.5117 18.8125 14.0625C18.8125 14.7788 18.5429 15.433 18.1005 15.9301L23.5974 25.8978C27.4864 23.3962 30.0625 19.0303 30.0625 14.0625C30.0625 6.296 23.7665 0 16 0C8.2335 0 1.9375 6.296 1.9375 14.0625C1.9375 19.0303 4.51356 23.3962 8.40256 25.8978L13.8994 15.9301C13.4571 15.433 13.1875 14.7788 13.1875 14.0625ZM26.3125 16.5625C26.3125 18.1133 25.0508 19.375 23.5 19.375C21.9492 19.375 20.6875 18.1133 20.6875 16.5625C20.6875 15.0117 21.9492 13.75 23.5 13.75C25.0508 13.75 26.3125 15.0117 26.3125 16.5625ZM22.25 6.875C23.8008 6.875 25.0625 8.13669 25.0625 9.6875C25.0625 11.2383 23.8008 12.5 22.25 12.5C20.6992 12.5 19.4375 11.2383 19.4375 9.6875C19.4375 8.13669 20.6992 6.875 22.25 6.875ZM16 3.75C17.5508 3.75 18.8125 5.01169 18.8125 6.5625C18.8125 8.11331 17.5508 9.375 16 9.375C14.4492 9.375 13.1875 8.11331 13.1875 6.5625C13.1875 5.01169 14.4492 3.75 16 3.75ZM8.5 19.375C6.94919 19.375 5.6875 18.1133 5.6875 16.5625C5.6875 15.0117 6.94919 13.75 8.5 13.75C10.0508 13.75 11.3125 15.0117 11.3125 16.5625C11.3125 18.1133 10.0508 19.375 8.5 19.375ZM11.3822 8.55844C10.4218 9.36519 9.68556 10.4194 9.25306 11.6069C9.11444 11.9876 8.75488 12.2239 8.37206 12.2239C8.2655 12.2239 8.15719 12.2056 8.05131 12.1671C7.56481 11.9899 7.314 11.4518 7.49119 10.9653C8.03606 9.46931 8.9645 8.14062 10.1761 7.12275C10.5726 6.78975 11.164 6.84106 11.497 7.23756C11.83 7.63406 11.7786 8.22531 11.3822 8.55844Z" fill="#7644CE"/>
<path d="M15.9999 16.875C15.8434 16.875 15.6901 16.8616 15.5405 16.8369L10.0439 26.804C11.8526 27.651 13.8708 28.125 15.9999 28.125C18.1291 28.125 20.1473 27.651 21.9559 26.804L16.4594 16.8369C16.3098 16.8616 16.1564 16.875 15.9999 16.875Z" fill="#7644CE"/>
<path d="M23.5 17.5C24.0178 17.5 24.4375 17.0803 24.4375 16.5625C24.4375 16.0447 24.0178 15.625 23.5 15.625C22.9822 15.625 22.5625 16.0447 22.5625 16.5625C22.5625 17.0803 22.9822 17.5 23.5 17.5Z" fill="#7644CE"/>
<path d="M31.0625 30.125H25.9286L23.5974 25.8978C23.0732 26.235 22.5248 26.5376 21.9559 26.804L23.7874 30.125H8.21256L10.044 26.804C9.47519 26.5376 8.92675 26.2351 8.40256 25.8979L6.07144 30.125H0.9375C0.41975 30.125 0 30.5448 0 31.0625C0 31.5803 0.41975 32 0.9375 32H31.0625C31.5802 32 32 31.5803 32 31.0625C32 30.5448 31.5802 30.125 31.0625 30.125Z" fill="#7644CE"/>
</g>
<defs>
<clipPath id="clip0_1572_625">
<rect width="32" height="32" fill="white"/>
</clipPath>
</defs>
</svg>
