<svg width="62" height="57" viewBox="0 0 62 57" fill="none" xmlns="http://www.w3.org/2000/svg">
<path d="M0 33L36 0H61.5L0 57V33Z" fill="url(#paint0_linear_1011_214)"/>
<path d="M21.5325 33.5374L20.4589 34.521L10.1425 31.9288L16.1409 38.4766L15.0673 39.4602L7.5234 31.2253L8.59701 30.2417L18.9026 32.8221L12.915 26.2861L13.9886 25.3025L21.5325 33.5374ZM27.9609 21.2473C28.1483 21.4518 28.3346 21.6789 28.52 21.9286L23.3525 26.6625C23.9755 27.2635 24.6493 27.5648 25.374 27.5664C26.0994 27.5528 26.7452 27.2867 27.3115 26.7679C27.7755 26.3428 28.0637 25.8835 28.1759 25.3902C28.2887 24.8817 28.2424 24.389 28.0368 23.9119L29.193 22.8527C29.5891 23.6326 29.7078 24.4569 29.549 25.3257C29.3829 26.1867 28.9145 26.9702 28.1437 27.6763C27.5302 28.2383 26.8536 28.6051 26.1137 28.7765C25.3818 28.9407 24.6476 28.8973 23.9112 28.6461C23.1675 28.387 22.4895 27.9232 21.877 27.2547C21.2646 26.5861 20.8615 25.8777 20.6678 25.1293C20.4741 24.381 20.4946 23.6533 20.7294 22.9464C20.9649 22.2244 21.3972 21.5751 22.0264 20.9987C22.6399 20.4367 23.3051 20.0733 24.022 19.9084C24.7389 19.7435 25.4394 19.7817 26.1234 20.023C26.808 20.2493 27.4205 20.6574 27.9609 21.2473ZM26.6466 22.0391C26.2719 21.6301 25.8608 21.3629 25.4133 21.2376C24.9586 21.1045 24.5055 21.1073 24.054 21.2461C23.6032 21.3698 23.189 21.6045 22.8115 21.9504C22.2688 22.4476 21.9632 23.0457 21.8949 23.7448C21.8344 24.4368 22.0576 25.1147 22.5645 25.7786L26.6466 22.0391ZM37.1438 7.3452L41.0491 15.6586L39.9401 16.6745L33.6813 12.9691L36.8254 19.5278L35.7164 20.5437L27.7645 15.9375L28.8617 14.9323L35.3198 18.9976L31.9527 12.1007L33.0499 11.0955L39.6015 15.0969L36.082 8.31791L37.1438 7.3452Z" fill="#443F0A"/>
<defs>
<linearGradient id="paint0_linear_1011_214" x1="47" y1="4.5" x2="8.5" y2="55" gradientUnits="userSpaceOnUse">
<stop stop-color="#FFDF3C"/>
<stop offset="0.244431" stop-color="#FFF7B3"/>
<stop offset="0.498088" stop-color="#EBDC39"/>
<stop offset="0.75" stop-color="#FFEA73"/>
<stop offset="1" stop-color="#FFDB29"/>
</linearGradient>
</defs>
</svg>
