<svg width="16" height="18" viewBox="0 0 16 18" fill="none" xmlns="http://www.w3.org/2000/svg">
<path d="M2.38562 0.917243L8 6.88227L13.5853 0.94815C13.7087 0.808632 13.8573 0.697023 14.0222 0.620015C14.1872 0.543007 14.3651 0.502186 14.5453 0.5C14.931 0.5 15.301 0.662812 15.5738 0.952621C15.8465 1.24243 15.9998 1.63549 15.9998 2.04534C16.0032 2.23481 15.9701 2.42301 15.9025 2.59839C15.835 2.77378 15.7345 2.93266 15.607 3.06527L9.94903 8.99939L15.607 15.0108C15.8468 15.2599 15.9873 15.5974 15.9998 15.9534C15.9998 16.3633 15.8465 16.7563 15.5738 17.0462C15.301 17.336 14.931 17.4988 14.5453 17.4988C14.3599 17.507 14.1749 17.4741 14.0022 17.4022C13.8294 17.3304 13.6726 17.2212 13.5417 17.0815L8 11.1165L2.40017 17.0661C2.27727 17.2009 2.13045 17.3086 1.96818 17.3829C1.80591 17.4572 1.63141 17.4965 1.45474 17.4988C1.06898 17.4988 0.699023 17.336 0.426251 17.0462C0.153478 16.7563 0.000236657 16.3633 0.000236657 15.9534C-0.00315451 15.764 0.0299309 15.5758 0.0974628 15.4004C0.164995 15.225 0.265548 15.0661 0.392952 14.9335L6.05097 8.99939L0.392952 2.988C0.153228 2.73883 0.0126576 2.40141 0.000236657 2.04534C0.000236657 1.63549 0.153478 1.24243 0.426251 0.952621C0.699023 0.662812 1.06898 0.5 1.45474 0.5C1.80382 0.504636 2.13836 0.654534 2.38562 0.917243Z" fill="#7644CE"/>
</svg>
