<svg version="1.2" xmlns="http://www.w3.org/2000/svg" viewBox="0 0 222 229" width="222" height="229">
	<title>Group 27</title>
	<defs>
		<linearGradient id="g1" x2="1" gradientUnits="userSpaceOnUse" gradientTransform="matrix(141.098,141.097,-141.098,141.099,40.098,59.099)">
			<stop offset="0" stop-color="#4800ff"/>
			<stop offset="1" stop-color="#ff00b3"/>
		</linearGradient>
		<linearGradient id="g2" x2="1" gradientUnits="userSpaceOnUse" gradientTransform="matrix(141.099,141.098,-141.098,141.098,51.476,47.719)">
			<stop offset="0" stop-color="#4800ff"/>
			<stop offset="1" stop-color="#ff00b3"/>
		</linearGradient>
		<linearGradient id="g3" x2="1" gradientUnits="userSpaceOnUse" gradientTransform="matrix(141.097,141.098,-110.716,110.715,36.912,62.284)">
			<stop offset="0" stop-color="#4800ff"/>
			<stop offset="1" stop-color="#ff00b3"/>
		</linearGradient>
		<linearGradient id="g4" x2="1" gradientUnits="userSpaceOnUse" gradientTransform="matrix(141.098,141.098,-110.716,110.716,43.284,55.913)">
			<stop offset="0" stop-color="#4800ff"/>
			<stop offset="1" stop-color="#ff00b3"/>
		</linearGradient>
		<linearGradient id="g5" x2="1" gradientUnits="userSpaceOnUse" gradientTransform="matrix(141.098,141.098,-70.674,70.674,40.098,59.098)">
			<stop offset="0" stop-color="#4800ff"/>
			<stop offset="1" stop-color="#ff00b3"/>
		</linearGradient>
		<linearGradient id="g6" x2="1" gradientUnits="userSpaceOnUse" gradientTransform="matrix(141.099,141.099,-141.099,141.099,40.097,59.098)">
			<stop offset="0" stop-color="#4800ff"/>
			<stop offset="1" stop-color="#ff00b3"/>
		</linearGradient>
		<linearGradient id="g7" x2="1" gradientUnits="userSpaceOnUse" gradientTransform="matrix(141.1,141.099,-141.099,141.1,51.476,47.719)">
			<stop offset="0" stop-color="#4800ff"/>
			<stop offset="1" stop-color="#ff00b3"/>
		</linearGradient>
		<linearGradient id="g8" x2="1" gradientUnits="userSpaceOnUse" gradientTransform="matrix(141.099,141.098,-109.644,109.645,36.911,62.284)">
			<stop offset="0" stop-color="#4800ff"/>
			<stop offset="1" stop-color="#ff00b3"/>
		</linearGradient>
		<linearGradient id="g9" x2="1" gradientUnits="userSpaceOnUse" gradientTransform="matrix(141.098,141.099,-109.643,109.642,43.284,55.911)">
			<stop offset="0" stop-color="#4800ff"/>
			<stop offset="1" stop-color="#ff00b3"/>
		</linearGradient>
		<linearGradient id="g10" x2="1" gradientUnits="userSpaceOnUse" gradientTransform="matrix(141.097,141.097,-69.539,69.539,40.099,59.099)">
			<stop offset="0" stop-color="#4800ff"/>
			<stop offset="1" stop-color="#ff00b3"/>
		</linearGradient>
		<linearGradient id="g11" x2="1" gradientUnits="userSpaceOnUse" gradientTransform="matrix(141.099,141.099,-141.099,141.099,40.098,59.098)">
			<stop offset="0" stop-color="#4800ff"/>
			<stop offset="1" stop-color="#ff00b3"/>
		</linearGradient>
		<linearGradient id="g12" x2="1" gradientUnits="userSpaceOnUse" gradientTransform="matrix(141.099,141.097,-141.097,141.098,51.477,47.72)">
			<stop offset="0" stop-color="#4800ff"/>
			<stop offset="1" stop-color="#ff00b3"/>
		</linearGradient>
		<linearGradient id="g13" x2="1" gradientUnits="userSpaceOnUse" gradientTransform="matrix(141.098,141.098,-108.492,108.492,36.912,62.284)">
			<stop offset="0" stop-color="#4800ff"/>
			<stop offset="1" stop-color="#ff00b3"/>
		</linearGradient>
		<linearGradient id="g14" x2="1" gradientUnits="userSpaceOnUse" gradientTransform="matrix(141.098,141.099,-108.494,108.494,43.285,55.912)">
			<stop offset="0" stop-color="#4800ff"/>
			<stop offset="1" stop-color="#ff00b3"/>
		</linearGradient>
		<linearGradient id="g15" x2="1" gradientUnits="userSpaceOnUse" gradientTransform="matrix(141.097,141.097,-68.368,68.368,40.099,59.099)">
			<stop offset="0" stop-color="#4800ff"/>
			<stop offset="1" stop-color="#ff00b3"/>
		</linearGradient>
		<linearGradient id="g16" x2="1" gradientUnits="userSpaceOnUse" gradientTransform="matrix(141.098,141.099,-141.099,141.098,40.098,59.098)">
			<stop offset="0" stop-color="#4800ff"/>
			<stop offset="1" stop-color="#ff00b3"/>
		</linearGradient>
		<linearGradient id="g17" x2="1" gradientUnits="userSpaceOnUse" gradientTransform="matrix(141.098,141.098,-141.098,141.098,51.477,47.719)">
			<stop offset="0" stop-color="#4800ff"/>
			<stop offset="1" stop-color="#ff00b3"/>
		</linearGradient>
		<linearGradient id="g18" x2="1" gradientUnits="userSpaceOnUse" gradientTransform="matrix(141.098,141.098,-107.251,107.251,36.912,62.284)">
			<stop offset="0" stop-color="#4800ff"/>
			<stop offset="1" stop-color="#ff00b3"/>
		</linearGradient>
		<linearGradient id="g19" x2="1" gradientUnits="userSpaceOnUse" gradientTransform="matrix(141.098,141.098,-107.254,107.254,43.284,55.912)">
			<stop offset="0" stop-color="#4800ff"/>
			<stop offset="1" stop-color="#ff00b3"/>
		</linearGradient>
		<linearGradient id="g20" x2="1" gradientUnits="userSpaceOnUse" gradientTransform="matrix(141.097,141.097,-67.156,67.156,40.099,59.099)">
			<stop offset="0" stop-color="#4800ff"/>
			<stop offset="1" stop-color="#ff00b3"/>
		</linearGradient>
		<linearGradient id="g21" x2="1" gradientUnits="userSpaceOnUse" gradientTransform="matrix(141.098,141.097,-141.097,141.098,40.098,59.099)">
			<stop offset="0" stop-color="#4800ff"/>
			<stop offset="1" stop-color="#ff00b3"/>
		</linearGradient>
		<linearGradient id="g22" x2="1" gradientUnits="userSpaceOnUse" gradientTransform="matrix(141.098,141.098,-141.098,141.098,51.477,47.719)">
			<stop offset="0" stop-color="#4800ff"/>
			<stop offset="1" stop-color="#ff00b3"/>
		</linearGradient>
		<linearGradient id="g23" x2="1" gradientUnits="userSpaceOnUse" gradientTransform="matrix(141.097,141.098,-104.468,104.468,36.913,62.284)">
			<stop offset="0" stop-color="#4800ff"/>
			<stop offset="1" stop-color="#ff00b3"/>
		</linearGradient>
		<linearGradient id="g24" x2="1" gradientUnits="userSpaceOnUse" gradientTransform="matrix(141.098,141.097,-104.466,104.467,43.284,55.912)">
			<stop offset="0" stop-color="#4800ff"/>
			<stop offset="1" stop-color="#ff00b3"/>
		</linearGradient>
		<linearGradient id="g25" x2="1" gradientUnits="userSpaceOnUse" gradientTransform="matrix(141.097,141.097,-64.609,64.609,40.099,59.099)">
			<stop offset="0" stop-color="#4800ff"/>
			<stop offset="1" stop-color="#ff00b3"/>
		</linearGradient>
		<linearGradient id="g26" x2="1" gradientUnits="userSpaceOnUse" gradientTransform="matrix(141.099,141.099,-141.099,141.099,40.098,59.098)">
			<stop offset="0" stop-color="#4800ff"/>
			<stop offset="1" stop-color="#ff00b3"/>
		</linearGradient>
		<linearGradient id="g27" x2="1" gradientUnits="userSpaceOnUse" gradientTransform="matrix(141.1,141.099,-141.099,141.099,51.476,47.719)">
			<stop offset="0" stop-color="#4800ff"/>
			<stop offset="1" stop-color="#ff00b3"/>
		</linearGradient>
		<linearGradient id="g28" x2="1" gradientUnits="userSpaceOnUse" gradientTransform="matrix(141.097,141.097,-102.896,102.897,36.913,62.285)">
			<stop offset="0" stop-color="#4800ff"/>
			<stop offset="1" stop-color="#ff00b3"/>
		</linearGradient>
		<linearGradient id="g29" x2="1" gradientUnits="userSpaceOnUse" gradientTransform="matrix(141.098,141.098,-102.898,102.898,43.285,55.913)">
			<stop offset="0" stop-color="#4800ff"/>
			<stop offset="1" stop-color="#ff00b3"/>
		</linearGradient>
		<linearGradient id="g30" x2="1" gradientUnits="userSpaceOnUse" gradientTransform="matrix(141.098,141.098,-63.27,63.27,40.099,59.099)">
			<stop offset="0" stop-color="#4800ff"/>
			<stop offset="1" stop-color="#ff00b3"/>
		</linearGradient>
		<linearGradient id="g31" x2="1" gradientUnits="userSpaceOnUse" gradientTransform="matrix(141.097,141.097,-141.097,141.097,40.099,59.099)">
			<stop offset="0" stop-color="#4800ff"/>
			<stop offset="1" stop-color="#ff00b3"/>
		</linearGradient>
		<linearGradient id="g32" x2="1" gradientUnits="userSpaceOnUse" gradientTransform="matrix(141.098,141.097,-141.097,141.098,51.477,47.72)">
			<stop offset="0" stop-color="#4800ff"/>
			<stop offset="1" stop-color="#ff00b3"/>
		</linearGradient>
		<linearGradient id="g33" x2="1" gradientUnits="userSpaceOnUse" gradientTransform="matrix(141.097,141.098,-101.184,101.183,36.912,62.284)">
			<stop offset="0" stop-color="#4800ff"/>
			<stop offset="1" stop-color="#ff00b3"/>
		</linearGradient>
		<linearGradient id="g34" x2="1" gradientUnits="userSpaceOnUse" gradientTransform="matrix(141.098,141.098,-101.183,101.184,43.284,55.912)">
			<stop offset="0" stop-color="#4800ff"/>
			<stop offset="1" stop-color="#ff00b3"/>
		</linearGradient>
		<linearGradient id="g35" x2="1" gradientUnits="userSpaceOnUse" gradientTransform="matrix(141.097,141.097,-61.879,61.879,40.099,59.099)">
			<stop offset="0" stop-color="#4800ff"/>
			<stop offset="1" stop-color="#ff00b3"/>
		</linearGradient>
		<linearGradient id="g36" x2="1" gradientUnits="userSpaceOnUse" gradientTransform="matrix(141.098,141.098,-141.098,141.098,40.097,59.098)">
			<stop offset="0" stop-color="#4800ff"/>
			<stop offset="1" stop-color="#ff00b3"/>
		</linearGradient>
		<linearGradient id="g37" x2="1" gradientUnits="userSpaceOnUse" gradientTransform="matrix(141.098,141.099,-141.1,141.099,51.476,47.719)">
			<stop offset="0" stop-color="#4800ff"/>
			<stop offset="1" stop-color="#ff00b3"/>
		</linearGradient>
		<linearGradient id="g38" x2="1" gradientUnits="userSpaceOnUse" gradientTransform="matrix(141.099,141.098,-99.313,99.313,36.911,62.284)">
			<stop offset="0" stop-color="#4800ff"/>
			<stop offset="1" stop-color="#ff00b3"/>
		</linearGradient>
		<linearGradient id="g39" x2="1" gradientUnits="userSpaceOnUse" gradientTransform="matrix(141.098,141.098,-99.312,99.312,43.283,55.912)">
			<stop offset="0" stop-color="#4800ff"/>
			<stop offset="1" stop-color="#ff00b3"/>
		</linearGradient>
		<linearGradient id="g40" x2="1" gradientUnits="userSpaceOnUse" gradientTransform="matrix(141.097,141.097,-60.441,60.441,40.098,59.099)">
			<stop offset="0" stop-color="#4800ff"/>
			<stop offset="1" stop-color="#ff00b3"/>
		</linearGradient>
		<linearGradient id="g41" x2="1" gradientUnits="userSpaceOnUse" gradientTransform="matrix(141.098,141.097,-141.097,141.098,40.098,59.099)">
			<stop offset="0" stop-color="#4800ff"/>
			<stop offset="1" stop-color="#ff00b3"/>
		</linearGradient>
		<linearGradient id="g42" x2="1" gradientUnits="userSpaceOnUse" gradientTransform="matrix(141.098,141.097,-141.097,141.098,51.477,47.72)">
			<stop offset="0" stop-color="#4800ff"/>
			<stop offset="1" stop-color="#ff00b3"/>
		</linearGradient>
		<linearGradient id="g43" x2="1" gradientUnits="userSpaceOnUse" gradientTransform="matrix(141.099,141.098,-97.255,97.256,36.912,62.284)">
			<stop offset="0" stop-color="#4800ff"/>
			<stop offset="1" stop-color="#ff00b3"/>
		</linearGradient>
		<linearGradient id="g44" x2="1" gradientUnits="userSpaceOnUse" gradientTransform="matrix(141.098,141.097,-97.252,97.253,43.284,55.912)">
			<stop offset="0" stop-color="#4800ff"/>
			<stop offset="1" stop-color="#ff00b3"/>
		</linearGradient>
		<linearGradient id="g45" x2="1" gradientUnits="userSpaceOnUse" gradientTransform="matrix(141.097,141.097,-58.95,58.95,40.099,59.099)">
			<stop offset="0" stop-color="#4800ff"/>
			<stop offset="1" stop-color="#ff00b3"/>
		</linearGradient>
		<linearGradient id="g46" x2="1" gradientUnits="userSpaceOnUse" gradientTransform="matrix(141.098,141.097,-141.098,141.099,40.098,59.099)">
			<stop offset="0" stop-color="#4800ff"/>
			<stop offset="1" stop-color="#ff00b3"/>
		</linearGradient>
		<linearGradient id="g47" x2="1" gradientUnits="userSpaceOnUse" gradientTransform="matrix(141.098,141.099,-141.1,141.099,51.476,47.719)">
			<stop offset="0" stop-color="#4800ff"/>
			<stop offset="1" stop-color="#ff00b3"/>
		</linearGradient>
		<linearGradient id="g48" x2="1" gradientUnits="userSpaceOnUse" gradientTransform="matrix(141.097,141.096,-94.981,94.982,36.913,62.285)">
			<stop offset="0" stop-color="#4800ff"/>
			<stop offset="1" stop-color="#ff00b3"/>
		</linearGradient>
		<linearGradient id="g49" x2="1" gradientUnits="userSpaceOnUse" gradientTransform="matrix(141.098,141.097,-94.985,94.985,43.284,55.912)">
			<stop offset="0" stop-color="#4800ff"/>
			<stop offset="1" stop-color="#ff00b3"/>
		</linearGradient>
		<linearGradient id="g50" x2="1" gradientUnits="userSpaceOnUse" gradientTransform="matrix(141.1,141.099,-57.4,57.4,40.097,59.098)">
			<stop offset="0" stop-color="#4800ff"/>
			<stop offset="1" stop-color="#ff00b3"/>
		</linearGradient>
		<linearGradient id="g51" x2="1" gradientUnits="userSpaceOnUse" gradientTransform="matrix(141.098,141.098,-141.098,141.098,40.098,59.098)">
			<stop offset="0" stop-color="#4800ff"/>
			<stop offset="1" stop-color="#ff00b3"/>
		</linearGradient>
		<linearGradient id="g52" x2="1" gradientUnits="userSpaceOnUse" gradientTransform="matrix(141.099,141.099,-141.1,141.099,51.477,47.719)">
			<stop offset="0" stop-color="#4800ff"/>
			<stop offset="1" stop-color="#ff00b3"/>
		</linearGradient>
		<linearGradient id="g53" x2="1" gradientUnits="userSpaceOnUse" gradientTransform="matrix(141.097,141.098,-92.466,92.466,36.913,62.284)">
			<stop offset="0" stop-color="#4800ff"/>
			<stop offset="1" stop-color="#ff00b3"/>
		</linearGradient>
		<linearGradient id="g54" x2="1" gradientUnits="userSpaceOnUse" gradientTransform="matrix(141.098,141.1,-92.47,92.469,43.284,55.911)">
			<stop offset="0" stop-color="#4800ff"/>
			<stop offset="1" stop-color="#ff00b3"/>
		</linearGradient>
		<linearGradient id="g55" x2="1" gradientUnits="userSpaceOnUse" gradientTransform="matrix(141.097,141.097,-55.792,55.792,40.099,59.099)">
			<stop offset="0" stop-color="#4800ff"/>
			<stop offset="1" stop-color="#ff00b3"/>
		</linearGradient>
		<linearGradient id="g56" x2="1" gradientUnits="userSpaceOnUse" gradientTransform="matrix(141.097,141.097,-141.097,141.097,40.099,59.099)">
			<stop offset="0" stop-color="#4800ff"/>
			<stop offset="1" stop-color="#ff00b3"/>
		</linearGradient>
		<linearGradient id="g57" x2="1" gradientUnits="userSpaceOnUse" gradientTransform="matrix(141.098,141.097,-141.097,141.097,51.476,47.72)">
			<stop offset="0" stop-color="#4800ff"/>
			<stop offset="1" stop-color="#ff00b3"/>
		</linearGradient>
		<linearGradient id="g58" x2="1" gradientUnits="userSpaceOnUse" gradientTransform="matrix(141.097,141.098,-89.654,89.653,36.912,62.284)">
			<stop offset="0" stop-color="#4800ff"/>
			<stop offset="1" stop-color="#ff00b3"/>
		</linearGradient>
		<linearGradient id="g59" x2="1" gradientUnits="userSpaceOnUse" gradientTransform="matrix(141.097,141.097,-89.66,89.66,43.285,55.913)">
			<stop offset="0" stop-color="#4800ff"/>
			<stop offset="1" stop-color="#ff00b3"/>
		</linearGradient>
		<linearGradient id="g60" x2="1" gradientUnits="userSpaceOnUse" gradientTransform="matrix(141.097,141.097,-54.121,54.121,40.099,59.099)">
			<stop offset="0" stop-color="#4800ff"/>
			<stop offset="1" stop-color="#ff00b3"/>
		</linearGradient>
		<linearGradient id="g61" x2="1" gradientUnits="userSpaceOnUse" gradientTransform="matrix(141.1,141.099,-141.099,141.1,40.097,59.098)">
			<stop offset="0" stop-color="#4800ff"/>
			<stop offset="1" stop-color="#ff00b3"/>
		</linearGradient>
		<linearGradient id="g62" x2="1" gradientUnits="userSpaceOnUse" gradientTransform="matrix(141.098,141.099,-141.1,141.099,51.477,47.719)">
			<stop offset="0" stop-color="#4800ff"/>
			<stop offset="1" stop-color="#ff00b3"/>
		</linearGradient>
		<linearGradient id="g63" x2="1" gradientUnits="userSpaceOnUse" gradientTransform="matrix(141.099,141.098,-86.503,86.503,36.912,62.284)">
			<stop offset="0" stop-color="#4800ff"/>
			<stop offset="1" stop-color="#ff00b3"/>
		</linearGradient>
		<linearGradient id="g64" x2="1" gradientUnits="userSpaceOnUse" gradientTransform="matrix(141.097,141.097,-86.503,86.503,43.285,55.912)">
			<stop offset="0" stop-color="#4800ff"/>
			<stop offset="1" stop-color="#ff00b3"/>
		</linearGradient>
		<linearGradient id="g65" x2="1" gradientUnits="userSpaceOnUse" gradientTransform="matrix(141.098,141.097,-52.385,52.385,40.099,59.099)">
			<stop offset="0" stop-color="#4800ff"/>
			<stop offset="1" stop-color="#ff00b3"/>
		</linearGradient>
		<linearGradient id="g66" x2="1" gradientUnits="userSpaceOnUse" gradientTransform="matrix(141.098,141.097,-141.097,141.098,40.097,59.099)">
			<stop offset="0" stop-color="#4800ff"/>
			<stop offset="1" stop-color="#ff00b3"/>
		</linearGradient>
		<linearGradient id="g67" x2="1" gradientUnits="userSpaceOnUse" gradientTransform="matrix(141.098,141.097,-141.097,141.097,51.476,47.72)">
			<stop offset="0" stop-color="#4800ff"/>
			<stop offset="1" stop-color="#ff00b3"/>
		</linearGradient>
		<linearGradient id="g68" x2="1" gradientUnits="userSpaceOnUse" gradientTransform="matrix(141.099,141.099,-82.94,82.94,36.911,62.284)">
			<stop offset="0" stop-color="#4800ff"/>
			<stop offset="1" stop-color="#ff00b3"/>
		</linearGradient>
		<linearGradient id="g69" x2="1" gradientUnits="userSpaceOnUse" gradientTransform="matrix(141.098,141.099,-82.937,82.937,43.284,55.912)">
			<stop offset="0" stop-color="#4800ff"/>
			<stop offset="1" stop-color="#ff00b3"/>
		</linearGradient>
		<linearGradient id="g70" x2="1" gradientUnits="userSpaceOnUse" gradientTransform="matrix(141.097,141.097,-50.574,50.574,40.098,59.099)">
			<stop offset="0" stop-color="#4800ff"/>
			<stop offset="1" stop-color="#ff00b3"/>
		</linearGradient>
		<linearGradient id="g71" x2="1" gradientUnits="userSpaceOnUse" gradientTransform="matrix(141.098,141.098,-141.098,141.098,40.098,59.099)">
			<stop offset="0" stop-color="#4800ff"/>
			<stop offset="1" stop-color="#ff00b3"/>
		</linearGradient>
		<linearGradient id="g72" x2="1" gradientUnits="userSpaceOnUse" gradientTransform="matrix(141.098,141.097,-141.097,141.097,51.477,47.72)">
			<stop offset="0" stop-color="#4800ff"/>
			<stop offset="1" stop-color="#ff00b3"/>
		</linearGradient>
		<linearGradient id="g73" x2="1" gradientUnits="userSpaceOnUse" gradientTransform="matrix(141.099,141.1,-78.875,78.874,36.911,62.283)">
			<stop offset="0" stop-color="#4800ff"/>
			<stop offset="1" stop-color="#ff00b3"/>
		</linearGradient>
		<linearGradient id="g74" x2="1" gradientUnits="userSpaceOnUse" gradientTransform="matrix(141.098,141.097,-78.872,78.873,43.284,55.912)">
			<stop offset="0" stop-color="#4800ff"/>
			<stop offset="1" stop-color="#ff00b3"/>
		</linearGradient>
		<linearGradient id="g75" x2="1" gradientUnits="userSpaceOnUse" gradientTransform="matrix(141.099,141.099,-48.693,48.693,40.098,59.098)">
			<stop offset="0" stop-color="#4800ff"/>
			<stop offset="1" stop-color="#ff00b3"/>
		</linearGradient>
		<linearGradient id="g76" x2="1" gradientUnits="userSpaceOnUse" gradientTransform="matrix(141.098,141.098,-141.098,141.098,40.098,59.098)">
			<stop offset="0" stop-color="#4800ff"/>
			<stop offset="1" stop-color="#ff00b3"/>
		</linearGradient>
		<linearGradient id="g77" x2="1" gradientUnits="userSpaceOnUse" gradientTransform="matrix(141.099,141.099,-141.099,141.099,51.477,47.719)">
			<stop offset="0" stop-color="#4800ff"/>
			<stop offset="1" stop-color="#ff00b3"/>
		</linearGradient>
		<linearGradient id="g78" x2="1" gradientUnits="userSpaceOnUse" gradientTransform="matrix(141.098,141.097,-74.196,74.197,36.912,62.284)">
			<stop offset="0" stop-color="#4800ff"/>
			<stop offset="1" stop-color="#ff00b3"/>
		</linearGradient>
		<linearGradient id="g79" x2="1" gradientUnits="userSpaceOnUse" gradientTransform="matrix(141.096,141.094,-74.195,74.196,43.285,55.914)">
			<stop offset="0" stop-color="#4800ff"/>
			<stop offset="1" stop-color="#ff00b3"/>
		</linearGradient>
		<linearGradient id="g80" x2="1" gradientUnits="userSpaceOnUse" gradientTransform="matrix(141.097,141.097,-46.727,46.727,40.099,59.099)">
			<stop offset="0" stop-color="#4800ff"/>
			<stop offset="1" stop-color="#ff00b3"/>
		</linearGradient>
		<linearGradient id="g81" x2="1" gradientUnits="userSpaceOnUse" gradientTransform="matrix(141.098,141.097,-141.097,141.098,40.097,59.099)">
			<stop offset="0" stop-color="#4800ff"/>
			<stop offset="1" stop-color="#ff00b3"/>
		</linearGradient>
		<linearGradient id="g82" x2="1" gradientUnits="userSpaceOnUse" gradientTransform="matrix(141.098,141.097,-141.097,141.097,51.476,47.72)">
			<stop offset="0" stop-color="#4800ff"/>
			<stop offset="1" stop-color="#ff00b3"/>
		</linearGradient>
		<linearGradient id="g83" x2="1" gradientUnits="userSpaceOnUse" gradientTransform="matrix(141.097,141.097,-68.765,68.766,36.912,62.284)">
			<stop offset="0" stop-color="#4800ff"/>
			<stop offset="1" stop-color="#ff00b3"/>
		</linearGradient>
		<linearGradient id="g84" x2="1" gradientUnits="userSpaceOnUse" gradientTransform="matrix(141.096,141.097,-68.767,68.767,43.284,55.912)">
			<stop offset="0" stop-color="#4800ff"/>
			<stop offset="1" stop-color="#ff00b3"/>
		</linearGradient>
		<linearGradient id="g85" x2="1" gradientUnits="userSpaceOnUse" gradientTransform="matrix(141.097,141.097,-44.68,44.68,40.099,59.099)">
			<stop offset="0" stop-color="#4800ff"/>
			<stop offset="1" stop-color="#ff00b3"/>
		</linearGradient>
		<linearGradient id="g86" x2="1" gradientUnits="userSpaceOnUse" gradientTransform="matrix(141.098,141.099,-141.099,141.098,40.098,59.098)">
			<stop offset="0" stop-color="#4800ff"/>
			<stop offset="1" stop-color="#ff00b3"/>
		</linearGradient>
		<linearGradient id="g87" x2="1" gradientUnits="userSpaceOnUse" gradientTransform="matrix(141.098,141.097,-141.096,141.097,51.477,47.72)">
			<stop offset="0" stop-color="#4800ff"/>
			<stop offset="1" stop-color="#ff00b3"/>
		</linearGradient>
		<linearGradient id="g88" x2="1" gradientUnits="userSpaceOnUse" gradientTransform="matrix(141.1,141.098,-62.374,62.374,36.911,62.284)">
			<stop offset="0" stop-color="#4800ff"/>
			<stop offset="1" stop-color="#ff00b3"/>
		</linearGradient>
		<linearGradient id="g89" x2="1" gradientUnits="userSpaceOnUse" gradientTransform="matrix(141.098,141.097,-62.371,62.372,43.284,55.913)">
			<stop offset="0" stop-color="#4800ff"/>
			<stop offset="1" stop-color="#ff00b3"/>
		</linearGradient>
		<linearGradient id="g90" x2="1" gradientUnits="userSpaceOnUse" gradientTransform="matrix(141.097,141.097,-42.538,42.538,40.099,59.099)">
			<stop offset="0" stop-color="#4800ff"/>
			<stop offset="1" stop-color="#ff00b3"/>
		</linearGradient>
		<linearGradient id="g91" x2="1" gradientUnits="userSpaceOnUse" gradientTransform="matrix(141.099,141.099,-141.099,141.099,40.098,59.098)">
			<stop offset="0" stop-color="#4800ff"/>
			<stop offset="1" stop-color="#ff00b3"/>
		</linearGradient>
		<linearGradient id="g92" x2="1" gradientUnits="userSpaceOnUse" gradientTransform="matrix(141.099,141.099,-141.099,141.099,51.477,47.719)">
			<stop offset="0" stop-color="#4800ff"/>
			<stop offset="1" stop-color="#ff00b3"/>
		</linearGradient>
		<linearGradient id="g93" x2="1" gradientUnits="userSpaceOnUse" gradientTransform="matrix(141.099,141.1,-56.381,56.381,36.912,62.283)">
			<stop offset="0" stop-color="#4800ff"/>
			<stop offset="1" stop-color="#ff00b3"/>
		</linearGradient>
		<linearGradient id="g94" x2="1" gradientUnits="userSpaceOnUse" gradientTransform="matrix(141.098,141.099,-56.381,56.38,43.284,55.912)">
			<stop offset="0" stop-color="#4800ff"/>
			<stop offset="1" stop-color="#ff00b3"/>
		</linearGradient>
		<linearGradient id="g95" x2="1" gradientUnits="userSpaceOnUse" gradientTransform="matrix(141.097,141.097,-40.758,40.758,40.099,59.099)">
			<stop offset="0" stop-color="#4800ff"/>
			<stop offset="1" stop-color="#ff00b3"/>
		</linearGradient>
		<linearGradient id="g96" x2="1" gradientUnits="userSpaceOnUse" gradientTransform="matrix(84.41,84.28,-86.011,86.143,132.013,21.128)">
			<stop offset="0" stop-color="#4800ff"/>
			<stop offset="1" stop-color="#ff00b3"/>
		</linearGradient>
		<linearGradient id="g97" x2="1" gradientUnits="userSpaceOnUse" gradientTransform="matrix(83.275,83.148,-84.876,85.005,132.58,21.693)">
			<stop offset="0" stop-color="#4800ff"/>
			<stop offset="1" stop-color="#ff00b3"/>
		</linearGradient>
		<linearGradient id="g98" x2="1" gradientUnits="userSpaceOnUse" gradientTransform="matrix(82.137,82.013,-83.741,83.868,133.148,22.259)">
			<stop offset="0" stop-color="#4800ff"/>
			<stop offset="1" stop-color="#ff00b3"/>
		</linearGradient>
		<linearGradient id="g99" x2="1" gradientUnits="userSpaceOnUse" gradientTransform="matrix(81.003,80.878,-82.62,82.747,133.721,22.817)">
			<stop offset="0" stop-color="#4800ff"/>
			<stop offset="1" stop-color="#ff00b3"/>
		</linearGradient>
		<linearGradient id="g100" x2="1" gradientUnits="userSpaceOnUse" gradientTransform="matrix(78.73,78.609,-80.32,80.443,134.84,23.965)">
			<stop offset="0" stop-color="#4800ff"/>
			<stop offset="1" stop-color="#ff00b3"/>
		</linearGradient>
		<linearGradient id="g101" x2="1" gradientUnits="userSpaceOnUse" gradientTransform="matrix(77.596,77.475,-79.201,79.325,135.415,24.522)">
			<stop offset="0" stop-color="#4800ff"/>
			<stop offset="1" stop-color="#ff00b3"/>
		</linearGradient>
		<linearGradient id="g102" x2="1" gradientUnits="userSpaceOnUse" gradientTransform="matrix(76.459,76.341,-78.07,78.19,135.982,25.088)">
			<stop offset="0" stop-color="#4800ff"/>
			<stop offset="1" stop-color="#ff00b3"/>
		</linearGradient>
		<linearGradient id="g103" x2="1" gradientUnits="userSpaceOnUse" gradientTransform="matrix(75.324,75.206,-76.935,77.055,136.548,25.654)">
			<stop offset="0" stop-color="#4800ff"/>
			<stop offset="1" stop-color="#ff00b3"/>
		</linearGradient>
		<linearGradient id="g104" x2="1" gradientUnits="userSpaceOnUse" gradientTransform="matrix(74.187,74.074,-75.802,75.917,137.116,26.218)">
			<stop offset="0" stop-color="#4800ff"/>
			<stop offset="1" stop-color="#ff00b3"/>
		</linearGradient>
		<linearGradient id="g105" x2="1" gradientUnits="userSpaceOnUse" gradientTransform="matrix(73.051,72.939,-74.666,74.781,137.683,26.784)">
			<stop offset="0" stop-color="#4800ff"/>
			<stop offset="1" stop-color="#ff00b3"/>
		</linearGradient>
		<linearGradient id="g106" x2="1" gradientUnits="userSpaceOnUse" gradientTransform="matrix(71.915,71.804,-73.54,73.654,138.257,27.343)">
			<stop offset="0" stop-color="#4800ff"/>
			<stop offset="1" stop-color="#ff00b3"/>
		</linearGradient>
		<linearGradient id="g107" x2="1" gradientUnits="userSpaceOnUse" gradientTransform="matrix(70.778,70.671,-72.388,72.497,138.815,27.918)">
			<stop offset="0" stop-color="#4800ff"/>
			<stop offset="1" stop-color="#ff00b3"/>
		</linearGradient>
		<linearGradient id="g108" x2="1" gradientUnits="userSpaceOnUse" gradientTransform="matrix(69.642,69.536,-71.262,71.37,139.384,28.481)">
			<stop offset="0" stop-color="#4800ff"/>
			<stop offset="1" stop-color="#ff00b3"/>
		</linearGradient>
		<linearGradient id="g109" x2="1" gradientUnits="userSpaceOnUse" gradientTransform="matrix(68.507,68.402,-70.129,70.236,139.951,29.047)">
			<stop offset="0" stop-color="#4800ff"/>
			<stop offset="1" stop-color="#ff00b3"/>
		</linearGradient>
		<linearGradient id="g110" x2="1" gradientUnits="userSpaceOnUse" gradientTransform="matrix(67.396,67.293,-69.019,69.125,140.506,29.624)">
			<stop offset="0" stop-color="#4800ff"/>
			<stop offset="1" stop-color="#ff00b3"/>
		</linearGradient>
		<linearGradient id="g111" x2="1" gradientUnits="userSpaceOnUse" gradientTransform="matrix(66.261,66.16,-67.885,67.988,141.072,30.192)">
			<stop offset="0" stop-color="#4800ff"/>
			<stop offset="1" stop-color="#ff00b3"/>
		</linearGradient>
		<linearGradient id="g112" x2="1" gradientUnits="userSpaceOnUse" gradientTransform="matrix(65.128,65.028,-66.758,66.861,141.643,30.753)">
			<stop offset="0" stop-color="#4800ff"/>
			<stop offset="1" stop-color="#ff00b3"/>
		</linearGradient>
		<linearGradient id="g113" x2="1" gradientUnits="userSpaceOnUse" gradientTransform="matrix(63.996,63.896,-65.61,65.713,142.198,31.331)">
			<stop offset="0" stop-color="#4800ff"/>
			<stop offset="1" stop-color="#ff00b3"/>
		</linearGradient>
		<linearGradient id="g114" x2="1" gradientUnits="userSpaceOnUse" gradientTransform="matrix(63.089,62.992,-64.717,64.816,142.656,31.778)">
			<stop offset="0" stop-color="#4800ff"/>
			<stop offset="1" stop-color="#ff00b3"/>
		</linearGradient>
	</defs>
	<style>
		.s0 { mix-blend-mode: screen;fill: url(#g1) } 
		.s1 { mix-blend-mode: screen;fill: url(#g2) } 
		.s2 { mix-blend-mode: screen;fill: url(#g3) } 
		.s3 { mix-blend-mode: screen;fill: url(#g4) } 
		.s4 { mix-blend-mode: screen;fill: url(#g5) } 
		.s5 { mix-blend-mode: screen;fill: url(#g6) } 
		.s6 { mix-blend-mode: screen;fill: url(#g7) } 
		.s7 { mix-blend-mode: screen;fill: url(#g8) } 
		.s8 { mix-blend-mode: screen;fill: url(#g9) } 
		.s9 { mix-blend-mode: screen;fill: url(#g10) } 
		.s10 { mix-blend-mode: screen;fill: url(#g11) } 
		.s11 { mix-blend-mode: screen;fill: url(#g12) } 
		.s12 { mix-blend-mode: screen;fill: url(#g13) } 
		.s13 { mix-blend-mode: screen;fill: url(#g14) } 
		.s14 { mix-blend-mode: screen;fill: url(#g15) } 
		.s15 { mix-blend-mode: screen;fill: url(#g16) } 
		.s16 { mix-blend-mode: screen;fill: url(#g17) } 
		.s17 { mix-blend-mode: screen;fill: url(#g18) } 
		.s18 { mix-blend-mode: screen;fill: url(#g19) } 
		.s19 { mix-blend-mode: screen;fill: url(#g20) } 
		.s20 { mix-blend-mode: screen;fill: url(#g21) } 
		.s21 { mix-blend-mode: screen;fill: url(#g22) } 
		.s22 { mix-blend-mode: screen;fill: url(#g23) } 
		.s23 { mix-blend-mode: screen;fill: url(#g24) } 
		.s24 { mix-blend-mode: screen;fill: url(#g25) } 
		.s25 { mix-blend-mode: screen;fill: url(#g26) } 
		.s26 { mix-blend-mode: screen;fill: url(#g27) } 
		.s27 { mix-blend-mode: screen;fill: url(#g28) } 
		.s28 { mix-blend-mode: screen;fill: url(#g29) } 
		.s29 { mix-blend-mode: screen;fill: url(#g30) } 
		.s30 { mix-blend-mode: screen;fill: url(#g31) } 
		.s31 { mix-blend-mode: screen;fill: url(#g32) } 
		.s32 { mix-blend-mode: screen;fill: url(#g33) } 
		.s33 { mix-blend-mode: screen;fill: url(#g34) } 
		.s34 { mix-blend-mode: screen;fill: url(#g35) } 
		.s35 { mix-blend-mode: screen;fill: url(#g36) } 
		.s36 { mix-blend-mode: screen;fill: url(#g37) } 
		.s37 { mix-blend-mode: screen;fill: url(#g38) } 
		.s38 { mix-blend-mode: screen;fill: url(#g39) } 
		.s39 { mix-blend-mode: screen;fill: url(#g40) } 
		.s40 { mix-blend-mode: screen;fill: url(#g41) } 
		.s41 { mix-blend-mode: screen;fill: url(#g42) } 
		.s42 { mix-blend-mode: screen;fill: url(#g43) } 
		.s43 { mix-blend-mode: screen;fill: url(#g44) } 
		.s44 { mix-blend-mode: screen;fill: url(#g45) } 
		.s45 { mix-blend-mode: screen;fill: url(#g46) } 
		.s46 { mix-blend-mode: screen;fill: url(#g47) } 
		.s47 { mix-blend-mode: screen;fill: url(#g48) } 
		.s48 { mix-blend-mode: screen;fill: url(#g49) } 
		.s49 { mix-blend-mode: screen;fill: url(#g50) } 
		.s50 { mix-blend-mode: screen;fill: url(#g51) } 
		.s51 { mix-blend-mode: screen;fill: url(#g52) } 
		.s52 { mix-blend-mode: screen;fill: url(#g53) } 
		.s53 { mix-blend-mode: screen;fill: url(#g54) } 
		.s54 { mix-blend-mode: screen;fill: url(#g55) } 
		.s55 { mix-blend-mode: screen;fill: url(#g56) } 
		.s56 { mix-blend-mode: screen;fill: url(#g57) } 
		.s57 { mix-blend-mode: screen;fill: url(#g58) } 
		.s58 { mix-blend-mode: screen;fill: url(#g59) } 
		.s59 { mix-blend-mode: screen;fill: url(#g60) } 
		.s60 { mix-blend-mode: screen;fill: url(#g61) } 
		.s61 { mix-blend-mode: screen;fill: url(#g62) } 
		.s62 { mix-blend-mode: screen;fill: url(#g63) } 
		.s63 { mix-blend-mode: screen;fill: url(#g64) } 
		.s64 { mix-blend-mode: screen;fill: url(#g65) } 
		.s65 { mix-blend-mode: screen;fill: url(#g66) } 
		.s66 { mix-blend-mode: screen;fill: url(#g67) } 
		.s67 { mix-blend-mode: screen;fill: url(#g68) } 
		.s68 { mix-blend-mode: screen;fill: url(#g69) } 
		.s69 { mix-blend-mode: screen;fill: url(#g70) } 
		.s70 { mix-blend-mode: screen;fill: url(#g71) } 
		.s71 { mix-blend-mode: screen;fill: url(#g72) } 
		.s72 { mix-blend-mode: screen;fill: url(#g73) } 
		.s73 { mix-blend-mode: screen;fill: url(#g74) } 
		.s74 { mix-blend-mode: screen;fill: url(#g75) } 
		.s75 { mix-blend-mode: screen;fill: url(#g76) } 
		.s76 { mix-blend-mode: screen;fill: url(#g77) } 
		.s77 { mix-blend-mode: screen;fill: url(#g78) } 
		.s78 { mix-blend-mode: screen;fill: url(#g79) } 
		.s79 { mix-blend-mode: screen;fill: url(#g80) } 
		.s80 { mix-blend-mode: screen;fill: url(#g81) } 
		.s81 { mix-blend-mode: screen;fill: url(#g82) } 
		.s82 { mix-blend-mode: screen;fill: url(#g83) } 
		.s83 { mix-blend-mode: screen;fill: url(#g84) } 
		.s84 { mix-blend-mode: screen;fill: url(#g85) } 
		.s85 { mix-blend-mode: screen;fill: url(#g86) } 
		.s86 { mix-blend-mode: screen;fill: url(#g87) } 
		.s87 { mix-blend-mode: screen;fill: url(#g88) } 
		.s88 { mix-blend-mode: screen;fill: url(#g89) } 
		.s89 { mix-blend-mode: screen;fill: url(#g90) } 
		.s90 { fill: url(#g91) } 
		.s91 { fill: url(#g92) } 
		.s92 { fill: url(#g93) } 
		.s93 { fill: url(#g94) } 
		.s94 { fill: url(#g95) } 
		.s95 { fill: #ffffff } 
		.s96 { mix-blend-mode: screen;fill: url(#g96) } 
		.s97 { mix-blend-mode: screen;fill: url(#g97) } 
		.s98 { mix-blend-mode: screen;fill: url(#g98) } 
		.s99 { mix-blend-mode: screen;fill: url(#g99) } 
		.s100 { mix-blend-mode: screen;fill: url(#g100) } 
		.s101 { mix-blend-mode: screen;fill: url(#g101) } 
		.s102 { mix-blend-mode: screen;fill: url(#g102) } 
		.s103 { mix-blend-mode: screen;fill: url(#g103) } 
		.s104 { mix-blend-mode: screen;fill: url(#g104) } 
		.s105 { mix-blend-mode: screen;fill: url(#g105) } 
		.s106 { mix-blend-mode: screen;fill: url(#g106) } 
		.s107 { mix-blend-mode: screen;fill: url(#g107) } 
		.s108 { mix-blend-mode: screen;fill: url(#g108) } 
		.s109 { mix-blend-mode: screen;fill: url(#g109) } 
		.s110 { mix-blend-mode: screen;fill: url(#g110) } 
		.s111 { mix-blend-mode: screen;fill: url(#g111) } 
		.s112 { mix-blend-mode: screen;fill: url(#g112) } 
		.s113 { mix-blend-mode: screen;fill: url(#g113) } 
		.s114 { fill: url(#g114) } 
	</style>
	<g style="opacity: .02">
		<path class="s0" d="m74.2 167.3c-19 0-37.9-7.2-52.4-21.6-28.9-28.9-28.9-76 0-104.9 28.9-28.9 76-28.9 104.9 0 28.9 28.9 28.9 76 0 104.9-14.5 14.4-33.5 21.6-52.5 21.6zm0-96.5c-5.7 0-11.4 2.2-15.8 6.6-8.7 8.7-8.7 22.9 0 31.7 8.7 8.7 22.9 8.7 31.7 0 8.7-8.8 8.7-23 0-31.7-4.4-4.4-10.1-6.6-15.9-6.6z"/>
		<path class="s1" d="m97 96.4c-6.6 0-13.3-2.6-18.3-7.6-2.5-2.5-6.5-2.5-8.9 0-10.1 10.1-26.5 10.1-36.6 0-10.1-10.1-10.1-26.5 0-36.6 22.6-22.7 59.5-22.7 82.1 0 10.1 10.1 10.1 26.5 0 36.6-5.1 5-11.7 7.6-18.3 7.6z"/>
		<path class="s2" d="m115.1 166.3c-6.6 0-13.3-2.5-18.3-7.6l-10.1-10c-10.1-10.1-10.1-26.5 0-36.6 10.1-10.1 26.5-10.1 36.6 0l10.1 10.1c10.1 10.1 10.1 26.4 0 36.5-5.1 5.1-11.7 7.6-18.3 7.6z"/>
		<path class="s3" d="m121.4 159.9c-6.6 0-13.2-2.5-18.2-7.5l-10.1-10.1c-10.1-10.1-10.1-26.5 0-36.6 10.1-10.1 26.5-10.1 36.6 0l10 10.1c10.1 10.1 10.1 26.5 0 36.6-5 5-11.6 7.5-18.3 7.5z"/>
		<path class="s4" d="m174.4 228.9c-9.1 0-18.2-3.5-25.2-10.4l-50-50.1c-13.9-13.8-13.9-36.4 0-50.2 13.8-13.9 36.4-13.9 50.2 0l50.1 50c13.8 13.9 13.8 36.4 0 50.3-6.9 6.9-16 10.4-25.1 10.4z"/>
	</g>
	<g style="opacity: .02">
		<path class="s5" d="m74.2 166.2c-18.7 0-37.4-7.1-51.6-21.3-28.5-28.5-28.5-74.8 0-103.3 28.5-28.5 74.8-28.5 103.3 0 28.4 28.5 28.4 74.8 0 103.3-14.3 14.2-33 21.3-51.7 21.3zm0-96.5c-6 0-12 2.3-16.6 6.9-9.2 9.2-9.2 24.1 0 33.3 9.2 9.1 24.1 9.1 33.3 0 9.1-9.2 9.1-24.1 0-33.3-4.6-4.6-10.6-6.9-16.7-6.9z"/>
		<path class="s6" d="m97 95.2c-6.3 0-12.7-2.4-17.5-7.2-1.8-1.8-3.9-2.2-5.3-2.2-1.4 0-3.4 0.4-5.2 2.2-9.7 9.6-25.4 9.6-35 0-9.7-9.7-9.7-25.4 0-35 22.2-22.2 58.3-22.2 80.5 0 9.7 9.6 9.7 25.3 0 35-4.8 4.8-11.2 7.2-17.5 7.2z"/>
		<path class="s7" d="m115.1 165.2c-6.4 0-12.7-2.4-17.5-7.3l-10.1-10c-9.6-9.7-9.6-25.3 0-35 9.7-9.7 25.4-9.7 35 0l10.1 10c9.6 9.7 9.6 25.4 0 35-4.9 4.9-11.2 7.3-17.5 7.3z"/>
		<path class="s8" d="m121.4 158.8c-6.3 0-12.6-2.4-17.5-7.2l-10-10.1c-9.7-9.6-9.7-25.3 0-35 9.7-9.6 25.3-9.6 35 0l10 10.1c9.7 9.6 9.7 25.3 0 35-4.8 4.8-11.1 7.2-17.5 7.2z"/>
		<path class="s9" d="m174.4 227.8c-8.8 0-17.7-3.4-24.4-10.1l-50-50.1c-13.4-13.4-13.4-35.2 0-48.6 13.4-13.4 35.2-13.4 48.6 0l50.1 50c13.4 13.5 13.4 35.3 0 48.7-6.7 6.7-15.5 10.1-24.3 10.1z"/>
	</g>
	<g style="opacity: .02">
		<path class="s10" d="m74.2 165.1c-18.4 0-36.8-7-50.8-21-28-28.1-28-73.7 0-101.7 28-28 73.6-28 101.7 0 28 28 28 73.6 0 101.7-14 14-32.5 21-50.9 21zm0-96.5c-6.3 0-12.6 2.4-17.4 7.2-9.6 9.6-9.6 25.3 0 34.9 4.8 4.8 11.1 7.2 17.4 7.2 6.3 0 12.7-2.4 17.5-7.2 9.6-9.6 9.6-25.3 0-34.9-4.8-4.8-11.2-7.2-17.5-7.2z"/>
		<path class="s11" d="m97 94.1c-6.1 0-12.1-2.3-16.7-6.9-2.2-2.2-4.7-2.5-6.1-2.5-1.3 0-3.8 0.3-6 2.5-9.2 9.2-24.2 9.2-33.4 0-9.3-9.2-9.3-24.2 0-33.4 21.7-21.8 57.1-21.8 78.9 0 9.2 9.2 9.2 24.2 0 33.4-4.6 4.6-10.7 6.9-16.7 6.9z"/>
		<path class="s12" d="m115.1 164.1c-6.1 0-12.1-2.3-16.7-6.9l-10.1-10.1c-9.2-9.2-9.2-24.2 0-33.4 9.3-9.2 24.2-9.2 33.4 0l10.1 10c9.2 9.3 9.2 24.2 0 33.5-4.6 4.6-10.7 6.9-16.7 6.9z"/>
		<path class="s13" d="m121.4 157.7c-6 0-12-2.3-16.7-6.9l-10-10.1c-9.2-9.2-9.2-24.1 0-33.4 9.2-9.2 24.2-9.2 33.4 0l10.1 10.1c9.2 9.2 9.2 24.2 0 33.4-4.7 4.6-10.7 6.9-16.8 6.9z"/>
		<path class="s14" d="m174.4 226.6c-8.6 0-17.1-3.2-23.6-9.7l-50-50.1c-13-12.9-13-34.1 0-47 12.9-13 34.1-13 47 0l50.1 50c13 13 13 34.1 0 47.1-6.5 6.5-15 9.7-23.5 9.7z"/>
	</g>
	<g style="opacity: .02">
		<path class="s15" d="m74.2 164c-18.1 0-36.2-6.9-50-20.7-27.6-27.6-27.6-72.5 0-100.1 27.6-27.6 72.5-27.6 100.1 0 27.6 27.6 27.6 72.5 0 100.1-13.8 13.8-31.9 20.7-50.1 20.7zm0-96.5c-6.6 0-13.2 2.5-18.2 7.5-10 10.1-10 26.4 0 36.5 5 5 11.6 7.5 18.2 7.5 6.6 0 13.2-2.5 18.3-7.5 10-10.1 10-26.4 0-36.5-5.1-5-11.7-7.5-18.3-7.5z"/>
		<path class="s16" d="m97 93c-5.8 0-11.5-2.2-15.9-6.6-3.8-3.8-9.9-3.8-13.7 0-8.8 8.8-23 8.8-31.8 0-8.8-8.8-8.8-23 0-31.8 10.3-10.4 24-16 38.6-16 14.6 0 28.4 5.6 38.7 16 8.8 8.8 8.8 23 0 31.8-4.4 4.4-10.1 6.6-15.9 6.6z"/>
		<path class="s17" d="m115.1 162.9c-5.8 0-11.5-2.2-15.9-6.5l-10.1-10.1c-8.8-8.8-8.8-23 0-31.8 8.8-8.8 23.1-8.8 31.8 0l10.1 10c8.8 8.8 8.8 23.1 0 31.9-4.4 4.3-10.2 6.5-15.9 6.5z"/>
		<path class="s18" d="m121.4 156.6c-5.7 0-11.5-2.2-15.9-6.6l-10-10.1c-8.8-8.7-8.8-23 0-31.8 8.8-8.8 23-8.8 31.8 0l10.1 10.1c8.7 8.8 8.7 23 0 31.8-4.4 4.4-10.2 6.6-16 6.6z"/>
		<path class="s19" d="m174.4 225.5c-8.3 0-16.5-3.1-22.8-9.4l-50-50.1c-12.6-12.5-12.6-32.9 0-45.4 12.5-12.6 32.9-12.6 45.4 0l50.1 50c12.5 12.6 12.5 33 0 45.5-6.3 6.3-14.5 9.4-22.7 9.4z"/>
	</g>
	<g style="opacity: .03">
		<path class="s20" d="m74.2 161.7c-17.5 0-35.1-6.7-48.4-20-26.7-26.7-26.7-70.2 0-96.9 12.9-13 30.1-20.1 48.4-20.1 18.3 0 35.5 7.1 48.5 20.1 26.7 26.7 26.7 70.2 0 96.9-13.4 13.3-30.9 20-48.5 20zm0-96.5c-7.1 0-14.3 2.8-19.8 8.2-10.9 10.9-10.9 28.7 0 39.7 5.5 5.4 12.7 8.1 19.8 8.1 7.2 0 14.4-2.7 19.9-8.1 10.9-11 10.9-28.8 0-39.7-5.5-5.4-12.7-8.2-19.9-8.2z"/>
		<path class="s21" d="m97 90.7c-5.2 0-10.4-2-14.3-5.9-4.7-4.7-12.3-4.7-16.9 0-7.9 7.9-20.7 7.9-28.6 0-7.9-7.9-7.9-20.7 0-28.6 9.9-9.9 23-15.4 37-15.4 14 0 27.2 5.5 37.1 15.4 7.9 7.9 7.9 20.7 0 28.6-3.9 3.9-9.1 5.9-14.3 5.9z"/>
		<path class="s22" d="m115.1 160.7c-5.2 0-10.4-2-14.3-5.9l-10.1-10.1c-7.9-7.9-7.9-20.7 0-28.6 7.9-7.9 20.7-7.9 28.7 0l10 10c7.9 7.9 7.9 20.8 0 28.7-4 3.9-9.1 5.9-14.3 5.9z"/>
		<path class="s23" d="m121.4 154.3c-5.1 0-10.3-2-14.3-5.9l-10-10c-7.9-8-7.9-20.8 0-28.7 7.9-7.9 20.7-7.9 28.6 0l10.1 10.1c7.9 7.9 7.9 20.7 0 28.6-4 3.9-9.2 5.9-14.4 5.9z"/>
		<path class="s24" d="m174.4 223.3c-8 0-15.5-3.1-21.2-8.8l-50-50.1c-5.7-5.6-8.8-13.1-8.8-21.1 0-8 3.1-15.5 8.8-21.1 5.6-5.7 13.1-8.8 21.1-8.8 8 0 15.5 3.1 21.1 8.8l50.1 50c5.7 5.7 8.8 13.2 8.8 21.2 0 8-3.1 15.5-8.8 21.1-5.6 5.7-13.1 8.8-21.1 8.8z"/>
	</g>
	<g style="opacity: .04">
		<path class="s25" d="m74.2 160.6c-17.2 0-34.5-6.6-47.6-19.7-26.3-26.3-26.3-69 0-95.3 26.3-26.3 69-26.3 95.3 0 26.3 26.3 26.3 69 0 95.3-13.1 13.1-30.4 19.7-47.7 19.7zm0-96.5c-7.4 0-14.9 2.8-20.6 8.5-11.3 11.4-11.3 29.9 0 41.2 5.7 5.7 13.2 8.6 20.6 8.6 7.5 0 15-2.9 20.7-8.6 11.3-11.3 11.3-29.8 0-41.2-5.7-5.7-13.2-8.5-20.7-8.5z"/>
		<path class="s26" d="m97 89.6c-4.9 0-9.8-1.9-13.5-5.6-2.5-2.5-5.8-3.8-9.3-3.8-3.5 0-6.7 1.3-9.2 3.8-7.5 7.5-19.6 7.5-27 0-7.5-7.5-7.5-19.6 0-27 20-20.1 52.5-20.1 72.5 0 7.5 7.4 7.5 19.5 0 27-3.7 3.7-8.6 5.6-13.5 5.6z"/>
		<path class="s27" d="m115.1 159.6c-4.9 0-9.8-1.9-13.5-5.6l-10.1-10.1c-7.5-7.4-7.5-19.5 0-27 7.5-7.5 19.6-7.5 27.1 0l10 10c7.5 7.5 7.5 19.6 0 27.1-3.7 3.7-8.6 5.6-13.5 5.6z"/>
		<path class="s28" d="m121.4 153.2c-4.8 0-9.7-1.9-13.5-5.6l-10-10c-7.5-7.5-7.5-19.6 0-27.1 7.5-7.5 19.6-7.5 27 0l10.1 10.1c7.4 7.4 7.4 19.5 0 27-3.8 3.7-8.7 5.6-13.6 5.6z"/>
		<path class="s29" d="m174.4 222.1c-7.4 0-14.8-2.8-20.4-8.4l-50-50c-11.3-11.3-11.3-29.5 0-40.7 11.2-11.3 29.4-11.3 40.7 0l50 50c11.2 11.2 11.2 29.5 0 40.7-5.6 5.6-13 8.4-20.3 8.4z"/>
	</g>
	<g style="opacity: .04">
		<path class="s30" d="m74.2 159.5c-16.9 0-33.9-6.5-46.8-19.4-25.9-25.8-25.9-67.9 0-93.7 25.8-25.9 67.9-25.9 93.7 0 25.8 25.8 25.8 67.9 0 93.7-12.9 12.9-29.9 19.4-46.9 19.4zm0-96.5c-7.7 0-15.5 2.9-21.4 8.8-11.8 11.8-11.8 31 0 42.8 5.9 5.9 13.7 8.9 21.4 8.9 7.8 0 15.5-3 21.4-8.9 11.8-11.8 11.8-31 0-42.8-5.9-5.9-13.6-8.8-21.4-8.8z"/>
		<path class="s31" d="m97 88.5c-4.6 0-9.2-1.8-12.7-5.3-2.7-2.7-6.3-4.2-10.1-4.2-3.8 0-7.3 1.5-10 4.2-7 7-18.4 7-25.4 0-7.1-7-7.1-18.4 0-25.5 19.5-19.5 51.4-19.5 70.9 0 7 7.1 7 18.5 0 25.5-3.5 3.5-8.1 5.3-12.7 5.3z"/>
		<path class="s32" d="m115.1 158.4c-4.6 0-9.2-1.7-12.8-5.2l-10-10.1c-7-7-7-18.4 0-25.4 7-7.1 18.4-7.1 25.5 0l10 10c7 7 7 18.4 0 25.5-3.5 3.5-8.1 5.2-12.7 5.2z"/>
		<path class="s33" d="m121.4 152.1c-4.6 0-9.2-1.8-12.7-5.3l-10-10c-7.1-7.1-7.1-18.5 0-25.5 7-7 18.4-7 25.4 0l10.1 10c7 7.1 7 18.5 0 25.5-3.5 3.5-8.1 5.3-12.8 5.3z"/>
		<path class="s34" d="m174.4 221c-7.4 0-14.4-2.9-19.6-8.1l-50.1-50c-5.2-5.3-8.1-12.2-8.1-19.6 0-7.4 2.9-14.3 8.1-19.6 5.3-5.2 12.2-8.1 19.6-8.1 7.4 0 14.3 2.9 19.6 8.1l50 50.1c5.2 5.2 8.1 12.2 8.1 19.6 0 7.4-2.9 14.3-8.1 19.5-5.2 5.2-12.1 8.1-19.5 8.1z"/>
	</g>
	<g style="opacity: .05">
		<path class="s35" d="m74.2 158.4c-16.6 0-33.3-6.4-46-19.1-25.4-25.4-25.4-66.7 0-92.1 25.4-25.4 66.7-25.4 92.1 0 25.4 25.4 25.4 66.7 0 92.1-12.7 12.7-29.4 19.1-46.1 19.1zm0-96.6c-8 0-16 3.1-22.2 9.2-12.2 12.3-12.2 32.2 0 44.4 6.2 6.2 14.2 9.2 22.2 9.2 8.1 0 16.1-3 22.2-9.2 12.3-12.2 12.3-32.1 0-44.4-6.1-6.1-14.1-9.2-22.2-9.2z"/>
		<path class="s36" d="m97 87.4c-4.3 0-8.6-1.7-11.9-5-2.9-2.9-6.8-4.5-10.9-4.5-4.1 0-7.9 1.6-10.8 4.5-6.6 6.6-17.3 6.6-23.9 0-6.5-6.6-6.5-17.3 0-23.9 19.2-19.1 50.3-19.1 69.4 0 6.6 6.6 6.6 17.3 0 23.9-3.3 3.3-7.6 5-11.9 5z"/>
		<path class="s37" d="m115.1 157.3c-4.3 0-8.7-1.6-12-4.9l-10-10.1c-6.6-6.6-6.6-17.2 0-23.8 6.6-6.6 17.3-6.6 23.9 0l10 10c6.6 6.6 6.6 17.3 0 23.9-3.3 3.3-7.6 4.9-11.9 4.9z"/>
		<path class="s38" d="m121.4 150.9c-4.3 0-8.6-1.6-11.9-4.9l-10-10c-6.6-6.6-6.6-17.3 0-23.9 6.6-6.6 17.2-6.6 23.8 0l10.1 10c6.6 6.6 6.6 17.3 0 23.9-3.3 3.3-7.6 4.9-12 4.9z"/>
		<path class="s39" d="m174.4 219.9c-6.8 0-13.6-2.6-18.8-7.8l-50.1-50c-10.3-10.4-10.3-27.2 0-37.6 10.4-10.3 27.2-10.3 37.6 0l50 50.1c10.4 10.4 10.4 27.2 0 37.5-5.1 5.2-11.9 7.8-18.7 7.8z"/>
	</g>
	<g style="opacity: .05">
		<path class="s40" d="m74.2 157.2c-16.4 0-32.8-6.2-45.2-18.7-25-25-25-65.6 0-90.5 24.9-25 65.5-25 90.5 0 25 24.9 25 65.5 0 90.5-12.5 12.5-28.9 18.7-45.3 18.7zm0-96.5c-8.3 0-16.6 3.2-23 9.5-12.6 12.7-12.6 33.4 0 46 6.4 6.4 14.7 9.5 23 9.5 8.4 0 16.7-3.1 23-9.5 12.7-12.6 12.7-33.3 0-46-6.3-6.3-14.6-9.5-23-9.5z"/>
		<path class="s41" d="m97 86.2c-4 0-8.1-1.5-11.1-4.6-6.5-6.4-16.9-6.4-23.3 0-6.1 6.2-16.1 6.2-22.3 0-6.1-6.1-6.1-16.1 0-22.3 18.7-18.6 49.1-18.6 67.8 0 6.2 6.2 6.2 16.2 0 22.3-3 3.1-7.1 4.6-11.1 4.6z"/>
		<path class="s42" d="m115.1 156.2c-4.1 0-8.1-1.5-11.2-4.6l-10-10.1c-6.2-6.1-6.2-16.1 0-22.2 6.2-6.2 16.1-6.2 22.3 0l10 10c6.2 6.2 6.2 16.1 0 22.3-3.1 3.1-7.1 4.6-11.1 4.6z"/>
		<path class="s43" d="m121.4 149.8c-4 0-8-1.5-11.1-4.6l-10-10c-6.2-6.2-6.2-16.2 0-22.3 6.1-6.2 16.1-6.2 22.2 0l10.1 10c6.1 6.2 6.1 16.2 0 22.3-3.1 3.1-7.1 4.6-11.2 4.6z"/>
		<path class="s44" d="m174.4 218.8c-6.5 0-13-2.5-18-7.5l-50.1-50c-9.9-9.9-9.9-26.1 0-36 9.9-9.9 26.1-9.9 36 0l50 50.1c9.9 9.9 9.9 26 0 35.9-4.9 5-11.4 7.5-17.9 7.5z"/>
	</g>
	<g style="opacity: .06">
		<path class="s45" d="m74.2 156.1c-16.1 0-32.2-6.1-44.4-18.4-24.6-24.5-24.6-64.4 0-88.9 24.5-24.6 64.4-24.6 88.9 0 24.5 24.5 24.5 64.4 0 88.9-12.3 12.3-28.4 18.4-44.5 18.4zm0-96.5c-8.6 0-17.2 3.3-23.8 9.8-13.1 13.2-13.1 34.5 0 47.6 6.6 6.6 15.2 9.9 23.8 9.9 8.7 0 17.3-3.3 23.8-9.9 13.2-13.1 13.2-34.4 0-47.6-6.5-6.5-15.1-9.8-23.8-9.8z"/>
		<path class="s46" d="m97 85.1c-3.8 0-7.5-1.4-10.3-4.3-6.9-6.8-18-6.8-24.9 0-5.7 5.7-15 5.7-20.7 0-5.7-5.7-5.7-15 0-20.7 18.3-18.2 48-18.2 66.2 0 5.7 5.7 5.7 15 0 20.7-2.8 2.9-6.6 4.3-10.3 4.3z"/>
		<path class="s47" d="m115.1 155.1c-3.8 0-7.5-1.5-10.4-4.3l-10-10.1c-5.7-5.7-5.7-14.9 0-20.6 5.7-5.7 15-5.7 20.7 0l10 10c5.7 5.7 5.7 15 0 20.7-2.8 2.8-6.6 4.3-10.3 4.3z"/>
		<path class="s48" d="m121.4 148.7c-3.7 0-7.4-1.4-10.3-4.3l-10-10c-5.7-5.7-5.7-15 0-20.7 5.7-5.7 14.9-5.7 20.6 0l10.1 10c5.7 5.7 5.7 15 0 20.7-2.9 2.9-6.6 4.3-10.4 4.3z"/>
		<path class="s49" d="m174.4 217.6c-6.5 0-12.6-2.5-17.2-7.1l-50.1-50c-4.6-4.6-7.1-10.7-7.1-17.2 0-6.5 2.5-12.6 7.1-17.2 4.6-4.6 10.7-7.1 17.2-7.1 6.5 0 12.6 2.5 17.2 7.1l50 50.1c4.6 4.6 7.1 10.7 7.1 17.2 0 6.5-2.5 12.6-7.1 17.1-4.5 4.6-10.6 7.1-17.1 7.1z"/>
	</g>
	<g style="opacity: .06">
		<path class="s50" d="m74.2 155c-15.8 0-31.6-6-43.6-18.1-24.1-24.1-24.1-63.3 0-87.3 24-24.1 63.2-24.1 87.3 0 24.1 24 24.1 63.2 0 87.3-12 12.1-27.8 18.1-43.7 18.1zm0-96.5c-8.9 0-17.8 3.4-24.6 10.1-13.5 13.6-13.5 35.7 0 49.2 6.8 6.8 15.7 10.2 24.6 10.2 8.9 0 17.8-3.4 24.6-10.2 13.6-13.5 13.6-35.6 0-49.2-6.8-6.7-15.7-10.1-24.6-10.1z"/>
		<path class="s51" d="m97 84c-3.5 0-6.9-1.3-9.6-4-7.2-7.3-19.1-7.3-26.4 0-5.2 5.3-13.8 5.3-19.1 0-5.2-5.3-5.2-13.8 0-19.1 17.8-17.8 46.8-17.8 64.6 0 5.3 5.3 5.3 13.8 0 19.1-2.6 2.7-6.1 4-9.5 4z"/>
		<path class="s52" d="m115.1 153.9c-3.5 0-6.9-1.3-9.6-3.9l-10-10c-5.3-5.3-5.3-13.9 0-19.1 5.3-5.3 13.8-5.3 19.1 0l10 10c5.3 5.3 5.3 13.8 0 19.1-2.6 2.6-6.1 3.9-9.5 3.9z"/>
		<path class="s53" d="m121.4 147.6c-3.4 0-6.9-1.3-9.5-4l-10-10c-5.3-5.3-5.3-13.8 0-19.1 5.2-5.3 13.8-5.3 19.1 0l10 10c5.3 5.3 5.3 13.8 0 19.1-2.6 2.7-6.1 4-9.6 4z"/>
		<path class="s54" d="m174.4 216.5c-6 0-11.9-2.2-16.4-6.8l-50.1-50c-9-9.1-9-23.7 0-32.8 9.1-9 23.7-9 32.8 0l50 50.1c9.1 9 9.1 23.7 0 32.7-4.5 4.6-10.4 6.8-16.3 6.8z"/>
	</g>
	<g style="opacity: .07">
		<path class="s55" d="m74.2 153.9c-15.5 0-31-6-42.9-17.8-23.6-23.6-23.6-62.1 0-85.8 11.5-11.4 26.7-17.7 42.9-17.7 16.2 0 31.5 6.3 42.9 17.7 23.7 23.7 23.7 62.2 0 85.8-11.8 11.8-27.3 17.8-42.9 17.8zm0-96.6c-9.2 0-18.4 3.5-25.4 10.5-14 14-14 36.8 0 50.8 7 7 16.2 10.5 25.4 10.5 9.2 0 18.4-3.5 25.4-10.5 14-14 14-36.8 0-50.8-7-7-16.2-10.5-25.4-10.5z"/>
		<path class="s56" d="m97 82.9c-3.2 0-6.3-1.3-8.8-3.7-3.7-3.7-8.7-5.8-14-5.8-5.3 0-10.2 2.1-14 5.8-4.8 4.9-12.6 4.9-17.5 0-4.8-4.8-4.8-12.6 0-17.5 17.4-17.3 45.7-17.3 63 0 4.9 4.9 4.9 12.7 0 17.5-2.4 2.4-5.5 3.7-8.7 3.7z"/>
		<path class="s57" d="m115.1 152.8c-3.2 0-6.4-1.2-8.8-3.6l-10-10c-4.8-4.9-4.8-12.7 0-17.5 4.8-4.9 12.7-4.9 17.5 0l10 10c4.9 4.8 4.9 12.7 0 17.5-2.4 2.4-5.6 3.6-8.7 3.6z"/>
		<path class="s58" d="m121.4 146.4c-3.1 0-6.3-1.2-8.7-3.6l-10-10c-4.9-4.8-4.9-12.7 0-17.5 4.8-4.8 12.6-4.8 17.5 0l10 10c4.8 4.9 4.8 12.7 0 17.5-2.4 2.4-5.6 3.6-8.8 3.6z"/>
		<path class="s59" d="m174.4 215.4c-5.9 0-11.4-2.3-15.6-6.5l-50.1-50c-4.1-4.2-6.4-9.7-6.4-15.6 0-5.9 2.3-11.4 6.4-15.6 4.2-4.1 9.7-6.4 15.6-6.4 5.9 0 11.4 2.3 15.6 6.4l50 50.1c4.2 4.2 6.5 9.7 6.5 15.6 0 5.9-2.3 11.4-6.5 15.5-4.1 4.2-9.6 6.5-15.5 6.5z"/>
	</g>
	<g style="opacity: .07">
		<path class="s60" d="m74.2 152.7c-15.2 0-30.5-5.8-42.1-17.4-23.2-23.2-23.2-60.9 0-84.2 11.3-11.2 26.2-17.4 42.1-17.4 15.9 0 30.9 6.2 42.1 17.4 23.2 23.3 23.2 61 0 84.2-11.6 11.6-26.8 17.4-42.1 17.4zm0-96.5c-9.4 0-18.9 3.6-26.1 10.9-14.5 14.4-14.5 37.9 0 52.3 7.2 7.2 16.7 10.8 26.1 10.8 9.5 0 19-3.6 26.2-10.8 14.5-14.4 14.5-37.9 0-52.3-7.2-7.3-16.7-10.9-26.2-10.9z"/>
		<path class="s61" d="m97 81.7c-2.9 0-5.8-1.1-8-3.3-8.1-8.1-21.4-8.1-29.6 0-4.4 4.4-11.5 4.4-15.9 0-4.4-4.4-4.4-11.5 0-15.9 8.2-8.2 19.1-12.7 30.7-12.7 11.6 0 22.5 4.5 30.7 12.7 4.4 4.4 4.4 11.5 0 15.9-2.1 2.2-5 3.3-7.9 3.3z"/>
		<path class="s62" d="m115.1 151.7c-2.9 0-5.8-1.1-8-3.3l-10-10c-4.4-4.4-4.4-11.6 0-15.9 4.4-4.4 11.5-4.4 15.9 0l10 10c4.4 4.4 4.4 11.5 0 15.9-2.2 2.2-5 3.3-7.9 3.3z"/>
		<path class="s63" d="m121.4 145.3c-2.8 0-5.7-1.1-7.9-3.3l-10-10c-4.4-4.4-4.4-11.5 0-15.9 4.3-4.4 11.5-4.4 15.9 0l10 10c4.4 4.4 4.4 11.5 0 15.9-2.2 2.2-5.1 3.3-8 3.3z"/>
		<path class="s64" d="m174.4 214.3c-5.4 0-10.7-2.1-14.8-6.1l-50.1-50.1c-8.1-8.2-8.1-21.4 0-29.6 8.2-8.1 21.4-8.1 29.6 0l50.1 50.1c8.1 8.1 8.1 21.4 0 29.5-4.1 4.1-9.5 6.2-14.8 6.2z"/>
	</g>
	<g style="opacity: .07">
		<path class="s65" d="m74.2 151.6c-14.9 0-29.9-5.7-41.3-17.1-22.7-22.7-22.7-59.8 0-82.6 11.1-11 25.7-17.1 41.3-17.1 15.6 0 30.3 6.1 41.3 17.1 22.8 22.8 22.8 59.9 0 82.6-11.4 11.4-26.3 17.1-41.3 17.1zm0-96.5c-10.2 0-19.7 4-26.9 11.2-14.9 14.8-14.9 39 0 53.9 7.4 7.4 17.2 11.2 26.9 11.2 9.8 0 19.6-3.7 27-11.2 14.9-14.9 14.9-39.1 0-53.9-7.2-7.2-16.8-11.2-27-11.2z"/>
		<path class="s66" d="m97 80.6c-2.6 0-5.2-1-7.2-3-8.6-8.6-22.6-8.6-31.2 0-3.9 4-10.3 4-14.3 0-3.9-3.9-3.9-10.3 0-14.3 16.5-16.5 43.4-16.5 59.9 0 3.9 4 3.9 10.4 0 14.3-2 2-4.6 3-7.2 3z"/>
		<path class="s67" d="m115.1 150.6c-2.6 0-5.2-1-7.2-3l-10-10c-4-4-4-10.4 0-14.4 3.9-3.9 10.3-3.9 14.3 0l10 10.1c4 3.9 4 10.4 0 14.3-1.9 2-4.5 3-7.1 3z"/>
		<path class="s68" d="m121.4 144.2c-2.5 0-5.1-1-7.1-3l-10.1-10c-3.9-4-3.9-10.4 0-14.3 4-4 10.4-4 14.4 0l10 10c4 4 4 10.4 0 14.3-2 2-4.6 3-7.2 3z"/>
		<path class="s69" d="m174.4 213.1c-5.1 0-10.2-1.9-14-5.7l-50.1-50.1c-7.7-7.7-7.7-20.3 0-28 7.7-7.7 20.3-7.7 28 0l50.1 50.1c7.7 7.7 7.7 20.2 0 28-3.9 3.8-9 5.7-14 5.7z"/>
	</g>
	<g style="opacity: .08">
		<path class="s70" d="m74.2 150.5c-14.6 0-29.3-5.6-40.5-16.8-22.3-22.3-22.3-58.6 0-81 22.4-22.3 58.7-22.3 81 0 22.4 22.4 22.4 58.7 0 81-11.1 11.2-25.8 16.8-40.5 16.8zm0-96.5c-10 0-20.1 3.8-27.7 11.5-15.4 15.3-15.4 40.2 0 55.5 7.6 7.7 17.7 11.5 27.7 11.5 10.1 0 20.1-3.8 27.8-11.5 15.3-15.3 15.3-40.2 0-55.5-7.6-7.7-17.7-11.5-27.8-11.5z"/>
		<path class="s71" d="m97 79.5c-2.3 0-4.6-0.9-6.4-2.7-9-9-23.7-9-32.8 0-3.5 3.6-9.2 3.6-12.7 0-3.5-3.5-3.5-9.2 0-12.7 16.1-16 42.2-16 58.3 0 3.5 3.5 3.5 9.2 0 12.7-1.8 1.8-4.1 2.7-6.4 2.7z"/>
		<path class="s72" d="m115.1 149.4c-2.3 0-4.6-0.8-6.4-2.6l-10-10c-3.5-3.5-3.5-9.2 0-12.8 3.5-3.5 9.2-3.5 12.7 0l10 10.1c3.6 3.5 3.6 9.2 0 12.7-1.7 1.8-4 2.6-6.3 2.6z"/>
		<path class="s73" d="m121.4 143.1c-2.3 0-4.6-0.9-6.3-2.7l-10.1-10c-3.5-3.5-3.5-9.2 0-12.7 3.6-3.5 9.3-3.5 12.8 0l10 10c3.5 3.5 3.5 9.2 0 12.7-1.7 1.8-4 2.7-6.4 2.7z"/>
		<path class="s74" d="m174.4 212c-4.8 0-9.6-1.8-13.2-5.4l-50.1-50.1c-7.3-7.3-7.3-19.1 0-26.4 7.3-7.3 19.1-7.3 26.4 0l50.1 50.1c7.2 7.2 7.2 19.1 0 26.4-3.7 3.6-8.5 5.4-13.2 5.4zm-50.1-69.4q-0.3 0-0.5 0.2c-0.2 0.3-0.2 0.7 0 1l50.1 50c0.3 0.3 0.7 0.3 0.9 0 0.3-0.2 0.3-0.6 0-0.9l-50-50.1q-0.2-0.2-0.5-0.2z"/>
	</g>
	<g style="opacity: .08">
		<path class="s75" d="m74.2 149.4c-14.3 0-28.7-5.5-39.7-16.5-21.9-21.9-21.9-57.5 0-79.4 21.9-21.9 57.5-21.9 79.4 0 21.9 21.9 21.9 57.5 0 79.4-10.9 11-25.3 16.5-39.7 16.5zm0-96.5c-10.3 0-20.7 3.9-28.5 11.8-15.8 15.7-15.8 41.4 0 57.1 7.8 7.9 18.2 11.8 28.5 11.8 10.4 0 20.7-3.9 28.6-11.8 15.8-15.8 15.8-41.4 0-57.1-7.9-7.9-18.2-11.8-28.6-11.8z"/>
		<path class="s76" d="m97 78.4c-2 0-4-0.8-5.6-2.4-9.5-9.4-24.9-9.4-34.4 0-3 3.1-8 3.1-11.1 0-3.1-3-3.1-8 0-11.1 15.6-15.6 41-15.6 56.7 0 3 3.1 3 8.1 0 11.1-1.6 1.6-3.6 2.4-5.6 2.4z"/>
		<path class="s77" d="m115.1 148.3c-2 0-4.1-0.7-5.6-2.3l-10-10c-3.1-3.1-3.1-8.1 0-11.2 3-3 8-3 11.1 0l10 10.1c3.1 3.1 3.1 8 0 11.1-1.5 1.6-3.5 2.3-5.5 2.3z"/>
		<path class="s78" d="m121.4 141.9c-2 0-4-0.7-5.5-2.3l-10.1-10c-3-3.1-3-8.1 0-11.1 3.1-3.1 8.1-3.1 11.2 0l10 10c3.1 3.1 3.1 8.1 0 11.1-1.5 1.6-3.5 2.3-5.6 2.3z"/>
		<path class="s79" d="m174.4 210.9c-4.5 0-9-1.7-12.4-5.1l-50.1-50.1c-6.8-6.8-6.8-18 0-24.8 6.8-6.8 18-6.8 24.8 0l50.1 50.1c6.8 6.8 6.8 17.9 0 24.8-3.5 3.4-7.9 5.1-12.4 5.1zm-50.1-69.4c-0.5 0-0.9 0.2-1.3 0.5-0.7 0.7-0.7 1.9 0 2.6l50.1 50c0.7 0.7 1.8 0.7 2.5 0 0.7-0.7 0.7-1.8 0-2.5l-50-50.1c-0.4-0.3-0.8-0.5-1.3-0.5z"/>
	</g>
	<g style="opacity: .08">
		<path class="s80" d="m74.2 148.2c-14.1 0-28.1-5.3-38.9-16.1-21.4-21.4-21.4-56.3 0-77.8 21.5-21.4 56.4-21.4 77.8 0 21.5 21.5 21.5 56.4 0 77.8-10.7 10.8-24.8 16.1-38.9 16.1zm0-96.5c-10.6 0-21.2 4.1-29.3 12.2-16.2 16.2-16.2 42.5 0 58.7 8.1 8.1 18.7 12.1 29.3 12.1 10.7 0 21.3-4 29.4-12.1 16.2-16.2 16.2-42.5 0-58.7-8.1-8.1-18.7-12.2-29.4-12.2z"/>
		<path class="s81" d="m97 77.2c-1.7 0-3.5-0.6-4.8-2-9.9-9.9-26-9.9-36 0-2.6 2.7-6.9 2.7-9.5 0-2.6-2.6-2.6-6.9 0-9.5 15.2-15.2 39.9-15.2 55.1 0 2.6 2.6 2.6 6.9 0 9.5-1.4 1.4-3.1 2-4.8 2z"/>
		<path class="s82" d="m115.1 147.2c-1.8 0-3.5-0.7-4.8-2l-10-10c-2.7-2.7-2.7-6.9 0-9.6 2.6-2.6 6.9-2.6 9.5 0l10 10.1c2.7 2.6 2.7 6.9 0 9.5-1.3 1.3-3 2-4.7 2z"/>
		<path class="s83" d="m121.4 140.8c-1.7 0-3.4-0.6-4.7-2l-10.1-10c-2.6-2.6-2.6-6.9 0-9.5 2.7-2.7 6.9-2.7 9.6 0l10 10c2.7 2.6 2.7 6.9 0 9.5-1.3 1.4-3 2-4.8 2z"/>
		<path class="s84" d="m174.4 209.8c-4.2 0-8.4-1.6-11.6-4.8l-50.1-50.1c-6.4-6.4-6.4-16.8 0-23.2 6.4-6.4 16.8-6.4 23.2 0l50.1 50.1c6.4 6.4 6.4 16.8 0 23.2-3.2 3.2-7.4 4.8-11.6 4.8zm-50.1-69.4c-0.7 0-1.5 0.3-2.1 0.8-1.1 1.2-1.1 3 0 4.2l50.1 50c1.1 1.2 3 1.2 4.1 0 1.2-1.1 1.2-3 0-4.1l-50-50.1c-0.6-0.5-1.4-0.8-2.1-0.8z"/>
	</g>
	<g style="opacity: .08">
		<path class="s85" d="m74.2 147.1c-13.8 0-27.6-5.2-38.1-15.8-21-21-21-55.2 0-76.2 21-21 55.2-21 76.2 0 21.1 21 21.1 55.2 0 76.2-10.5 10.6-24.3 15.8-38.1 15.8zm0-96.5c-10.9 0-21.8 4.2-30.1 12.5-16.7 16.6-16.7 43.7 0 60.3 8.3 8.3 19.2 12.5 30.1 12.5 11 0 21.9-4.2 30.2-12.5 16.6-16.6 16.6-43.7 0-60.3-8.3-8.3-19.2-12.5-30.2-12.5z"/>
		<path class="s86" d="m97 76.1c-1.4 0-2.9-0.5-4-1.6-10.3-10.4-27.2-10.4-37.5 0-2.2 2.2-5.8 2.2-8 0-2.2-2.2-2.2-5.8 0-8 14.7-14.7 38.7-14.7 53.5 0 2.2 2.2 2.2 5.8 0 8-1.1 1.1-2.6 1.6-4 1.6z"/>
		<path class="s87" d="m115.1 146.1c-1.5 0-2.9-0.6-4-1.7l-10-10c-2.2-2.2-2.2-5.8 0-8 2.2-2.2 5.7-2.2 7.9 0l10.1 10.1c2.2 2.2 2.2 5.7 0 7.9-1.1 1.1-2.6 1.7-4 1.7z"/>
		<path class="s88" d="m121.4 139.7c-1.4 0-2.8-0.5-3.9-1.6l-10.1-10.1c-2.2-2.2-2.2-5.7 0-7.9 2.2-2.2 5.8-2.2 8 0l10 10c2.2 2.2 2.2 5.8 0 8-1.1 1.1-2.5 1.6-4 1.6z"/>
		<path class="s89" d="m174.4 208.6c-3.9 0-7.9-1.4-10.8-4.4l-50.1-50.1c-6-6-6-15.6 0-21.6 6-6 15.6-6 21.6 0l50.1 50.1c5.9 5.9 5.9 15.6 0 21.6-3 3-6.9 4.4-10.8 4.4zm-50.1-69.3c-1.1 0-2.1 0.4-2.8 1.2-0.8 0.7-1.2 1.7-1.2 2.8 0 1.1 0.4 2.1 1.2 2.9l50 50c0.8 0.8 1.8 1.2 2.9 1.2 1 0 2.1-0.4 2.8-1.2 0.8-0.7 1.2-1.8 1.2-2.8 0-1.1-0.4-2.1-1.2-2.9l-50-50c-0.8-0.8-1.8-1.2-2.9-1.2z"/>
	</g>
	<path class="s90" d="m74.2 146.2c-13.5 0-27.1-5.2-37.4-15.5-20.7-20.7-20.7-54.3 0-74.9 20.6-20.7 54.2-20.7 74.9 0 20.7 20.6 20.7 54.2 0 74.9-10.3 10.3-23.9 15.5-37.5 15.5zm0-96.5c-11.1 0-22.3 4.2-30.8 12.7-16.9 17-16.9 44.6 0 61.6 8.5 8.5 19.7 12.8 30.8 12.8 11.2 0 22.3-4.3 30.8-12.8 17-17 17-44.6 0-61.6-8.5-8.5-19.6-12.7-30.8-12.7z"/>
	<path class="s91" d="m97 75.2c-1.2 0-2.4-0.5-3.3-1.4-10.8-10.7-28.2-10.7-38.9 0-1.8 1.9-4.8 1.9-6.7 0-1.8-1.8-1.8-4.8 0-6.7 14.4-14.4 37.8-14.4 52.2 0 1.9 1.9 1.9 4.9 0 6.7-0.9 0.9-2.1 1.4-3.3 1.4z"/>
	<path class="s92" d="m115.1 145.2c-1.2 0-2.4-0.5-3.4-1.4l-10-10.1c-1.9-1.8-1.9-4.8 0-6.6 1.8-1.9 4.8-1.9 6.7 0l10 10c1.9 1.9 1.9 4.8 0 6.7-0.9 0.9-2.1 1.4-3.3 1.4z"/>
	<path class="s93" d="m121.4 138.8c-1.2 0-2.4-0.5-3.3-1.4l-10-10c-1.9-1.9-1.9-4.9 0-6.7 1.8-1.9 4.8-1.9 6.6 0l10.1 10c1.8 1.9 1.8 4.9 0 6.7-0.9 0.9-2.1 1.4-3.4 1.4z"/>
	<path class="s94" d="m174.4 207.7c-3.7 0-7.4-1.4-10.2-4.2l-50.1-50c-5.6-5.6-5.6-14.8 0-20.4 5.6-5.6 14.8-5.6 20.4 0l50 50.1c5.6 5.6 5.6 14.7 0 20.3-2.8 2.8-6.4 4.2-10.1 4.2zm-50.1-69.3c-1.3 0-2.5 0.5-3.5 1.4-1.9 1.9-1.9 5.1 0 7l50.1 50.1c1.9 1.9 5 1.9 7 0 1.9-2 1.9-5.1 0-7l-50.1-50.1c-1-0.9-2.2-1.4-3.5-1.4z"/>
	<g style="opacity: .2">
		<path class="s95" d="m74.2 145.3c-13.3 0-26.6-5.1-36.8-15.2-20.3-20.3-20.3-53.4 0-73.7 9.8-9.8 22.9-15.3 36.8-15.3 14 0 27 5.5 36.9 15.3 20.3 20.3 20.3 53.4 0 73.7-10.2 10.1-23.5 15.2-36.9 15.2zm0-96.5c-11.3 0-22.7 4.3-31.4 13-17.3 17.3-17.3 45.5 0 62.9 8.7 8.6 20.1 13 31.4 13 11.4 0 22.8-4.4 31.5-13 17.3-17.4 17.3-45.6 0-62.9-8.7-8.7-20.1-13-31.5-13z"/>
		<path class="s95" d="m97 74.3c-1 0-2-0.4-2.7-1.1-11.1-11.1-29.1-11.1-40.1 0-1.5 1.5-3.9 1.5-5.4 0-1.5-1.5-1.5-3.9 0-5.4 14-14.1 36.9-14.1 50.9 0 1.5 1.5 1.5 3.9 0 5.4-0.7 0.7-1.7 1.1-2.7 1.1z"/>
		<path class="s95" d="m115.1 144.3c-1 0-2-0.4-2.7-1.1l-10.1-10.1c-1.5-1.5-1.5-3.9 0-5.4 1.5-1.5 3.9-1.5 5.4 0l10.1 10c1.5 1.5 1.5 4 0 5.5-0.8 0.7-1.7 1.1-2.7 1.1z"/>
		<path class="s95" d="m121.4 137.9c-0.9 0-1.9-0.4-2.7-1.1l-10-10.1c-1.5-1.5-1.5-3.9 0-5.4 1.5-1.5 3.9-1.5 5.4 0l10.1 10.1c1.4 1.5 1.4 3.9 0 5.4-0.8 0.7-1.8 1.1-2.8 1.1z"/>
		<path class="s95" d="m174.4 206.8c-3.5 0-6.9-1.3-9.6-3.9l-50-50.1c-5.3-5.2-5.3-13.8 0-19 5.2-5.3 13.8-5.3 19 0l50.1 50c5.3 5.3 5.3 13.8 0 19.1-2.6 2.6-6.1 3.9-9.5 3.9zm-50.1-69.3c-1.5 0-3 0.5-4.1 1.7-2.3 2.3-2.3 6 0 8.2l50 50.1c2.3 2.3 6 2.3 8.3 0 2.3-2.3 2.3-6 0-8.3l-50.1-50c-1.1-1.2-2.6-1.7-4.1-1.7z"/>
	</g>
	<g style="opacity: .4">
		<path class="s95" d="m74.2 144.4c-13.1 0-26.2-5-36.2-15-19.9-19.9-19.9-52.4 0-72.4 9.7-9.6 22.6-15 36.2-15 13.7 0 26.6 5.4 36.2 15 20 20 20 52.5 0 72.4-9.9 10-23.1 15-36.2 15zm0-96.5c-11.6 0-23.2 4.4-32 13.3-17.7 17.6-17.7 46.4 0 64.1 8.8 8.8 20.4 13.3 32 13.3 11.6 0 23.3-4.5 32.1-13.3 17.7-17.7 17.7-46.4 0-64.1-8.8-8.9-20.5-13.3-32.1-13.3z"/>
		<path class="s95" d="m97 73.4c-0.8 0-1.5-0.3-2.1-0.9-11.4-11.4-29.9-11.4-41.4 0-1.1 1.2-2.9 1.2-4.1 0-1.1-1.1-1.1-2.9 0-4.1 13.7-13.7 36-13.7 49.7 0 1.1 1.2 1.1 3 0 4.1-0.6 0.6-1.4 0.9-2.1 0.9z"/>
		<path class="s95" d="m115.1 143.4c-0.8 0-1.5-0.3-2.1-0.9l-10-10c-1.2-1.2-1.2-3 0-4.2 1.1-1.1 3-1.1 4.1 0l10 10.1c1.2 1.1 1.2 3 0 4.1-0.5 0.6-1.3 0.9-2 0.9z"/>
		<path class="s95" d="m121.4 137c-0.7 0-1.4-0.3-2-0.9l-10.1-10c-1.1-1.1-1.1-3 0-4.1 1.2-1.2 3-1.2 4.2 0l10 10c1.2 1.1 1.2 3 0 4.1-0.6 0.6-1.3 0.9-2.1 0.9z"/>
		<path class="s95" d="m174.4 205.9c-3.4 0-6.6-1.3-8.9-3.6l-50.1-50.1c-2.4-2.4-3.7-5.5-3.7-8.9 0-3.4 1.3-6.5 3.7-8.9 2.4-2.4 5.5-3.7 8.9-3.7 3.4 0 6.5 1.3 8.9 3.7l50.1 50.1c2.3 2.3 3.6 5.5 3.6 8.9 0 3.3-1.3 6.5-3.6 8.9-2.4 2.3-5.6 3.6-8.9 3.6zm-50.1-69.3c-1.7 0-3.4 0.6-4.8 1.9-2.6 2.7-2.6 6.9 0 9.6l50.1 50c2.6 2.7 6.9 2.7 9.5 0 2.7-2.6 2.7-6.9 0-9.5l-50-50.1c-1.3-1.3-3.1-1.9-4.8-1.9z"/>
	</g>
	<g style="opacity: .4">
		<path class="s95" d="m74.2 143.3c-12.8 0-25.6-4.9-35.4-14.7-19.5-19.5-19.5-51.3 0-70.8 19.6-19.5 51.3-19.5 70.8 0 19.6 19.5 19.6 51.3 0 70.8-9.7 9.8-22.5 14.7-35.4 14.7zm0-96.5c-11.9 0-23.8 4.5-32.8 13.6-18.2 18.1-18.2 47.6 0 65.7 18.1 18.1 47.6 18.1 65.7 0 18.1-18.1 18.1-47.6 0-65.7-9.1-9.1-21-13.6-32.9-13.6z"/>
		<path class="s95" d="m97 72.3c-0.5 0-0.9-0.2-1.3-0.6-11.8-11.8-31.1-11.8-43 0-0.7 0.8-1.8 0.8-2.5 0-0.7-0.7-0.7-1.8 0-2.5 13.3-13.2 34.8-13.2 48.1 0 0.7 0.7 0.7 1.8 0 2.5-0.4 0.4-0.8 0.6-1.3 0.6z"/>
		<path class="s95" d="m115.1 142.2c-0.5 0-0.9-0.1-1.3-0.5l-10-10c-0.7-0.7-0.7-1.9 0-2.6 0.7-0.7 1.8-0.7 2.5 0l10 10.1c0.8 0.7 0.8 1.8 0 2.5-0.3 0.4-0.8 0.5-1.2 0.5z"/>
		<path class="s95" d="m121.4 135.9c-0.4 0-0.9-0.2-1.2-0.6l-10.1-10c-0.7-0.7-0.7-1.8 0-2.5 0.7-0.7 1.9-0.7 2.6 0l10 10c0.7 0.7 0.7 1.8 0 2.5-0.3 0.4-0.8 0.6-1.3 0.6z"/>
		<path class="s95" d="m174.4 204.8c-3 0-5.9-1.1-8.1-3.3l-50.1-50.1c-4.5-4.5-4.5-11.7 0-16.2 4.5-4.5 11.7-4.5 16.2 0l50.1 50.1c4.4 4.4 4.4 11.7 0 16.2-2.3 2.2-5.2 3.3-8.1 3.3zm-50.1-69.4c-2.1 0-4.1 0.9-5.6 2.3-1.4 1.5-2.3 3.5-2.3 5.6 0 2.1 0.9 4.1 2.3 5.6l50.1 50c1.5 1.5 3.5 2.3 5.6 2.3 2.1 0 4-0.8 5.5-2.3 1.5-1.5 2.3-3.4 2.3-5.5 0-2.1-0.8-4.1-2.3-5.6l-50-50.1c-1.5-1.4-3.5-2.3-5.6-2.3z"/>
	</g>
	<g style="opacity: .4">
		<path class="s95" d="m74.2 142.2c-12.5 0-25-4.8-34.6-14.4-19.1-19-19.1-50.1 0-69.2 19.1-19.1 50.2-19.1 69.2 0 19.1 19.1 19.1 50.2 0 69.2-9.5 9.6-22 14.4-34.6 14.4zm0-96.5c-12.2 0-24.3 4.6-33.6 13.9-18.6 18.5-18.6 48.7 0 67.3 18.5 18.6 48.7 18.6 67.3 0 18.6-18.6 18.6-48.8 0-67.3-9.3-9.3-21.5-13.9-33.7-13.9z"/>
		<path class="s95" d="m97 71.2q-0.3 0-0.5-0.2c-5.9-6-13.8-9.3-22.3-9.3-8.4 0-16.3 3.3-22.2 9.3-0.3 0.2-0.7 0.2-1 0-0.3-0.3-0.3-0.7 0-1 6.2-6.2 14.5-9.6 23.2-9.6 8.8 0 17.1 3.4 23.3 9.6 0.2 0.3 0.2 0.7 0 1q-0.2 0.2-0.5 0.2z"/>
		<path class="s95" d="m115.1 141.1q-0.3 0-0.5-0.2l-10-10c-0.3-0.3-0.3-0.7 0-1 0.2-0.2 0.6-0.2 0.9 0l10.1 10.1c0.2 0.2 0.2 0.7 0 0.9q-0.3 0.2-0.5 0.2z"/>
		<path class="s95" d="m121.4 134.8q-0.2-0.1-0.4-0.2l-10.1-10.1c-0.2-0.3-0.2-0.7 0-0.9 0.3-0.3 0.7-0.3 1 0l10 10c0.3 0.3 0.3 0.7 0 1q-0.2 0.2-0.5 0.1z"/>
		<path class="s95" d="m174.4 203.7c-2.8 0-5.4-1.1-7.3-3l-50.1-50.1c-2-1.9-3-4.5-3-7.3 0-2.8 1-5.4 3-7.3 1.9-2 4.5-3 7.3-3 2.8 0 5.4 1 7.3 3l50.1 50.1c1.9 1.9 3 4.5 3 7.3 0 2.7-1.1 5.3-3 7.3-2 1.9-4.6 3-7.3 3zm-50.1-69.4c-2.4 0-4.7 1-6.3 2.7-1.7 1.6-2.7 3.9-2.7 6.3 0 2.4 1 4.7 2.7 6.4l50 50c1.7 1.7 4 2.6 6.4 2.6 2.4 0 4.6-0.9 6.3-2.6 1.7-1.7 2.6-3.9 2.6-6.3 0-2.4-0.9-4.7-2.6-6.4l-50-50c-1.7-1.7-4-2.7-6.4-2.7z"/>
	</g>
	<g style="opacity: .6">
		<path class="s95" d="m74.2 141.7c-12.4 0-24.8-4.7-34.3-14.2-18.9-18.9-18.9-49.6 0-68.6 18.9-18.9 49.7-18.9 68.6 0 18.9 18.9 18.9 49.7 0 68.6-9.4 9.5-21.8 14.2-34.3 14.2zm0-96.5c-12.3 0-24.6 4.7-33.9 14.1-18.8 18.7-18.8 49.2 0 67.9 18.7 18.7 49.2 18.7 67.9 0 18.7-18.7 18.7-49.2 0-67.9-9.4-9.4-21.7-14.1-34-14.1z"/>
		<path class="s95" d="m97 70.7q-0.1 0-0.2-0.1c-12.4-12.4-32.7-12.4-45.2 0-0.1 0.1-0.2 0.1-0.3 0-0.1-0.1-0.1-0.2 0-0.3 6.1-6.1 14.3-9.5 22.9-9.5 8.7 0 16.8 3.4 23 9.5 0 0.1 0 0.2 0 0.3q-0.1 0.1-0.2 0.1z"/>
		<path class="s95" d="m115.1 140.7q-0.1 0-0.2-0.1l-10-10c-0.1-0.1-0.1-0.3 0-0.4 0.1 0 0.2 0 0.3 0l10 10.1c0.1 0.1 0.1 0.2 0 0.3q0 0.1-0.1 0.1z"/>
		<path class="s95" d="m121.4 134.3q0 0-0.1-0.1l-10.1-10c0-0.1 0-0.2 0-0.3 0.1-0.1 0.3-0.1 0.4 0l10 10c0.1 0.1 0.1 0.2 0 0.3q-0.1 0.1-0.2 0.1z"/>
		<path class="s95" d="m174.4 203.2c-2.6 0-5.1-0.9-7-2.8l-50.1-50.1c-3.8-3.9-3.8-10.1 0-14 3.9-3.8 10.1-3.8 14 0l50.1 50.1c3.8 3.8 3.8 10.1 0 14-2 1.9-4.5 2.8-7 2.8zm-50.1-69.3c-2.4 0-4.8 0.9-6.7 2.7-3.6 3.7-3.6 9.7 0 13.4l50.1 50c3.7 3.7 9.7 3.7 13.3 0 3.7-3.6 3.7-9.6 0-13.3l-50-50.1c-1.9-1.8-4.3-2.7-6.7-2.7z"/>
	</g>
	<g style="opacity: .02">
		<path class="s96" d="m173.3 135.1c-18.2 0-32.5-14.6-32.5-33.1 0-6.2 1.6-11.9 4.3-16.7q-0.3-1-0.4-2c-1.6-10.1 0.7-18.4 4.2-25q-0.4-0.3-0.7-0.6l-13.2-12.2c-7.4-6.7-8.1-18.2-1.5-25.7 11.1-12.6 25.9-19.6 41.8-19.6 12.3 0 23.1 3.4 31.2 9.8 6.9 5.4 15.1 15.7 15.1 33.5 0 15.9-9.2 25.5-15.2 31.8-1.3 1.3-3.2 3.3-4 4.4 0.1 2-0.1 4-0.7 5.9 2.6 4.8 4.1 10.4 4.1 16.4 0 18.5-14.3 33.1-32.5 33.1zm-2.3-36.2c-1.2 0.8-2 2-2 3 0 1.7 2 3.8 4.3 3.8 2.3 0 4.3-2.1 4.3-3.8 0-1-0.8-2.2-2-3h-4.6z"/>
	</g>
	<g style="opacity: .02">
		<path class="s97" d="m173.3 134.3c-17.8 0-31.7-14.2-31.7-32.3 0-6.2 1.6-11.8 4.4-16.6q-0.3-1.1-0.5-2.2c-1.6-10.2 0.8-18.5 4.4-25.1q-0.6-0.5-1.2-1l-13.2-12.1c-7.1-6.5-7.7-17.5-1.4-24.7 10.9-12.4 25.5-19.3 41.2-19.3 12.2 0 22.8 3.3 30.7 9.6 6.7 5.4 14.8 15.4 14.8 32.9 0 15.6-9 25-15 31.2-1.4 1.5-3.5 3.6-4.2 4.8 0.1 2.1-0.1 4.2-0.8 6.2 2.7 4.8 4.2 10.3 4.2 16.3 0 18.1-13.9 32.3-31.7 32.3zm0-35.3c-1.8 0-3.5 1.7-3.5 3 0 1.2 1.7 2.9 3.5 2.9 1.8 0 3.5-1.7 3.5-2.9 0-1.3-1.7-3-3.5-3z"/>
	</g>
	<g style="opacity: .02">
		<path class="s98" d="m173.3 133.5c-17.3 0-30.9-13.9-30.9-31.5 0-6.1 1.6-11.8 4.4-16.5q-0.3-1.2-0.5-2.4c-1.3-8.6 0.1-17 4.3-24.8q0.2-0.2 0.3-0.5-0.8-0.6-1.6-1.3l-13.3-12.1c-6.7-6.2-7.3-16.7-1.3-23.5 10.8-12.3 25.1-19.1 40.6-19.1 12 0 22.4 3.3 30.2 9.4 6.6 5.3 14.5 15.1 14.5 32.3 0 15.2-8.9 24.5-14.8 30.7-1.5 1.6-3.8 3.9-4.4 5.1 0.1 2.2-0.1 4.4-0.8 6.5 2.7 4.7 4.2 10.2 4.2 16.2 0 17.6-13.6 31.5-30.9 31.5zm0-33.7c-1 0-2.7 1-2.7 2.2 0 0.8 1.3 2.1 2.7 2.1 1 0 2.7-1 2.7-2.1 0-0.9-1.3-2.2-2.7-2.2z"/>
	</g>
	<g style="opacity: .02">
		<path class="s99" d="m173.3 132.7c-16.9 0-30.1-13.5-30.1-30.7 0-6.1 1.6-11.7 4.5-16.4q-0.4-1.3-0.6-2.7c-1.3-8.4 0.1-16.5 4.3-24.2q0.3-0.6 0.6-1.1-1.1-0.8-2.2-1.7l-13.2-12.1c-6.4-5.9-7-15.9-1.3-22.4 10.6-12.1 24.8-18.8 40-18.8 26.7 0 43.9 16.1 43.9 40.9 0 14.9-8.8 24.1-14.6 30.1-1.5 1.7-4.1 4.3-4.6 5.5 0.2 2.3-0.1 4.6-0.9 6.8 2.7 4.6 4.3 10.1 4.3 16.1 0 17.2-13.2 30.7-30.1 30.7zm-1.9-30.8c0.2 0.6 1.1 1.4 1.9 1.4 0.8 0 1.8-0.8 1.9-1.4-0.1-0.5-1.1-1.3-1.9-1.3-0.8 0-1.7 0.8-1.9 1.3z"/>
	</g>
	<g style="opacity: .03">
		<path class="s100" d="m173.3 131.1c-16 0-28.5-12.8-28.5-29.1 0-6.1 1.7-11.6 4.7-16.2q-0.6-1.5-0.9-3.1c-1.6-10.7 1.5-19.2 5.6-25.7q-1.8-0.9-3.3-2.3l-13.2-12.1c-5.8-5.3-6.3-14.3-1.2-20.2 10.3-11.7 24.1-18.2 38.8-18.2 25.7 0 42.3 15.5 42.3 39.3 0 14.3-8.5 23.1-14.1 29-3.1 3.2-5.2 5.6-5.1 6.7 0.2 2.4-0.2 4.7-1.1 6.9 2.9 4.5 4.5 9.9 4.5 15.9 0 16.3-12.5 29.1-28.5 29.1z"/>
	</g>
	<g style="opacity: .04">
		<path class="s101" d="m173.3 130.3c-15.5 0-27.7-12.5-27.7-28.3 0-6.1 1.8-11.6 4.8-16.1q-0.7-1.6-1-3.3c-1.6-10.9 1.7-19.4 6-25.9-1.4-0.6-2.8-1.5-4-2.6l-13.2-12.1c-5.5-5-5.9-13.5-1.1-19 10.1-11.6 23.7-17.9 38.2-17.9 11.3 0 21 3 28.2 8.6 6.1 4.8 13.3 13.9 13.3 29.8 0 14-8.4 22.7-13.9 28.5-4 4.2-5.5 5.9-5.3 7.3 0.2 2.3-0.2 4.7-1.2 6.8 2.9 4.5 4.6 9.9 4.6 15.9 0 15.8-12.2 28.3-27.7 28.3zm-0.2-27.3q0 0 0.2 0 0.2 0 0.3 0c0-0.1 0.2-0.4 0.2-1 0-0.7-0.2-1-0.2-1.1q-0.1 0-0.3 0-0.2 0-0.2 0c-0.1 0.1-0.3 0.4-0.3 1.1 0 0.6 0.2 0.9 0.3 1z"/>
	</g>
	<g style="opacity: .04">
		<path class="s102" d="m173.3 129.5c-15.1 0-26.9-12.1-26.9-27.5 0-6.1 1.8-11.6 4.9-16q-0.8-1.7-1.1-3.6c-1.7-11.1 2-19.6 6.4-26.1-1.6-0.6-3.2-1.5-4.6-2.8l-13.3-12.1c-5.1-4.7-5.5-12.7-1-17.9 10-11.4 23.3-17.6 37.6-17.6 11.1 0 20.6 2.9 27.7 8.5 5.9 4.7 13 13.5 13 29.1 0 13.6-7.9 21.9-13.7 27.9-4.3 4.5-5.7 6.3-5.5 7.9 0.2 2.4-0.3 4.8-1.3 6.9 3 4.4 4.7 9.8 4.7 15.8 0 15.4-11.8 27.5-26.9 27.5zm0-29.4c-1.3 0-1.3 1.4-1.3 1.9 0 1.8 1 1.8 1.3 1.8 1.3 0 1.3-1.4 1.3-1.8 0-1.9-1-1.9-1.3-1.9z"/>
	</g>
	<g style="opacity: .05">
		<path class="s103" d="m173.3 128.7c-14.6 0-26.1-11.8-26.1-26.7 0-6.1 1.9-11.6 5-16q-0.9-1.7-1.2-3.7c-1.7-11.3 2.3-20 6.9-26.5-1.9-0.4-3.8-1.4-5.4-2.8l-13.2-12.2c-4.8-4.4-5.2-11.9-1-16.8 9.8-11.2 23-17.3 37-17.3 10.9 0 20.3 2.8 27.2 8.3 5.8 4.6 12.7 13.3 12.7 28.5 0 13.3-7.8 21.4-13.4 27.3-4.6 4.8-6 6.6-5.8 8.6 0.2 2.4-0.3 4.8-1.4 6.9 3 4.3 4.8 9.7 4.8 15.7 0 14.9-11.5 26.7-26.1 26.7zm0-29.4c-1.8 0-2.1 1.7-2.1 2.7 0 0.9 0.3 2.6 2.1 2.6 1.8 0 2.1-1.7 2.1-2.6 0-1-0.3-2.7-2.1-2.7z"/>
	</g>
	<g style="opacity: .05">
		<path class="s104" d="m173.3 127.8c-14.2 0-25.3-11.3-25.3-25.8 0-6.1 1.9-11.6 5.2-15.9-0.7-1.2-1.2-2.5-1.4-3.9-1.8-11.7 2.7-20.5 7.6-27-2.3-0.2-4.5-1.2-6.3-2.8l-13.3-12.2c-4.5-4.1-4.9-11.1-0.8-15.6 9.6-11.1 22.5-17.1 36.3-17.1 10.7 0 19.9 2.8 26.7 8.1 5.6 4.5 12.4 13 12.4 27.9 0 13-7.7 21-13.2 26.8-4.8 5-6.2 6.9-6 9.2 0.2 2.4-0.4 4.8-1.6 6.8 3.2 4.3 5 9.7 5 15.6 0 14.6-11.1 25.9-25.3 25.9zm0-29.3c-2.7 0-2.9 2.9-2.9 3.4 0 0.6 0.2 3.5 2.9 3.5 2.8 0 2.9-2.9 2.9-3.5 0-0.5-0.1-3.4-2.9-3.4zm12.1-66.9c3.8 3.3 5.9 8.1 5.9 13.6q0 1-0.1 1.9c0.5-1.2 0.8-2.3 0.8-3.6 0-3.2 0-9-6.6-11.9z"/>
	</g>
	<g style="opacity: .06">
		<path class="s105" d="m173.3 127c-13.7 0-24.5-11-24.5-25 0-6.1 2-11.6 5.3-15.8-0.7-1.2-1.3-2.6-1.5-4.1-1.9-12.2 3.1-21.1 8.3-27.6-2.6 0.1-5.2-0.8-7.3-2.7l-13.2-12.2c-4.2-3.8-4.6-10.3-0.8-14.5 9.4-10.9 22.1-16.8 35.7-16.8 10.5 0 19.6 2.7 26.2 8 5.5 4.3 12.1 12.6 12.1 27.2 0 12.7-7.5 20.5-13 26.2-4.7 5-6.5 7.1-6.2 9.9 0.2 2.4-0.4 4.8-1.8 6.7 3.3 4.3 5.2 9.7 5.2 15.6 0 14.1-10.8 25.1-24.5 25.1zm0-29.3c-2.7 0-3.7 2.3-3.7 4.2 0 2 1 4.3 3.7 4.3 2.7 0 3.7-2.3 3.7-4.3 0-1.9-1-4.2-3.7-4.2zm7.4-68.2c6 2.7 9.8 8.4 9.8 15.7 0 2.1-0.4 4.1-1.1 5.9 2.2-2.6 3.4-4.8 3.4-7.6 0-3.8 0-12.1-12.1-14z"/>
	</g>
	<g style="opacity: .06">
		<path class="s106" d="m173.3 126.2c-13.3 0-23.7-10.6-23.7-24.2 0-6.1 2.1-11.6 5.5-15.8-0.8-1.2-1.5-2.7-1.7-4.2-2-12.9 3.9-22 9.4-28.6-3 0.8-6.2 0-8.7-2.2l-13.2-12.2c-3.9-3.5-4.2-9.5-0.7-13.4 9.3-10.7 21.8-16.5 35.1-16.5 23.1 0 37.5 13.2 37.5 34.4 0 12.3-7.4 20.1-12.8 25.7-4.8 5-6.7 7.3-6.4 10.4 0.2 2.5-0.5 4.9-2 6.8 3.4 4.2 5.4 9.6 5.4 15.6 0 13.6-10.4 24.3-23.7 24.3zm0-29.4c-3.1 0-4.5 2.5-4.5 5.1 0 2.5 1.4 5 4.5 5 3.1 0 4.5-2.5 4.5-5 0-2.6-1.4-5.1-4.5-5.1zm0.6-26h1.8c0.9-2.7 2.3-5.1 3.8-7.3-2.4 2.6-4.3 5-5.6 7.3zm-1.7-42.4c10.3 0 17.5 6.9 17.5 16.7 0 4.3-1.7 7.9-4 11.2q0.2-0.3 0.5-0.5c4.7-5 7.4-8 7.4-12.4 0-4.4 0-15.2-18.3-15.2q-1.8 0-3.5 0.2 0.2 0 0.4 0z"/>
	</g>
	<g style="opacity: .07">
		<path class="s107" d="m173.3 125.4c-12.8 0-22.9-10.3-22.9-23.4 0-6.2 2.2-11.7 5.8-15.8-1-1.2-1.8-2.7-2-4.4-2.3-14.6 5.9-24.2 11.9-30.8-3.4 2.7-8.2 2.5-11.4-0.4l-13.3-12.2c-3.5-3.2-3.8-8.7-0.6-12.3 9.1-10.5 21.4-16.2 34.5-16.2 22.6 0 36.7 12.9 36.7 33.6 0 12-7.3 19.6-12.6 25.1-4.9 5.2-6.9 7.7-6.6 11.1 0.2 2.4-0.6 4.9-2.2 6.7 3.5 4.1 5.6 9.5 5.6 15.6 0 13.1-10.1 23.4-22.9 23.4zm0-29.3c-3.6 0-5.3 3-5.3 5.9 0 2.8 1.7 5.8 5.3 5.8 3.6 0 5.3-3 5.3-5.8 0-2.9-1.7-5.9-5.3-5.9zm-0.7-24.4h3.7c2-6.5 6.6-11.2 10.4-15.3 4.9-5.1 7.7-8.2 7.7-12.9 0-5.6-1.6-9.6-4.8-12.2-3.2-2.5-8.1-3.8-14.3-3.8-5.2 0-10.3 1.6-14.8 4.5l0.6 0.5c2.9-1.8 6.5-3.2 11.1-3.2 9.8 0 16.7 6.6 16.7 15.9 0 7-4.6 12-9 16.8-3.4 3.6-5.9 6.6-7.3 9.7z"/>
	</g>
	<g style="opacity: .07">
		<path class="s108" d="m173.3 124.6c-12.4 0-22.1-9.9-22.1-22.6 0-6.2 2.3-11.7 6.1-15.8-1.2-1.2-2.1-2.7-2.3-4.5-2.3-14.9 6.6-24.6 12.5-31.1 1.2-1.3 2.8-3 3.8-4.3-1.2 0.2-2.5 1.1-5.2 3.7-3.1 2.8-7.8 2.8-10.9 0l-13.2-12.1c-3.2-3-3.5-8-0.6-11.2 9-10.4 21-16 33.9-16 10 0 18.5 2.5 24.7 7.4 5.1 4.1 11.2 11.8 11.2 25.4 0 11.7-6.8 18.8-12.3 24.6-5.2 5.3-7.3 7.9-6.9 11.7 0.2 2.2-0.6 4.4-2.1 6.1q-0.2 0.2-0.4 0.4c3.7 4.1 5.9 9.6 5.9 15.7 0 12.7-9.7 22.6-22.1 22.6zm0-29.3c-3.6 0-6.1 2.7-6.1 6.7 0 3.9 2.5 6.6 6.1 6.6 3.6 0 6.1-2.7 6.1-6.6 0-4-2.5-6.7-6.1-6.7zm-1.9-22.8h5.5c1.9-6.6 6.5-11.4 10.4-15.5 4.9-5.1 7.9-8.5 7.9-13.5 0-4.1 0-16.8-19.9-16.8-5.7 0-11.2 1.8-16.1 5.2l1.8 1.6c2.9-1.9 6.6-3.4 11.2-3.4 9.3 0 15.9 6.2 15.9 15.1 0 6.7-4.5 11.6-8.8 16.3-3.7 4-6.6 7.3-7.9 11z"/>
	</g>
	<g style="opacity: .07">
		<path class="s109" d="m173.3 123.8c-11.9 0-21.3-9.6-21.3-21.8 0-6.3 2.5-11.9 6.4-15.8-1.4-1.1-2.3-2.7-2.6-4.6-2.3-14.6 6.5-24.1 12.3-30.4 1.5-1.7 4.1-4.5 4.7-5.8q-0.3 0-0.6 0c-1.9 0-3.2 0.8-6.7 4-2.7 2.5-7 2.5-9.7 0l-13.3-12.1c-2.9-2.7-3.1-7.2-0.5-10.1 8.8-10.2 20.7-15.7 33.3-15.7 9.8 0 18.2 2.5 24.2 7.3 5 3.9 10.9 11.4 10.9 24.7 0 11.4-6.7 18.4-12.1 24-4.8 5-7.5 8.1-7.1 12.3 0.2 2.1-0.5 4.1-1.9 5.6q-0.4 0.5-1 0.9c3.9 3.9 6.3 9.5 6.3 15.6 0 12.3-9.4 21.9-21.3 21.9zm0-29.3c-4 0-6.9 3.1-6.9 7.4 0 4.4 2.9 7.5 6.9 7.5 4.1 0 6.9-3.1 6.9-7.5 0-4.3-2.8-7.4-6.9-7.4zm-3-21.2h7.2c1.7-6.7 6.4-11.6 10.4-15.8 5-5.2 8.1-8.7 8.1-14 0-6.1-1.8-10.5-5.4-13.4-3.5-2.8-8.8-4.2-15.3-4.2-6.2 0-12.2 2.1-17.3 6l2.9 2.6c2.9-2 6.6-3.6 11.3-3.6 3.9 0 7.3 1.1 9.9 3.2 3.4 2.6 5.2 6.5 5.2 11.1 0 6.4-4.4 11.1-8.6 15.7-4.1 4.5-7.2 8.2-8.4 12.4z"/>
	</g>
	<g style="opacity: .08">
		<path class="s110" d="m173.3 123c-5.7 0-10.9-2.2-14.7-6.2-3.7-3.9-5.8-9.2-5.8-14.8 0-5.7 2.1-11 5.8-14.9q0.5-0.5 1.1-1.1c-1.7-0.9-2.8-2.6-3.1-4.5-2.2-14.2 6.4-23.6 12.1-29.8 1.8-2 4.9-5.3 5-6.5q0-0.3-0.1-0.4c-0.2-0.1-0.6-0.2-1.4-0.2-2.3 0-3.9 1.1-7.2 4.2-2.5 2.3-6.2 2.3-8.7 0l-13.2-12.1c-2.6-2.4-2.8-6.4-0.5-9 8.7-9.9 20.3-15.4 32.7-15.4 9.6 0 17.8 2.4 23.7 7.1 4.8 3.8 10.6 11.1 10.6 24.1 0 11.1-6.6 17.9-11.9 23.5-4.9 5.1-7.7 8.3-7.3 12.9 0.2 1.8-0.4 3.6-1.7 4.9q-0.7 0.8-1.6 1.3 0.5 0.5 1 1c3.7 3.9 5.7 9.2 5.7 14.9 0 5.6-2 10.9-5.7 14.8-3.9 4-9.1 6.2-14.8 6.2zm0-29.3c-4.4 0-7.7 3.5-7.7 8.3 0 4.7 3.3 8.2 7.7 8.2 4.5 0 7.7-3.5 7.7-8.2 0-4.8-3.2-8.3-7.7-8.3zm-4-19.6h8.8c1.6-6.9 6.4-11.8 10.4-16 5.1-5.4 8.3-9 8.3-14.6 0-12.2-7.3-18.4-21.5-18.4-6.7 0-13.1 2.3-18.6 6.7l4.1 3.8c2.9-2.1 6.6-3.9 11.4-3.9 8.5 0 14.3 5.5 14.3 13.5 0 6.1-4.3 10.7-8.4 15.2-4 4.3-7.7 8.4-8.8 13.7z"/>
	</g>
	<g style="opacity: .08">
		<path class="s111" d="m173.3 122.2c-5.5 0-10.5-2.1-14.2-6-3.5-3.7-5.5-8.8-5.5-14.2 0-5.5 2-10.6 5.5-14.3q1-1 2-1.9c-1.9-0.6-3.4-2.3-3.8-4.4-2.1-13.8 6-22.7 12-29.1 2-2.3 5.2-5.7 5.2-7.1 0-0.9 0-1.4-2.3-1.4-2.5 0-4.2 1.1-7.8 4.4-2.1 2-5.4 2-7.6 0l-13.2-12.1c-2.2-2.1-2.4-5.6-0.4-7.9 8.5-9.7 19.9-15.1 32.1-15.1 9.4 0 17.5 2.4 23.2 6.9 4.7 3.7 10.3 10.8 10.3 23.5 0 10.7-6.5 17.5-11.7 22.9-5.1 5.3-8 8.6-7.5 13.6 0.1 1.6-0.4 3.1-1.4 4.3-0.8 0.8-1.7 1.3-2.7 1.6q1.1 0.8 2 1.8c3.5 3.7 5.5 8.8 5.5 14.3 0 5.4-2 10.5-5.5 14.2-3.7 3.9-8.7 6-14.2 6zm0-29.3c-4.9 0-8.5 3.8-8.5 9 0 5.3 3.6 9.1 8.5 9.1 4.9 0 8.5-3.8 8.5-9.1 0-5.2-3.6-9-8.5-9zm-4.9-18h10.3c1.4-6.9 6.1-11.8 10.3-16.3 4.6-4.7 8.6-8.9 8.6-15.1 0-6.6-2-11.5-6-14.7-3.8-2.9-9.4-4.5-16.3-4.5-6.9 0-14.1 2.6-19.8 7.5l5.2 4.8c3-2.2 6.6-4.1 11.5-4.1 8 0 13.5 5.1 13.5 12.7 0 5.8-4 10.1-8.2 14.7-4.1 4.4-8.3 9-9.1 15z"/>
	</g>
	<g style="opacity: .08">
		<path class="s112" d="m173.3 121.4c-5.2 0-10.1-2-13.6-5.7-3.4-3.6-5.3-8.5-5.3-13.8 0-5.2 1.9-10.1 5.3-13.7q1.6-1.7 3.6-2.9h-0.4c-2.4 0-4.4-1.7-4.8-4.1-2-13.4 5.9-22.1 11.7-28.4 2.6-2.8 5.5-5.9 5.5-7.6 0-1 0-2.2-3.1-2.2-2.8 0-4.8 1.3-8.3 4.6-1.9 1.7-4.7 1.7-6.5 0l-13.3-12.1c-1.9-1.8-2.1-4.8-0.3-6.7 8.4-9.6 19.6-14.9 31.5-14.9 20.5 0 32.7 11.1 32.7 29.6 0 10.4-6.4 17-11.5 22.4-5.1 5.3-8.2 8.8-7.7 14.2 0.1 1.3-0.3 2.6-1.2 3.6-0.9 1-2.2 1.6-3.6 1.6h-0.7q2 1.2 3.6 2.9c3.4 3.6 5.3 8.5 5.3 13.8 0 5.2-1.9 10.1-5.3 13.7-3.5 3.7-8.3 5.7-13.6 5.7zm0-29.3c-5.4 0-9.3 4.1-9.3 9.9 0 5.7 3.9 9.8 9.3 9.8 5.4 0 9.3-4.1 9.3-9.8 0-5.8-3.9-9.9-9.3-9.9zm-5.8-16.4h11.9c1.2-7 5.9-12 10.2-16.5 4.7-4.9 8.8-9.2 8.8-15.7 0-16.5-12.6-20-23.1-20-7.7 0-15 2.9-21 8.3l6.4 5.8c2.9-2.2 6.6-4.3 11.5-4.3 7.6 0 12.7 4.8 12.7 11.9 0 5.4-3.9 9.7-8 14.1-4.4 4.8-8.9 9.7-9.4 16.4z"/>
	</g>
	<g style="opacity: .08">
		<path class="s113" d="m173.3 120.6c-5 0-9.6-1.9-13-5.5-3.3-3.4-5.1-8.1-5.1-13.1 0-5.1 1.8-9.7 5.1-13.2 1.8-1.9 4-3.4 6.3-4.3h-3.7c-2 0-3.7-1.4-4-3.4-2-13 5.8-21.5 11.5-27.7 2.8-3.1 5.7-6.2 5.7-8.2 0-1.1 0-3-3.9-3-3.1 0-5.1 1.4-8.9 4.8-1.5 1.4-3.8 1.4-5.4 0l-13.2-12.1c-1.6-1.5-1.8-4-0.3-5.6 8.2-9.4 19.2-14.6 30.9-14.6 20 0 31.9 10.8 31.9 28.8 0 10.1-6 16.3-11.2 21.8-5.3 5.5-8.5 9.2-8 14.8 0.1 1.2-0.3 2.3-1 3.1-0.8 0.8-1.9 1.3-3 1.3h-4c2.4 0.9 4.5 2.4 6.3 4.3 3.3 3.4 5.1 8.1 5.1 13.1 0 5.1-1.8 9.7-5.1 13.2-3.3 3.6-8 5.5-13 5.5zm0-29.3c-5.8 0-10.1 4.5-10.1 10.6 0 6.2 4.3 10.7 10.1 10.7 5.9 0 10.1-4.5 10.1-10.7 0-6.1-4.2-10.6-10.1-10.6zm-6.7-14.8h13.5c0.9-7.2 5.8-12.2 10.1-16.8 4.8-5 9-9.3 9-16.2 0-17.2-13-20.8-23.9-20.8-8.1 0-15.9 3.2-22.2 9.1l7.6 6.9c3.2-2.6 6.7-4.6 11.5-4.6 7.2 0 11.9 4.4 11.9 11.1 0 5.1-3.8 9.2-7.8 13.6-4.6 5.1-9.5 10.3-9.7 17.7z"/>
	</g>
	<path class="s114" d="m173.3 120c-4.8 0-9.3-1.9-12.5-5.3-3.2-3.4-4.9-7.9-4.9-12.7 0-4.9 1.7-9.4 4.9-12.8 3.2-3.4 7.7-5.3 12.5-5.3 4.9 0 9.3 1.9 12.6 5.3 3.1 3.4 4.9 7.9 4.9 12.7 0 4.9-1.8 9.4-4.9 12.8-3.3 3.4-7.7 5.3-12.6 5.3zm0-29.4c-6.1 0-10.7 4.9-10.7 11.3 0 6.5 4.6 11.4 10.7 11.4 6.1 0 10.7-4.9 10.7-11.4 0-6.4-4.6-11.3-10.7-11.3zm10.7-6.7h-21.1c-1.7 0-3.1-1.2-3.3-2.9-2-12.7 5.7-21.1 11.3-27.2 3-3.3 5.8-6.3 5.8-8.6 0-1.1 0-3.7-4.5-3.7-3.3 0-5.5 1.6-9.3 5.1-1.3 1.1-3.3 1.1-4.5 0l-13.3-12.2c-1.3-1.2-1.5-3.3-0.2-4.7 8.1-9.3 18.9-14.4 30.4-14.4 8.9 0 16.5 2.2 21.8 6.5 6.2 4.9 9.4 12.4 9.4 21.7 0 9.8-5.8 16-11 21.4-4.7 4.8-8.7 9-8.1 15.3 0.1 0.9-0.3 1.9-0.9 2.6-0.6 0.7-1.5 1.1-2.5 1.1zm-18-6.8h14.7c0.7-7.2 5.6-12.3 10-16.9 4.7-4.9 9.1-9.6 9.1-16.7 0-17.7-13.3-21.5-24.5-21.5-8.5 0-16.6 3.5-23.1 9.8l8.5 7.8c3.2-2.8 6.7-4.8 11.5-4.8 6.8 0 11.2 4.1 11.2 10.4 0 4.9-3.6 8.9-7.5 13.1-4.9 5.4-10 10.9-9.9 18.8z"/>
	<g style="opacity: .2">
		<path class="s95" d="m173.3 119.4c-4.7 0-9-1.9-12.1-5.2-3-3.2-4.7-7.6-4.7-12.2 0-4.7 1.7-9.1 4.7-12.3 3.1-3.3 7.4-5.2 12.1-5.2 4.7 0 9 1.9 12.1 5.2 3 3.2 4.7 7.6 4.7 12.3 0 4.6-1.7 9-4.7 12.2-3.1 3.3-7.4 5.2-12.1 5.2zm0-29.4c-6.5 0-11.4 5.1-11.4 12 0 6.8 4.9 11.9 11.4 11.9 6.5 0 11.4-5.1 11.4-11.9 0-6.9-4.9-12-11.4-12zm10.7-6.8h-21.1c-1.4 0-2.5-1-2.7-2.3-1.9-12.4 5.6-20.7 11.2-26.7 3-3.3 5.9-6.5 5.9-9 0-1.1 0-4.3-5.1-4.3-3.8 0-6.3 2-9.7 5.2-1.1 0.9-2.7 0.9-3.7 0l-13.3-12.1c-1-1-1.1-2.7-0.2-3.9 8-9.1 18.7-14.2 30-14.2 8.8 0 16.2 2.2 21.4 6.4 6.1 4.8 9.2 11.9 9.2 21.2 0 9.3-5.8 15.6-10.9 20.9-4.7 5-8.9 9.3-8.3 15.8 0.1 0.8-0.2 1.6-0.7 2.1-0.5 0.6-1.2 0.9-2 0.9zm-18.7-5.4h16c0.4-7.4 5.2-12.3 9.8-17.2 4.8-5 9.4-9.7 9.4-17.1 0-19.2-15.8-22.1-25.2-22.1-8.9 0-17.4 3.7-24.1 10.4l9.4 8.6c3.3-2.8 6.8-5 11.6-5 6.4 0 10.6 3.9 10.6 9.8 0 4.6-3.6 8.6-7.4 12.7-4.9 5.3-10.4 11.3-10.1 19.9z"/>
	</g>
	<g style="opacity: .4">
		<path class="s95" d="m173.3 118.7c-9.2 0-16.2-7.2-16.2-16.7 0-9.6 7-16.8 16.2-16.8 9.2 0 16.2 7.2 16.2 16.8 0 9.5-7 16.7-16.2 16.7zm0-29.3c-6.8 0-12 5.4-12 12.6 0 7.1 5.2 12.5 12 12.5 6.9 0 12-5.4 12-12.5 0-7.2-5.1-12.6-12-12.6zm10.7-6.8h-21.1c-1 0-1.9-0.8-2.1-1.8-1.8-12.1 5.3-19.9 11-26.1 3.3-3.6 6.2-6.7 6.2-9.5 0-3.3-2-5-5.8-5-3.9 0-6.6 2.2-10.2 5.4-0.8 0.7-2 0.7-2.8 0l-13.2-12.1c-0.9-0.8-0.9-2.1-0.2-2.9 7.9-9 18.4-14 29.5-14 8.6 0 15.9 2.1 21 6.2 6 4.7 9 11.7 9 20.7 0 9.1-5.7 15.2-10.7 20.5-4.9 5.1-9.1 9.5-8.5 16.3 0 0.6-0.1 1.2-0.5 1.6-0.4 0.4-1 0.7-1.6 0.7zm-19.3-4.2h17.2c0.2-7.4 5-12.4 9.7-17.3 4.9-5.1 9.5-10 9.5-17.6 0-19.8-16.2-22.7-25.8-22.7-9.7 0-18.1 3.9-25 11l10.3 9.5c3.5-3.1 6.7-5.2 11.6-5.2 6.1 0 10 3.5 10 9.1 0 4.4-3.4 8-7.3 12.3-5.1 5.5-10.8 11.8-10.2 20.9z"/>
	</g>
	<g style="opacity: .4">
		<path class="s95" d="m173.3 117.9c-8.8 0-15.4-6.8-15.4-15.9 0-9.1 6.6-16 15.4-16 8.8 0 15.4 6.9 15.4 16 0 9-6.6 15.9-15.4 15.9zm0-29.3c-7.3 0-12.8 5.7-12.8 13.4 0 7.6 5.5 13.3 12.8 13.3 7.3 0 12.8-5.7 12.8-13.3 0-7.7-5.5-13.4-12.8-13.4zm10.7-6.8h-21.1c-0.6 0-1.2-0.5-1.3-1.1-1.8-11.7 5.2-19.4 10.8-25.5 3.4-3.7 6.4-6.9 6.4-10 0-5-4.1-5.8-6.6-5.8-4.3 0-7.2 2.4-10.7 5.6-0.5 0.5-1.2 0.5-1.7 0l-13.3-12.1c-0.5-0.5-0.5-1.3-0.1-1.8 7.7-8.8 18-13.7 28.9-13.7 18.5 0 29.2 9.5 29.2 26.1 0 9-5.3 14.5-10.5 19.9-4.8 5-9.4 9.8-8.7 17 0 0.3-0.1 0.7-0.3 1-0.3 0.2-0.6 0.4-1 0.4zm-20-2.6h18.7c-0.1-7.6 4.7-12.6 9.5-17.6 4.8-5 9.7-10.1 9.7-18.1 0-20.5-16.7-23.5-26.6-23.5-10 0-19 4.2-26.1 11.9l11.4 10.4c3.5-3.1 6.8-5.4 11.6-5.4 5.6 0 9.2 3.2 9.2 8.3 0 4.1-3.3 7.6-7.1 11.7-5.3 5.8-11.3 12.4-10.3 22.3z"/>
	</g>
</svg>