<svg width="23" height="24" viewBox="0 0 23 24" fill="none" xmlns="http://www.w3.org/2000/svg">
<path d="M15.9991 13L11.9991 22C11.2034 22 10.4403 21.6839 9.87773 21.1213C9.31512 20.5587 8.99905 19.7956 8.99905 19V15H3.33905C3.04915 15.0033 2.76199 14.9435 2.49748 14.8248C2.23297 14.7061 1.99744 14.5313 1.8072 14.3125C1.61695 14.0937 1.47655 13.8362 1.39571 13.5577C1.31488 13.2793 1.29555 12.9866 1.33905 12.7L2.71905 3.7C2.79138 3.22309 3.03362 2.78839 3.40115 2.47599C3.76868 2.16359 4.23673 1.99454 4.71905 2H15.9991M15.9991 13V2M15.9991 13H18.6691C19.235 13.01 19.785 12.8119 20.2145 12.4432C20.644 12.0745 20.9232 11.5609 20.9991 11V4C20.9232 3.43905 20.644 2.9255 20.2145 2.55681C19.785 2.18813 19.235 1.98999 18.6691 2H15.9991" stroke="white" stroke-width="2.5" stroke-linecap="round" stroke-linejoin="round"/>
</svg>
