<svg width="24" height="24" viewBox="0 0 24 24" fill="none" xmlns="http://www.w3.org/2000/svg">
<path fill-rule="evenodd" clip-rule="evenodd" d="M12.3513 9.26324C12.1264 9.03821 12 8.73304 12 8.41484C12 8.09665 12.1264 7.79148 12.3513 7.56644L15.9513 3.96644C16.062 3.85183 16.1945 3.76041 16.3409 3.69752C16.4873 3.63463 16.6447 3.60153 16.8041 3.60014C16.9634 3.59876 17.1214 3.62912 17.2689 3.68946C17.4164 3.74979 17.5503 3.8389 17.663 3.95157C17.7757 4.06424 17.8648 4.19822 17.9251 4.3457C17.9855 4.49317 18.0158 4.65119 18.0144 4.81053C18.0131 4.96986 17.98 5.12732 17.9171 5.27373C17.8542 5.42013 17.7628 5.55255 17.6481 5.66324L14.0481 9.26324C13.8231 9.48821 13.5179 9.61459 13.1997 9.61459C12.8815 9.61459 12.5764 9.48821 12.3513 9.26324Z" fill="white"/>
<path fill-rule="evenodd" clip-rule="evenodd" d="M21.2479 9.26305C21.0229 9.48801 20.7177 9.61439 20.3995 9.61439C20.0813 9.61439 19.7761 9.48801 19.5511 9.26305L15.9511 5.66305C15.7325 5.43673 15.6116 5.1336 15.6143 4.81897C15.617 4.50433 15.7432 4.20336 15.9657 3.98087C16.1882 3.75838 16.4892 3.63217 16.8038 3.62944C17.1185 3.62671 17.4216 3.74766 17.6479 3.96625L21.2479 7.56625C21.4729 7.79128 21.5993 8.09645 21.5993 8.41465C21.5993 8.73285 21.4729 9.03802 21.2479 9.26305Z" fill="white"/>
<path fill-rule="evenodd" clip-rule="evenodd" d="M16.7999 6.01465C17.1182 6.01465 17.4234 6.14108 17.6484 6.36612C17.8735 6.59116 17.9999 6.89639 17.9999 7.21465V16.8146C17.9999 17.1329 17.8735 17.4381 17.6484 17.6632C17.4234 17.8882 17.1182 18.0146 16.7999 18.0146C16.4816 18.0146 16.1764 17.8882 15.9514 17.6632C15.7263 17.4381 15.5999 17.1329 15.5999 16.8146V7.21465C15.5999 6.89639 15.7263 6.59116 15.9514 6.36612C16.1764 6.14108 16.4816 6.01465 16.7999 6.01465ZM11.6483 14.7662C11.8733 14.9913 11.9996 15.2965 11.9996 15.6146C11.9996 15.9328 11.8733 16.238 11.6483 16.463L8.0483 20.063C7.82198 20.2816 7.51886 20.4026 7.20422 20.3999C6.88959 20.3971 6.58861 20.2709 6.36612 20.0484C6.14363 19.8259 6.01743 19.525 6.01469 19.2103C6.01196 18.8957 6.13291 18.5926 6.3515 18.3662L9.9515 14.7662C10.1765 14.5413 10.4817 14.4149 10.7999 14.4149C11.1181 14.4149 11.4233 14.5413 11.6483 14.7662Z" fill="white"/>
<path fill-rule="evenodd" clip-rule="evenodd" d="M2.75173 14.7664C2.97677 14.5414 3.28194 14.415 3.60013 14.415C3.91833 14.415 4.2235 14.5414 4.44853 14.7664L8.04853 18.3664C8.16315 18.4771 8.25457 18.6095 8.31746 18.7559C8.38035 18.9023 8.41345 19.0598 8.41484 19.2191C8.41622 19.3784 8.38586 19.5365 8.32552 19.6839C8.26518 19.8314 8.17608 19.9654 8.06341 20.0781C7.95074 20.1907 7.81675 20.2798 7.66928 20.3402C7.5218 20.4005 7.36379 20.4309 7.20445 20.4295C7.04512 20.4281 6.88765 20.395 6.74125 20.3321C6.59484 20.2692 6.46243 20.1778 6.35173 20.0632L2.75173 16.4632C2.52677 16.2381 2.40039 15.933 2.40039 15.6148C2.40039 15.2966 2.52677 14.9914 2.75173 14.7664Z" fill="white"/>
<path fill-rule="evenodd" clip-rule="evenodd" d="M7.2 18.0146C6.88174 18.0146 6.57652 17.8882 6.35147 17.6632C6.12643 17.4381 6 17.1329 6 16.8146V7.21465C6 6.89639 6.12643 6.59116 6.35147 6.36612C6.57652 6.14108 6.88174 6.01465 7.2 6.01465C7.51826 6.01465 7.82348 6.14108 8.04853 6.36612C8.27357 6.59116 8.4 6.89639 8.4 7.21465V16.8146C8.4 17.1329 8.27357 17.4381 8.04853 17.6632C7.82348 17.8882 7.51826 18.0146 7.2 18.0146Z" fill="white"/>
</svg>
