<svg width="140" height="140" viewBox="0 0 140 140" fill="none" xmlns="http://www.w3.org/2000/svg">
<path d="M46.344 7.29169H64.4843C72.462 7.29157 78.8921 7.29146 83.9496 7.97139C89.2001 8.67734 93.6207 10.1875 97.1323 13.6987C100.643 17.2099 102.154 21.6308 102.859 26.8815C103.539 31.9388 103.539 38.369 103.539 46.3466V52.5C103.539 54.9162 101.58 56.875 99.1641 56.875C96.7479 56.875 94.7891 54.9162 94.7891 52.5V46.6667C94.7891 38.2935 94.7797 32.4536 94.1877 28.0474C93.6119 23.7671 92.5596 21.5003 90.9449 19.8859C89.3302 18.2715 87.064 17.2189 82.7835 16.6434C78.377 16.051 72.5372 16.0417 64.1641 16.0417H46.6641C38.2908 16.0417 32.451 16.051 28.0448 16.6434C23.7644 17.2189 21.4977 18.2715 19.8833 19.8859C18.2689 21.5003 17.2162 23.7671 16.6408 28.0474C16.0483 32.4536 16.0391 38.2935 16.0391 46.6667V93.3334C16.0391 101.707 16.0483 107.546 16.6408 111.953C17.2162 116.233 18.2689 118.5 19.8833 120.114C21.4977 121.729 23.7644 122.781 28.0448 123.357C32.451 123.949 38.2908 123.958 46.6641 123.958C49.0803 123.958 51.0391 125.917 51.0391 128.333C51.0391 130.75 49.0803 132.708 46.6641 132.708H46.344C38.3664 132.708 31.9362 132.708 26.8789 132.029C21.6282 131.323 17.2073 129.813 13.6961 126.302C10.1849 122.79 8.67472 118.369 7.96877 113.119C7.28883 108.061 7.28895 101.631 7.28907 93.6536V46.3466C7.28895 38.369 7.28883 31.9387 7.96877 26.8815C8.67472 21.6308 10.1849 17.2099 13.6961 13.6987C17.2073 10.1875 21.6282 8.67734 26.8789 7.97139C31.9361 7.29146 38.3664 7.29157 46.344 7.29169Z" fill="#F8ECFF"/>
<path d="M71.5412 39.0939C73.801 38.24 74.9415 35.7154 74.0875 33.4551C73.2335 31.1948 70.7088 30.0547 68.449 30.9085C65.0965 32.175 61.95 34.5623 59.2451 37.0927C56.4898 39.6703 53.923 42.6535 51.7508 45.431C50.4129 47.1416 49.2044 48.8005 48.1719 50.2777C47.3227 49.3126 46.4732 48.5545 45.6422 47.9636C44.5771 47.2062 43.5823 46.753 42.7302 46.4933C42.3077 46.3646 41.9302 46.2864 41.6079 46.2406C41.4471 46.2177 41.3009 46.203 41.1703 46.194C41.1051 46.1895 41.0438 46.1865 40.9867 46.1845L40.9043 46.1824L40.8654 46.182L40.8466 46.1818L40.8373 46.1818C40.8373 46.1818 40.8281 46.1818 40.8281 50.5568V46.1818C38.4119 46.1818 36.4531 48.1406 36.4531 50.5568C36.4531 52.7749 38.1037 54.6074 40.2437 54.8931C40.3109 54.9264 40.4219 54.9881 40.5713 55.0944C41.1749 55.5236 42.5679 56.7983 44.1584 60.1913C44.8457 61.6578 46.2864 62.6244 47.9037 62.7043C49.5205 62.7842 51.0499 61.964 51.8786 60.5734L51.8817 60.5681L51.9012 60.5355L51.9887 60.3914C52.0681 60.2613 52.189 60.0641 52.3484 59.8086C52.6673 59.2982 53.139 58.5562 53.7386 57.65C54.9409 55.8333 56.6421 53.3802 58.6431 50.8214C60.6527 48.2517 62.9114 45.6447 65.2225 43.4827C67.5845 41.2736 69.7463 39.7719 71.5412 39.0939Z" fill="#F8ECFF"/>
<path d="M35 77.2917C32.5838 77.2917 30.625 79.2505 30.625 81.6667C30.625 84.0829 32.5838 86.0417 35 86.0417H58.3333C60.7495 86.0417 62.7083 84.0829 62.7083 81.6667C62.7083 79.2505 60.7495 77.2917 58.3333 77.2917H35Z" fill="#F8ECFF"/>
<path fill-rule="evenodd" clip-rule="evenodd" d="M96.2491 74.375C90.6112 74.375 86.0408 78.9454 86.0408 84.5833C86.0408 85.2454 86.1032 85.8882 86.2216 86.5083C86.546 88.214 87.1766 89.9191 87.9775 92.0284C88.0032 92.0955 88.0288 92.1632 88.0545 92.2308C88.7941 94.1774 89.6773 96.5008 90.1714 98.9718L91.0855 103.542H101.413L102.327 98.9718C102.822 96.5008 103.705 94.1774 104.444 92.2314C104.47 92.1632 104.496 92.0955 104.521 92.0284C105.322 89.9191 105.952 88.214 106.277 86.5083C106.395 85.8882 106.457 85.2454 106.457 84.5833C106.457 78.9454 101.887 74.375 96.2491 74.375ZM104.426 112.292H88.0726L73.9728 116.052L73.883 116.072C70.7604 116.766 68.5391 119.535 68.5391 122.734C68.5391 123.41 69.0874 123.958 69.7635 123.958H122.731C123.407 123.958 123.956 123.41 123.956 122.734C123.956 119.535 121.734 116.766 118.612 116.072L118.522 116.052L104.426 112.292ZM82.4037 104.748L81.5917 100.689C81.2476 98.9689 80.6042 97.2592 79.7974 95.1347L79.77 95.0623C79.0151 93.0743 78.111 90.6932 77.6256 88.1446C77.4057 86.9878 77.2908 85.7972 77.2908 84.5833C77.2908 74.1131 85.7789 65.625 96.2491 65.625C106.72 65.625 115.207 74.1131 115.207 84.5833C115.207 85.7972 115.093 86.9878 114.873 88.1446C114.388 90.6932 113.484 93.0743 112.729 95.0623L112.701 95.1347C111.894 97.2592 111.251 98.9689 110.907 100.689L110.095 104.748L120.607 107.552C127.682 109.171 132.706 115.467 132.706 122.734C132.706 128.242 128.24 132.708 122.731 132.708H69.7635C64.2551 132.708 59.7891 128.242 59.7891 122.734C59.7891 115.467 64.8133 109.171 71.888 107.552L82.4037 104.748Z" fill="#B620FE"/>
<path fill-rule="evenodd" clip-rule="evenodd" d="M30.625 99.1667C30.625 96.7505 32.5838 94.7917 35 94.7917H58.3333C60.7495 94.7917 62.7083 96.7505 62.7083 99.1667C62.7083 101.583 60.7495 103.542 58.3333 103.542H35C32.5838 103.542 30.625 101.583 30.625 99.1667Z" fill="#B620FE"/>
</svg>
