<svg width="120" height="120" viewBox="0 0 120 120" fill="none" xmlns="http://www.w3.org/2000/svg">
<g style="mix-blend-mode:hard-light" clip-path="url(#clip0_2130_13640)">
<path fill-rule="evenodd" clip-rule="evenodd" d="M92.1374 50.536C87.6525 50.5362 83.2683 49.2064 79.5392 46.7148C75.8101 44.2232 72.9035 40.6817 71.1872 36.5382C69.4708 32.3947 69.0217 27.8353 69.8966 23.4366C70.7715 19.0379 72.9312 14.9973 76.1025 11.826C79.2738 8.65473 83.3143 6.49506 87.7131 5.62013C92.1118 4.74521 96.6712 5.19432 100.815 6.91068C104.958 8.62705 108.5 11.5336 110.991 15.2627C113.483 18.9918 114.813 23.376 114.813 27.8609C114.806 33.8728 112.415 39.6366 108.164 43.8877C103.913 48.1387 98.1493 50.5297 92.1374 50.536Z" fill="#B043D6"/>
<path fill-rule="evenodd" clip-rule="evenodd" d="M92.1403 5.65336C96.5324 5.65345 100.826 6.95594 104.478 9.39611C108.13 11.8363 110.976 15.3046 112.657 19.3623C114.337 23.4201 114.777 27.8852 113.92 32.1929C113.063 36.5006 110.948 40.4575 107.843 43.5631C104.737 46.6688 100.78 48.7838 96.4723 49.6407C92.1646 50.4976 87.6996 50.0578 83.6418 48.3771C79.584 46.6964 76.1157 43.8501 73.6756 40.1982C71.2354 36.5464 69.9329 32.253 69.9328 27.8609C69.9398 21.9732 72.2817 16.3287 76.4449 12.1655C80.6081 8.00225 86.2526 5.66031 92.1403 5.65336ZM92.1403 55.6924C97.6449 55.6923 103.026 54.0599 107.603 51.0017C112.18 47.9434 115.747 43.5966 117.853 38.511C119.96 33.4254 120.511 27.8294 119.437 22.4305C118.363 17.0317 115.712 12.0726 111.82 8.18032C107.927 4.28803 102.968 1.63738 97.5692 0.563545C92.1704 -0.510286 86.5744 0.040937 81.4888 2.14751C76.4032 4.25408 72.0565 7.82139 68.9984 12.3983C65.9403 16.9753 64.308 22.3563 64.3081 27.8609C64.3164 35.2398 67.2514 42.3141 72.4692 47.5316C77.687 52.7492 84.7614 55.684 92.1403 55.692V55.6924ZM5.625 74.4705C5.62624 73.2601 6.10763 72.0996 6.96353 71.2436C7.81943 70.3877 8.97993 69.9062 10.1904 69.9049H45.5295C46.74 69.9062 47.9005 70.3876 48.7565 71.2435C49.6124 72.0995 50.0938 73.26 50.0951 74.4705V109.81C50.0937 111.02 49.6122 112.181 48.7563 113.037C47.9004 113.892 46.7399 114.374 45.5295 114.375H10.1902C8.97995 114.373 7.81983 113.892 6.96409 113.036C6.10835 112.18 5.6268 111.02 5.625 109.81V74.4705ZM10.1902 120H45.5295C48.2311 119.997 50.8213 118.922 52.7317 117.012C54.642 115.101 55.7167 112.511 55.7198 109.81V74.4705C55.7172 71.7687 54.6428 69.1782 52.7323 67.2677C50.8218 65.3572 48.2313 64.2828 45.5295 64.2802H10.1902C7.48845 64.2832 4.89828 65.3578 2.9879 67.2682C1.07753 69.1786 0.00297763 71.7688 0 74.4705L0 109.81C0.00359662 112.511 1.07835 115.101 2.9886 117.011C4.89885 118.922 7.48866 119.996 10.1902 120ZM5.625 10.1911C5.62612 8.98059 6.10742 7.81998 6.96328 6.96394C7.81914 6.1079 8.97966 5.62637 10.1902 5.625H45.5295C46.7399 5.62624 47.9004 6.10763 48.7564 6.96353C49.6123 7.81943 50.0938 8.97993 50.0951 10.1904V45.5292C50.0941 46.7399 49.6128 47.9007 48.7568 48.7568C47.9008 49.613 46.7401 50.0945 45.5295 50.0958H10.1902C8.97971 50.094 7.81938 49.6122 6.96359 48.7562C6.10781 47.9001 5.62643 46.7397 5.625 45.5292V10.1911ZM10.1904 55.7208H45.5295C48.2315 55.7181 50.8221 54.6435 52.7326 52.7327C54.6431 50.822 55.7175 48.2313 55.7198 45.5292V10.1911C55.7171 7.48923 54.6426 4.89881 52.7321 2.98823C50.8217 1.07766 48.2313 0.00297808 45.5295 0L10.1902 0C7.48844 0.00341152 4.89838 1.07824 2.98806 2.98873C1.07775 4.89922 0.00316297 7.48938 0 10.1911L0 45.5292C0.00272952 48.2311 1.0772 50.8216 2.98764 52.7323C4.89808 54.643 7.48846 55.7177 10.1904 55.7208ZM114.375 109.81C114.373 111.02 113.891 112.18 113.036 113.036C112.18 113.892 111.019 114.373 109.809 114.375H74.4708C73.2603 114.374 72.0997 113.892 71.2438 113.036C70.3878 112.18 69.9064 111.02 69.9052 109.809V74.4705C69.9064 73.26 70.3878 72.0995 71.2438 71.2435C72.0997 70.3876 73.2603 69.9062 74.4708 69.9049H109.809C111.019 69.906 112.18 70.3874 113.036 71.2434C113.892 72.0993 114.374 73.26 114.375 74.4705V109.81ZM109.808 64.2802H74.4708C71.7689 64.2828 69.1785 65.3572 67.268 67.2677C65.3575 69.1782 64.283 71.7687 64.2804 74.4705V109.81C64.2836 112.511 65.3583 115.102 67.2687 117.012C69.179 118.922 71.7691 119.997 74.4708 120H109.809C112.51 119.996 115.1 118.922 117.011 117.011C118.921 115.101 119.996 112.511 120 109.81V74.4705C119.997 71.7688 118.922 69.1786 117.011 67.2682C115.101 65.3578 112.511 64.2832 109.809 64.2802H109.808Z" fill="#F8ECFF"/>
</g>
<defs>
<clipPath id="clip0_2130_13640">
<rect width="120" height="120" fill="white"/>
</clipPath>
</defs>
</svg>
