<svg width="20" height="21" viewBox="0 0 20 21" fill="none" xmlns="http://www.w3.org/2000/svg">
<path d="M13.5 17C14.2 17 14.7917 16.7583 15.275 16.275C15.7583 15.7917 16 15.2 16 14.5C16 13.8 15.7583 13.2083 15.275 12.725C14.7917 12.2417 14.2 12 13.5 12C12.8 12 12.2083 12.2417 11.725 12.725C11.2417 13.2083 11 13.8 11 14.5C11 15.2 11.2417 15.7917 11.725 16.275C12.2083 16.7583 12.8 17 13.5 17ZM18.6 21L15.9 18.325C15.55 18.5417 15.171 18.7083 14.763 18.825C14.355 18.9417 13.934 19 13.5 19C12.25 19 11.1877 18.5627 10.313 17.688C9.43833 16.8133 9.00067 15.7507 9 14.5C8.99933 13.2493 9.437 12.187 10.313 11.313C11.189 10.439 12.2513 10.0013 13.5 10C14.7487 9.99867 15.8113 10.4363 16.688 11.313C17.5647 12.1897 18.002 13.252 18 14.5C18 14.95 17.9377 15.3793 17.813 15.788C17.6883 16.1967 17.5173 16.5757 17.3 16.925L20 19.6L18.6 21ZM2 20C1.45 20 0.979333 19.8043 0.588 19.413C0.196667 19.0217 0.000666667 18.5507 0 18V2C0 1.45 0.196 0.979333 0.588 0.588C0.98 0.196667 1.45067 0.000666667 2 0H10L16 6V8.5C15.6 8.33333 15.1917 8.20833 14.775 8.125C14.3583 8.04167 13.9333 8 13.5 8C11.45 8 9.846 8.67933 8.688 10.038C7.53 11.3967 6.95067 12.909 6.95 14.575C6.95 15.6083 7.196 16.6083 7.688 17.575C8.18 18.5417 8.959 19.35 10.025 20H2ZM9 7H14L9 2V7Z" fill="white"/>
</svg>
