<svg width="19" height="22" viewBox="0 0 19 22" fill="none" xmlns="http://www.w3.org/2000/svg">
<path d="M2 21C1.45 21 0.979333 20.8043 0.588 20.413C0.196666 20.0217 0.000666667 19.5507 0 19V9C0 8.45 0.196 7.97933 0.588 7.588C0.98 7.19667 1.45067 7.00067 2 7H3V5C3 3.61667 3.48767 2.43767 4.463 1.463C5.43833 0.488334 6.61733 0.000667349 8 6.82594e-07C9.38267 -0.000665984 10.562 0.487001 11.538 1.463C12.514 2.439 13.0013 3.618 13 5V7H14C14.55 7 15.021 7.196 15.413 7.588C15.805 7.98 16.0007 8.45067 16 9V9.15C16 9.43333 15.8877 9.66667 15.663 9.85C15.4383 10.0333 15.1757 10.1 14.875 10.05C14.7417 10.0333 14.6 10.0207 14.45 10.012C14.3 10.0033 14.15 9.99933 14 10C12.0667 10 10.4167 10.6833 9.05 12.05C7.68333 13.4167 7 15.0667 7 17C7 17.5 7.05433 17.9833 7.163 18.45C7.27167 18.9167 7.41733 19.3667 7.6 19.8C7.73333 20.0833 7.72067 20.3543 7.562 20.613C7.40333 20.8717 7.18267 21.0007 6.9 21H2ZM14 22C12.6167 22 11.4377 21.5123 10.463 20.537C9.48833 19.5617 9.00067 18.3827 9 17C8.99933 15.6173 9.487 14.4383 10.463 13.463C11.439 12.4877 12.618 12 14 12C15.382 12 16.5613 12.4877 17.538 13.463C18.5147 14.4383 19.002 15.6173 19 17C18.998 18.3827 18.5103 19.562 17.537 20.538C16.5637 21.514 15.3847 22.0013 14 22ZM5 7H11V5C11 4.16667 10.7083 3.45833 10.125 2.875C9.54167 2.29167 8.83333 2 8 2C7.16667 2 6.45833 2.29167 5.875 2.875C5.29167 3.45833 5 4.16667 5 5V7ZM14 17C14.4167 17 14.771 16.8543 15.063 16.563C15.355 16.2717 15.5007 15.9173 15.5 15.5C15.4993 15.0827 15.3537 14.7287 15.063 14.438C14.7723 14.1473 14.418 14.0013 14 14C13.582 13.9987 13.228 14.1447 12.938 14.438C12.648 14.7313 12.502 15.0853 12.5 15.5C12.498 15.9147 12.644 16.269 12.938 16.563C13.232 16.857 13.586 17.0027 14 17ZM14 20C14.5 20 14.9667 19.8833 15.4 19.65C15.8333 19.4167 16.1917 19.0917 16.475 18.675C16.0917 18.4417 15.6917 18.2707 15.275 18.162C14.8583 18.0533 14.4333 17.9993 14 18C13.5667 18.0007 13.1417 18.0547 12.725 18.162C12.3083 18.2693 11.9083 18.4403 11.525 18.675C11.8083 19.0917 12.1667 19.4167 12.6 19.65C13.0333 19.8833 13.5 20 14 20Z" fill="#747474"/>
</svg>
