<svg width="298" height="298" viewBox="0 0 298 298" fill="none" xmlns="http://www.w3.org/2000/svg">
<g style="mix-blend-mode:screen" opacity="0.02">
<path d="M149.002 275.946C78.7911 275.946 21.668 218.825 21.668 148.611C21.668 78.3972 78.7883 21.2797 149.002 21.2797C219.216 21.2797 276.334 78.4 276.334 148.611C276.334 218.822 219.213 275.946 149.002 275.946ZM149.002 130.051C138.768 130.051 130.439 138.377 130.439 148.611C130.439 158.846 138.765 167.174 149.002 167.174C159.24 167.174 167.563 158.849 167.563 148.611C167.563 138.374 159.237 130.051 149.002 130.051Z" fill="url(#paint0_linear_1820_14691)"/>
<path d="M144.524 223.632C130.1 223.632 116.266 217.903 106.067 207.702L85.4361 187.068C64.1984 165.83 64.1984 131.395 85.4361 110.155C100.24 95.3477 121.464 90.8648 140.153 96.7031L147.333 89.5233C168.571 68.2855 203.005 68.2855 224.246 89.5233C245.484 110.761 245.484 145.199 224.246 166.436L182.981 207.702C172.782 217.9 158.948 223.632 144.524 223.632Z" fill="url(#paint1_linear_1820_14691)"/>
</g>
<g style="mix-blend-mode:screen" opacity="0.02">
<path d="M149.002 273.581C80.0934 273.581 24.0352 217.52 24.0352 148.614C24.0352 79.7079 80.0962 23.6469 149.002 23.6469C217.908 23.6469 273.969 79.7079 273.969 148.614C273.969 217.52 217.908 273.581 149.002 273.581ZM149.002 127.686C137.462 127.686 128.075 137.074 128.075 148.614C128.075 160.154 137.462 169.541 149.002 169.541C160.542 169.541 169.93 160.154 169.93 148.614C169.93 137.074 160.542 127.686 149.002 127.686Z" fill="url(#paint2_linear_1820_14691)"/>
<path d="M144.52 221.268C130.722 221.268 117.492 215.787 107.735 206.031L87.1038 185.396C66.7883 165.081 66.7883 132.144 87.1038 111.829C101.623 97.3097 122.595 93.1677 140.795 99.403L149 91.1946C169.316 70.8791 202.253 70.8791 222.568 91.1946C242.884 111.51 242.884 144.447 222.568 164.765L181.303 206.031C171.546 215.787 158.316 221.268 144.518 221.268H144.52Z" fill="url(#paint3_linear_1820_14691)"/>
</g>
<g style="mix-blend-mode:screen" opacity="0.02">
<path d="M149.001 271.217C81.3975 271.217 26.3984 216.218 26.3984 148.614C26.3984 81.0104 81.3975 26.0113 149.001 26.0113C216.605 26.0113 271.604 81.0104 271.604 148.614C271.604 216.218 216.605 271.217 149.001 271.217ZM149.001 125.322C136.159 125.322 125.709 135.769 125.709 148.614C125.709 161.459 136.156 171.906 149.001 171.906C161.846 171.906 172.293 161.456 172.293 148.614C172.293 135.772 161.846 125.322 149.001 125.322Z" fill="url(#paint4_linear_1820_14691)"/>
<path d="M144.521 218.903C131.352 218.903 118.722 213.672 109.41 204.359L88.7782 183.725C69.385 164.332 69.3878 132.893 88.7782 113.5C103.007 99.2717 123.724 95.4819 141.407 102.136L150.675 92.8687C170.065 73.4756 201.507 73.4756 220.9 92.8687C240.293 112.262 240.293 143.701 220.9 163.094L179.635 204.359C170.322 213.672 157.693 218.903 144.523 218.903H144.521Z" fill="url(#paint5_linear_1820_14691)"/>
</g>
<g style="mix-blend-mode:screen" opacity="0.02">
<path d="M149 268.852C82.7016 268.852 28.7617 214.912 28.7617 148.614C28.7617 82.3155 82.7016 28.3757 149 28.3757C215.298 28.3757 269.238 82.3155 269.238 148.614C269.238 214.912 215.298 268.852 149 268.852ZM149 122.958C134.853 122.958 123.344 134.467 123.344 148.614C123.344 162.761 134.853 174.27 149 174.27C163.147 174.27 174.656 162.761 174.656 148.614C174.656 134.467 163.147 122.958 149 122.958Z" fill="url(#paint6_linear_1820_14691)"/>
<path d="M144.523 216.536C131.98 216.536 119.951 211.553 111.083 202.685L90.4487 182.051C71.9806 163.583 71.9806 133.639 90.4487 115.171C104.381 101.239 124.842 97.8155 141.982 104.903L152.348 94.5372C170.816 76.0691 200.76 76.0691 219.228 94.5372C237.696 113.005 237.696 142.949 219.228 161.417L177.963 202.682C169.095 211.55 157.063 216.533 144.523 216.533V216.536Z" fill="url(#paint7_linear_1820_14691)"/>
</g>
<g style="mix-blend-mode:screen" opacity="0.03">
<path d="M149.002 264.123C85.308 264.123 33.4922 212.305 33.4922 148.614C33.4922 84.9231 85.3108 33.1045 149.002 33.1045C212.693 33.1045 264.511 84.9231 264.511 148.614C264.511 212.305 212.693 264.123 149.002 264.123ZM149.002 118.229C132.247 118.229 118.616 131.859 118.616 148.614C118.616 165.369 132.247 178.999 149.002 178.999C165.757 178.999 179.387 165.369 179.387 148.614C179.387 131.859 165.757 118.229 149.002 118.229Z" fill="url(#paint8_linear_1820_14691)"/>
<path d="M144.522 211.807C133.234 211.807 122.407 207.325 114.425 199.34L93.7937 178.706C77.1729 162.085 77.1729 135.135 93.7937 118.514C107.108 105.199 127.052 102.55 143.005 110.568L155.69 97.8826C172.311 81.2619 199.261 81.2619 215.882 97.8826C232.503 114.503 232.503 141.454 215.882 158.074L174.617 199.34C166.635 207.322 155.808 211.807 144.519 211.807H144.522Z" fill="url(#paint9_linear_1820_14691)"/>
</g>
<g style="mix-blend-mode:screen" opacity="0.04">
<path d="M149.001 261.759C86.612 261.759 35.8555 211.003 35.8555 148.614C35.8555 86.2255 86.612 35.4689 149.001 35.4689C211.389 35.4689 262.146 86.2255 262.146 148.614C262.146 211.003 211.389 261.759 149.001 261.759ZM149.001 115.864C130.943 115.864 116.251 130.557 116.251 148.614C116.251 166.671 130.943 181.364 149.001 181.364C167.058 181.364 181.75 166.671 181.75 148.614C181.75 130.557 167.058 115.864 149.001 115.864Z" fill="url(#paint10_linear_1820_14691)"/>
<path d="M144.52 209.443C133.858 209.443 123.634 205.209 116.097 197.668L95.4652 177.034C79.7668 161.336 79.7668 135.884 95.4652 120.185C108.461 107.189 128.145 104.951 143.441 113.475L157.362 99.5539C173.06 83.8555 198.513 83.8583 214.211 99.5539C229.91 115.252 229.91 140.705 214.211 156.403L172.946 197.668C165.408 205.206 155.182 209.443 144.523 209.443H144.52Z" fill="url(#paint11_linear_1820_14691)"/>
</g>
<g style="mix-blend-mode:screen" opacity="0.04">
<path d="M149.003 259.395C87.9172 259.395 38.2227 209.697 38.2227 148.614C38.2227 87.5306 87.92 37.8333 149.003 37.8333C210.087 37.8333 259.784 87.5306 259.784 148.614C259.784 209.697 210.087 259.395 149.003 259.395ZM149.003 113.5C129.641 113.5 113.889 129.252 113.889 148.614C113.889 167.976 129.641 183.728 149.003 183.728C168.366 183.728 184.117 167.976 184.117 148.614C184.117 129.252 168.366 113.5 149.003 113.5Z" fill="url(#paint12_linear_1820_14691)"/>
<path d="M144.522 207.079C134.488 207.079 124.863 203.093 117.77 195.997L97.1386 175.363C82.3653 160.587 82.3653 136.633 97.1386 121.859C109.807 109.19 129.229 107.385 143.82 116.443L159.035 101.228C173.811 86.4518 197.766 86.4518 212.539 101.228C227.315 116.004 227.315 139.958 212.539 154.732L171.274 195.997C164.181 203.093 154.555 207.079 144.522 207.079Z" fill="url(#paint13_linear_1820_14691)"/>
</g>
<g style="mix-blend-mode:screen" opacity="0.05">
<path d="M149.002 257.03C89.2212 257.03 40.5859 208.395 40.5859 148.614C40.5859 88.833 89.2212 40.1978 149.002 40.1978C208.783 40.1978 257.418 88.833 257.418 148.614C257.418 208.395 208.783 257.03 149.002 257.03ZM149.002 111.136C128.337 111.136 111.524 127.949 111.524 148.614C111.524 169.279 128.337 186.092 149.002 186.092C169.667 186.092 186.481 169.279 186.481 148.614C186.481 127.949 169.667 111.136 149.002 111.136Z" fill="url(#paint14_linear_1820_14691)"/>
<path d="M144.522 204.714C135.115 204.714 126.093 200.978 119.441 194.326L98.8102 173.692C84.9591 159.841 84.9591 137.382 98.8102 123.531C111.144 111.197 130.302 109.847 144.131 119.475L160.71 102.896C174.561 89.0454 197.02 89.0454 210.871 102.896C224.722 116.748 224.722 139.207 210.871 153.058L169.606 194.323C162.954 200.975 153.932 204.711 144.525 204.711L144.522 204.714Z" fill="url(#paint15_linear_1820_14691)"/>
</g>
<g style="mix-blend-mode:screen" opacity="0.05">
<path d="M149.001 254.666C90.5225 254.666 42.9492 207.093 42.9492 148.614C42.9492 90.1354 90.5225 42.5621 149.001 42.5621C207.48 42.5621 255.053 90.1354 255.053 148.614C255.053 207.093 207.48 254.666 149.001 254.666ZM149.001 108.771C127.031 108.771 109.158 126.644 109.158 148.614C109.158 170.584 127.031 188.457 149.001 188.457C170.971 188.457 188.844 170.584 188.844 148.614C188.844 126.644 170.971 108.771 149.001 108.771Z" fill="url(#paint16_linear_1820_14691)"/>
<path d="M144.522 202.35C135.741 202.35 127.323 198.862 121.113 192.652L100.482 172.018C87.553 159.089 87.553 138.131 100.482 125.202C112.471 113.212 131.367 112.343 144.36 122.589L162.381 104.571C175.31 91.6418 196.271 91.6418 209.197 104.571C222.126 117.499 222.126 138.458 209.197 151.386L167.932 192.652C161.724 198.859 153.304 202.347 144.522 202.347V202.35Z" fill="url(#paint17_linear_1820_14691)"/>
</g>
<g style="mix-blend-mode:screen" opacity="0.06">
<path d="M149.004 252.301C91.8304 252.301 45.3164 205.787 45.3164 148.614C45.3164 91.4406 91.8304 44.9266 149.004 44.9266C206.177 44.9266 252.691 91.4406 252.691 148.614C252.691 205.787 206.177 252.301 149.004 252.301ZM149.004 106.407C125.731 106.407 106.797 125.342 106.797 148.614C106.797 171.886 125.731 190.821 149.004 190.821C172.276 190.821 191.211 171.886 191.211 148.614C191.211 125.342 172.276 106.407 149.004 106.407Z" fill="url(#paint18_linear_1820_14691)"/>
<path d="M144.521 199.985C136.368 199.985 128.548 196.746 122.782 190.98L102.151 170.346C90.1475 158.343 90.1475 138.88 102.151 126.873C113.786 115.238 132.425 114.881 144.493 125.797L164.048 106.242C176.052 94.2381 195.515 94.2381 207.521 106.242C219.525 118.246 219.525 137.709 207.521 149.715L166.256 190.98C160.49 196.743 152.673 199.983 144.521 199.983V199.985Z" fill="url(#paint19_linear_1820_14691)"/>
</g>
<g style="mix-blend-mode:screen" opacity="0.06">
<path d="M149.003 249.934C93.1345 249.934 47.6797 204.482 47.6797 148.611C47.6797 92.7401 93.1317 47.2881 149.003 47.2881C204.874 47.2881 250.326 92.7401 250.326 148.611C250.326 204.482 204.874 249.934 149.003 249.934ZM149.003 104.04C124.425 104.04 104.431 124.034 104.431 148.611C104.431 173.189 124.425 193.183 149.003 193.183C173.58 193.183 193.574 173.186 193.574 148.611C193.574 124.036 173.58 104.04 149.003 104.04Z" fill="url(#paint20_linear_1820_14691)"/>
<path d="M144.522 197.621C136.995 197.621 129.779 194.631 124.458 189.309L103.827 168.675C92.7453 157.594 92.7453 139.629 103.827 128.547C114.908 117.466 132.873 117.466 143.955 128.547L144.522 129.115L165.723 107.913C176.805 96.8318 194.77 96.8318 205.851 107.913C216.933 118.995 216.933 136.96 205.851 148.041L164.586 189.306C159.265 194.628 152.046 197.618 144.522 197.618V197.621Z" fill="url(#paint21_linear_1820_14691)"/>
</g>
<g style="mix-blend-mode:screen" opacity="0.07">
<path d="M149.002 247.57C94.4357 247.57 50.043 203.177 50.043 148.611C50.043 94.0454 94.4357 49.6526 149.002 49.6526C203.567 49.6526 247.96 94.0454 247.96 148.611C247.96 203.177 203.567 247.57 149.002 247.57ZM149.002 101.675C123.122 101.675 102.066 122.731 102.066 148.611C102.066 174.491 123.122 195.547 149.002 195.547C174.882 195.547 195.938 174.491 195.938 148.611C195.938 122.731 174.882 101.675 149.002 101.675Z" fill="url(#paint22_linear_1820_14691)"/>
<path d="M144.516 195.257C137.619 195.257 131 192.515 126.124 187.638L105.492 167.004C95.3359 156.847 95.3359 140.378 105.492 130.219C115.649 120.062 132.118 120.062 142.278 130.219L144.516 132.46L167.389 109.587C177.545 99.4309 194.015 99.4309 204.174 109.587C214.333 119.744 214.333 136.213 204.174 146.373L162.909 187.638C158.032 192.515 151.417 195.257 144.516 195.257Z" fill="url(#paint23_linear_1820_14691)"/>
</g>
<g style="mix-blend-mode:screen" opacity="0.07">
<path d="M149 245.205C95.7398 245.205 52.4062 201.875 52.4062 148.611C52.4062 95.3477 95.737 52.017 149 52.017C202.264 52.017 245.595 95.3477 245.595 148.611C245.595 201.875 202.264 245.205 149 245.205ZM149 99.3108C121.815 99.3108 99.7 121.426 99.7 148.611C99.7 175.796 121.818 197.912 149 197.912C176.183 197.912 198.301 175.796 198.301 148.611C198.301 121.426 176.186 99.3108 149 99.3108Z" fill="url(#paint24_linear_1820_14691)"/>
<path d="M144.52 192.892C138.249 192.892 132.234 190.402 127.799 185.967L107.168 165.333C97.9337 156.099 97.9337 141.127 107.168 131.893C116.402 122.659 131.374 122.659 140.608 131.893L144.52 135.805L169.064 111.261C178.298 102.027 193.27 102.027 202.504 111.261C211.738 120.495 211.738 135.467 202.504 144.701L161.239 185.967C156.806 190.402 150.789 192.892 144.518 192.892H144.52Z" fill="url(#paint25_linear_1820_14691)"/>
</g>
<g style="mix-blend-mode:screen" opacity="0.07">
<path d="M149.003 242.841C97.0449 242.841 54.7734 200.57 54.7734 148.611C54.7734 96.6529 97.0449 54.3814 149.003 54.3814C200.962 54.3814 243.233 96.6529 243.233 148.611C243.233 200.57 200.962 242.841 149.003 242.841ZM149.003 96.9464C120.516 96.9464 97.3384 120.124 97.3384 148.611C97.3384 177.099 120.516 200.276 149.003 200.276C177.491 200.276 200.668 177.099 200.668 148.611C200.668 120.124 177.491 96.9464 149.003 96.9464Z" fill="url(#paint26_linear_1820_14691)"/>
<path d="M144.518 190.528C138.872 190.528 133.462 188.286 129.471 184.295L108.839 163.661C100.528 155.349 100.528 141.876 108.839 133.564C117.151 125.255 130.625 125.252 138.937 133.564L144.521 139.148L170.739 112.93C179.048 104.618 192.524 104.618 200.836 112.93C209.148 121.242 209.148 134.715 200.836 143.024L159.571 184.29C155.58 188.281 150.166 190.522 144.523 190.522L144.518 190.528Z" fill="url(#paint27_linear_1820_14691)"/>
</g>
<g style="mix-blend-mode:screen" opacity="0.08">
<path d="M149.002 240.477C98.349 240.477 57.1367 199.267 57.1367 148.611C57.1367 97.9553 98.3462 56.7486 149.002 56.7486C199.658 56.7486 240.865 97.9581 240.865 148.611C240.865 199.264 199.655 240.477 149.002 240.477ZM149.002 94.5819C119.209 94.5819 94.9701 118.819 94.9701 148.611C94.9701 178.404 119.207 202.643 149.002 202.643C178.798 202.643 203.031 178.407 203.031 148.611C203.031 118.816 178.795 94.5819 149.002 94.5819Z" fill="url(#paint28_linear_1820_14691)"/>
<path d="M144.52 188.163C139.503 188.163 134.691 186.171 131.144 182.621L110.513 161.987C103.126 154.6 103.126 142.622 110.513 135.235C117.899 127.849 129.878 127.849 137.265 135.235L144.52 142.491L172.409 114.601C179.796 107.214 191.775 107.214 199.161 114.601C206.548 121.988 206.548 133.966 199.161 141.353L157.896 182.618C154.349 186.165 149.537 188.158 144.52 188.158V188.163Z" fill="url(#paint29_linear_1820_14691)"/>
</g>
<g style="mix-blend-mode:screen" opacity="0.08">
<path d="M149.001 238.112C99.6502 238.112 59.5 197.962 59.5 148.611C59.5 99.2604 99.6502 59.113 149.001 59.113C198.352 59.113 238.499 99.2632 238.499 148.611C238.499 197.959 198.349 238.112 149.001 238.112ZM149.001 92.2175C117.903 92.2175 92.6045 117.516 92.6045 148.611C92.6045 179.706 117.903 205.008 149.001 205.008C180.099 205.008 205.395 179.709 205.395 148.611C205.395 117.513 180.096 92.2175 149.001 92.2175Z" fill="url(#paint30_linear_1820_14691)"/>
<path d="M144.52 185.799C140.13 185.799 135.921 184.055 132.815 180.95L112.184 160.316C105.72 153.851 105.72 143.371 112.184 136.907C118.646 130.442 129.126 130.442 135.594 136.907L144.523 145.836L174.084 116.275C180.548 109.811 191.029 109.811 197.493 116.275C203.957 122.74 203.957 133.22 197.493 139.685L156.228 180.95C153.123 184.055 148.914 185.799 144.523 185.799H144.52Z" fill="url(#paint31_linear_1820_14691)"/>
</g>
<g style="mix-blend-mode:screen" opacity="0.08">
<path d="M149.001 235.748C100.955 235.748 61.8672 196.66 61.8672 148.614C61.8672 100.568 100.955 61.4802 149.001 61.4802C197.047 61.4802 236.135 100.568 236.135 148.614C236.135 196.66 197.047 235.748 149.001 235.748ZM149.001 89.8531C116.601 89.8531 90.2401 116.214 90.2401 148.614C90.2401 181.014 116.601 207.375 149.001 207.375C181.401 207.375 207.762 181.014 207.762 148.614C207.762 116.214 181.401 89.8531 149.001 89.8531Z" fill="url(#paint32_linear_1820_14691)"/>
<path d="M144.522 183.434C140.76 183.434 137.15 181.939 134.489 179.279L113.858 158.645C108.318 153.105 108.318 144.12 113.858 138.581C119.397 133.041 128.379 133.041 133.922 138.581L144.522 149.181L175.757 117.946C181.296 112.404 190.282 112.404 195.821 117.946C201.36 123.486 201.36 132.471 195.821 138.01L154.556 179.276C151.895 181.936 148.287 183.432 144.522 183.432V183.434Z" fill="url(#paint33_linear_1820_14691)"/>
</g>
<g style="mix-blend-mode:screen" opacity="0.08">
<path d="M149 233.383C102.257 233.383 64.2305 195.354 64.2305 148.614C64.2305 101.874 102.259 63.8446 149 63.8446C195.74 63.8446 233.769 101.874 233.769 148.614C233.769 195.354 195.74 233.383 149 233.383ZM149 87.4887C115.294 87.4887 87.8745 114.909 87.8745 148.614C87.8745 182.319 115.294 209.739 149 209.739C182.705 209.739 210.125 182.319 210.125 148.614C210.125 114.909 182.705 87.4887 149 87.4887Z" fill="url(#paint34_linear_1820_14691)"/>
<path d="M144.52 181.07C141.384 181.07 138.377 179.824 136.16 177.607L115.529 156.973C110.912 152.356 110.912 144.869 115.529 140.252C120.146 135.635 127.634 135.635 132.251 140.252L144.523 152.524L177.429 119.618C182.046 115.001 189.53 115.001 194.15 119.618C198.767 124.235 198.767 131.719 194.15 136.339L152.885 177.605C150.668 179.821 147.661 181.067 144.525 181.067L144.52 181.07Z" fill="url(#paint35_linear_1820_14691)"/>
</g>
<path d="M149.001 231.491C103.3 231.491 66.1211 194.312 66.1211 148.611C66.1211 102.91 103.3 65.7339 149.001 65.7339C194.702 65.7339 231.878 102.913 231.878 148.611C231.878 194.309 194.699 231.491 149.001 231.491ZM149.001 85.5966C114.253 85.5966 85.9838 113.866 85.9838 148.611C85.9838 183.356 114.253 211.629 149.001 211.629C183.749 211.629 212.016 183.359 212.016 148.611C212.016 113.863 183.746 85.5966 149.001 85.5966Z" fill="url(#paint36_linear_1820_14691)"/>
<path d="M144.521 179.178C141.888 179.178 139.362 178.133 137.498 176.269L116.866 155.635C112.987 151.755 112.987 145.467 116.866 141.591C120.746 137.714 127.034 137.711 130.91 141.591L144.521 155.201L178.763 120.959C182.642 117.08 188.931 117.08 192.81 120.959C196.689 124.839 196.689 131.127 192.81 135.006L151.544 176.271C149.683 178.133 147.157 179.181 144.521 179.181V179.178Z" fill="url(#paint37_linear_1820_14691)"/>
<g opacity="0.2">
<path d="M149.004 229.599C104.348 229.599 68.0156 193.269 68.0156 148.611C68.0156 103.953 104.345 67.6232 149.004 67.6232C193.662 67.6232 229.992 103.953 229.992 148.611C229.992 193.269 193.662 229.599 149.004 229.599ZM149.004 83.7046C113.213 83.7046 84.097 112.821 84.097 148.611C84.097 184.402 113.216 213.518 149.004 213.518C184.791 213.518 213.91 184.402 213.91 148.611C213.91 112.821 184.794 83.7046 149.004 83.7046Z" fill="white"/>
<path d="M144.524 177.286C142.391 177.286 140.345 176.439 138.839 174.933L118.208 154.299C115.066 151.157 115.066 146.068 118.208 142.929C121.346 139.788 126.436 139.788 129.577 142.929L144.524 157.876L180.104 122.295C183.243 119.157 188.335 119.157 191.474 122.295C194.615 125.434 194.615 130.526 191.474 133.665L150.208 174.93C148.702 176.436 146.656 177.283 144.524 177.283V177.286Z" fill="white"/>
</g>
<g opacity="0.4">
<path d="M148.998 227.707C105.385 227.707 69.9023 192.224 69.9023 148.611C69.9023 104.998 105.385 69.5153 148.998 69.5153C192.611 69.5153 228.094 104.998 228.094 148.611C228.094 192.224 192.611 227.707 148.998 227.707ZM148.998 81.8125C112.165 81.8125 82.1995 111.778 82.1995 148.611C82.1995 185.444 112.165 215.41 148.998 215.41C185.831 215.41 215.797 185.444 215.797 148.611C215.797 111.778 185.831 81.8125 148.998 81.8125Z" fill="white"/>
<path d="M144.52 175.394C142.888 175.394 141.325 174.745 140.174 173.594L119.543 152.96C117.142 150.559 117.142 146.666 119.543 144.265C121.943 141.865 125.837 141.865 128.237 144.265L144.523 160.551L181.442 123.631C183.843 121.23 187.736 121.23 190.137 123.631C192.538 126.032 192.538 129.925 190.137 132.326L148.871 173.591C147.72 174.745 146.155 175.391 144.526 175.391L144.52 175.394Z" fill="white"/>
</g>
<g opacity="0.4">
<path d="M149.001 225.343C106.69 225.343 72.2695 190.922 72.2695 148.611C72.2695 106.301 106.69 71.8797 149.001 71.8797C191.312 71.8797 225.733 106.301 225.733 148.611C225.733 190.922 191.312 225.343 149.001 225.343ZM149.001 79.448C110.863 79.448 79.8379 110.476 79.8379 148.611C79.8379 186.746 110.866 217.774 149.001 217.774C187.136 217.774 218.164 186.746 218.164 148.611C218.164 110.476 187.136 79.448 149.001 79.448Z" fill="white"/>
<path d="M144.524 173.029C143.521 173.029 142.559 172.63 141.849 171.92L121.218 151.286C119.74 149.81 119.74 147.412 121.218 145.937C122.697 144.461 125.092 144.461 126.57 145.937L144.527 163.893L183.118 125.302C184.596 123.827 186.991 123.827 188.47 125.302C189.948 126.781 189.948 129.176 188.47 130.655L147.204 171.92C146.494 172.63 145.533 173.029 144.53 173.029H144.524Z" fill="white"/>
</g>
<g opacity="0.4">
<path d="M149 222.978C107.994 222.978 74.6328 189.617 74.6328 148.611C74.6328 107.606 107.994 74.2441 149 74.2441C190.005 74.2441 223.367 107.606 223.367 148.611C223.367 189.617 190.005 222.978 149 222.978ZM149 77.0836C109.56 77.0836 77.4723 109.171 77.4723 148.611C77.4723 188.052 109.56 220.139 149 220.139C188.44 220.139 220.527 188.052 220.527 148.611C220.527 109.171 188.44 77.0836 149 77.0836Z" fill="white"/>
<path d="M144.522 170.665C144.145 170.665 143.784 170.514 143.519 170.249L122.888 149.615C122.334 149.061 122.334 148.161 122.888 147.608C123.441 147.054 124.341 147.054 124.894 147.608L144.525 167.239L184.787 126.977C185.341 126.423 186.24 126.423 186.794 126.977C187.347 127.53 187.347 128.43 186.794 128.983L145.528 170.249C145.263 170.514 144.902 170.665 144.525 170.665H144.522Z" fill="white"/>
</g>
<g opacity="0.6">
<path d="M149.002 222.034C108.516 222.034 75.582 189.097 75.582 148.614C75.582 108.131 108.519 75.1943 149.002 75.1943C189.484 75.1943 222.421 108.131 222.421 148.614C222.421 189.097 189.484 222.034 149.002 222.034ZM149.002 76.139C109.039 76.139 76.5267 108.651 76.5267 148.614C76.5267 188.577 109.039 221.089 149.002 221.089C188.965 221.089 221.477 188.577 221.477 148.614C221.477 108.651 188.965 76.139 149.002 76.139Z" fill="white"/>
<path d="M144.523 169.718C144.397 169.718 144.277 169.667 144.188 169.578L123.556 148.944C123.372 148.759 123.372 148.46 123.556 148.276C123.741 148.091 124.04 148.091 124.224 148.276L144.523 168.574L185.453 127.645C185.637 127.46 185.936 127.46 186.121 127.645C186.305 127.829 186.305 128.128 186.121 128.312L144.856 169.578C144.766 169.667 144.646 169.718 144.52 169.718H144.523Z" fill="white"/>
</g>
<defs>
<linearGradient id="paint0_linear_1820_14691" x1="97.4464" y1="97.0553" x2="200.561" y2="200.17" gradientUnits="userSpaceOnUse">
<stop stop-color="#4800FF"/>
<stop offset="1" stop-color="#FF00B3"/>
</linearGradient>
<linearGradient id="paint1_linear_1820_14691" x1="105.5" y1="88.9559" x2="208.662" y2="192.118" gradientUnits="userSpaceOnUse">
<stop stop-color="#4800FF"/>
<stop offset="1" stop-color="#FF00B3"/>
</linearGradient>
<linearGradient id="paint2_linear_1820_14691" x1="97.4464" y1="97.0553" x2="200.561" y2="200.17" gradientUnits="userSpaceOnUse">
<stop stop-color="#4800FF"/>
<stop offset="1" stop-color="#FF00B3"/>
</linearGradient>
<linearGradient id="paint3_linear_1820_14691" x1="105.496" y1="88.956" x2="208.658" y2="192.118" gradientUnits="userSpaceOnUse">
<stop stop-color="#4800FF"/>
<stop offset="1" stop-color="#FF00B3"/>
</linearGradient>
<linearGradient id="paint4_linear_1820_14691" x1="97.4453" y1="97.0553" x2="200.56" y2="200.17" gradientUnits="userSpaceOnUse">
<stop stop-color="#4800FF"/>
<stop offset="1" stop-color="#FF00B3"/>
</linearGradient>
<linearGradient id="paint5_linear_1820_14691" x1="105.497" y1="88.956" x2="208.659" y2="192.118" gradientUnits="userSpaceOnUse">
<stop stop-color="#4800FF"/>
<stop offset="1" stop-color="#FF00B3"/>
</linearGradient>
<linearGradient id="paint6_linear_1820_14691" x1="97.4442" y1="97.0553" x2="200.559" y2="200.17" gradientUnits="userSpaceOnUse">
<stop stop-color="#4800FF"/>
<stop offset="1" stop-color="#FF00B3"/>
</linearGradient>
<linearGradient id="paint7_linear_1820_14691" x1="105.499" y1="88.9559" x2="208.661" y2="192.118" gradientUnits="userSpaceOnUse">
<stop stop-color="#4800FF"/>
<stop offset="1" stop-color="#FF00B3"/>
</linearGradient>
<linearGradient id="paint8_linear_1820_14691" x1="97.4458" y1="97.0553" x2="200.56" y2="200.17" gradientUnits="userSpaceOnUse">
<stop stop-color="#4800FF"/>
<stop offset="1" stop-color="#FF00B3"/>
</linearGradient>
<linearGradient id="paint9_linear_1820_14691" x1="105.498" y1="88.956" x2="208.66" y2="192.118" gradientUnits="userSpaceOnUse">
<stop stop-color="#4800FF"/>
<stop offset="1" stop-color="#FF00B3"/>
</linearGradient>
<linearGradient id="paint10_linear_1820_14691" x1="97.4447" y1="97.0553" x2="200.559" y2="200.17" gradientUnits="userSpaceOnUse">
<stop stop-color="#4800FF"/>
<stop offset="1" stop-color="#FF00B3"/>
</linearGradient>
<linearGradient id="paint11_linear_1820_14691" x1="105.496" y1="88.956" x2="208.658" y2="192.118" gradientUnits="userSpaceOnUse">
<stop stop-color="#4800FF"/>
<stop offset="1" stop-color="#FF00B3"/>
</linearGradient>
<linearGradient id="paint12_linear_1820_14691" x1="97.4475" y1="97.0553" x2="200.562" y2="200.17" gradientUnits="userSpaceOnUse">
<stop stop-color="#4800FF"/>
<stop offset="1" stop-color="#FF00B3"/>
</linearGradient>
<linearGradient id="paint13_linear_1820_14691" x1="105.498" y1="88.956" x2="208.66" y2="192.118" gradientUnits="userSpaceOnUse">
<stop stop-color="#4800FF"/>
<stop offset="1" stop-color="#FF00B3"/>
</linearGradient>
<linearGradient id="paint14_linear_1820_14691" x1="97.4463" y1="97.0554" x2="200.561" y2="200.17" gradientUnits="userSpaceOnUse">
<stop stop-color="#4800FF"/>
<stop offset="1" stop-color="#FF00B3"/>
</linearGradient>
<linearGradient id="paint15_linear_1820_14691" x1="105.498" y1="88.956" x2="208.66" y2="192.118" gradientUnits="userSpaceOnUse">
<stop stop-color="#4800FF"/>
<stop offset="1" stop-color="#FF00B3"/>
</linearGradient>
<linearGradient id="paint16_linear_1820_14691" x1="97.4452" y1="97.0553" x2="200.56" y2="200.17" gradientUnits="userSpaceOnUse">
<stop stop-color="#4800FF"/>
<stop offset="1" stop-color="#FF00B3"/>
</linearGradient>
<linearGradient id="paint17_linear_1820_14691" x1="105.498" y1="88.956" x2="208.66" y2="192.118" gradientUnits="userSpaceOnUse">
<stop stop-color="#4800FF"/>
<stop offset="1" stop-color="#FF00B3"/>
</linearGradient>
<linearGradient id="paint18_linear_1820_14691" x1="97.448" y1="97.0554" x2="200.562" y2="200.17" gradientUnits="userSpaceOnUse">
<stop stop-color="#4800FF"/>
<stop offset="1" stop-color="#FF00B3"/>
</linearGradient>
<linearGradient id="paint19_linear_1820_14691" x1="105.497" y1="88.956" x2="208.659" y2="192.118" gradientUnits="userSpaceOnUse">
<stop stop-color="#4800FF"/>
<stop offset="1" stop-color="#FF00B3"/>
</linearGradient>
<linearGradient id="paint20_linear_1820_14691" x1="97.4469" y1="97.0553" x2="200.561" y2="200.17" gradientUnits="userSpaceOnUse">
<stop stop-color="#4800FF"/>
<stop offset="1" stop-color="#FF00B3"/>
</linearGradient>
<linearGradient id="paint21_linear_1820_14691" x1="105.498" y1="88.956" x2="208.66" y2="192.118" gradientUnits="userSpaceOnUse">
<stop stop-color="#4800FF"/>
<stop offset="1" stop-color="#FF00B3"/>
</linearGradient>
<linearGradient id="paint22_linear_1820_14691" x1="97.4457" y1="97.0553" x2="200.56" y2="200.17" gradientUnits="userSpaceOnUse">
<stop stop-color="#4800FF"/>
<stop offset="1" stop-color="#FF00B3"/>
</linearGradient>
<linearGradient id="paint23_linear_1820_14691" x1="105.492" y1="88.956" x2="208.654" y2="192.118" gradientUnits="userSpaceOnUse">
<stop stop-color="#4800FF"/>
<stop offset="1" stop-color="#FF00B3"/>
</linearGradient>
<linearGradient id="paint24_linear_1820_14691" x1="97.4446" y1="97.0554" x2="200.559" y2="200.17" gradientUnits="userSpaceOnUse">
<stop stop-color="#4800FF"/>
<stop offset="1" stop-color="#FF00B3"/>
</linearGradient>
<linearGradient id="paint25_linear_1820_14691" x1="105.496" y1="88.956" x2="208.658" y2="192.118" gradientUnits="userSpaceOnUse">
<stop stop-color="#4800FF"/>
<stop offset="1" stop-color="#FF00B3"/>
</linearGradient>
<linearGradient id="paint26_linear_1820_14691" x1="97.4474" y1="97.0554" x2="200.562" y2="200.17" gradientUnits="userSpaceOnUse">
<stop stop-color="#4800FF"/>
<stop offset="1" stop-color="#FF00B3"/>
</linearGradient>
<linearGradient id="paint27_linear_1820_14691" x1="105.494" y1="88.956" x2="208.656" y2="192.118" gradientUnits="userSpaceOnUse">
<stop stop-color="#4800FF"/>
<stop offset="1" stop-color="#FF00B3"/>
</linearGradient>
<linearGradient id="paint28_linear_1820_14691" x1="97.4463" y1="97.0553" x2="200.561" y2="200.17" gradientUnits="userSpaceOnUse">
<stop stop-color="#4800FF"/>
<stop offset="1" stop-color="#FF00B3"/>
</linearGradient>
<linearGradient id="paint29_linear_1820_14691" x1="105.496" y1="88.956" x2="208.658" y2="192.118" gradientUnits="userSpaceOnUse">
<stop stop-color="#4800FF"/>
<stop offset="1" stop-color="#FF00B3"/>
</linearGradient>
<linearGradient id="paint30_linear_1820_14691" x1="97.4451" y1="97.0553" x2="200.56" y2="200.17" gradientUnits="userSpaceOnUse">
<stop stop-color="#4800FF"/>
<stop offset="1" stop-color="#FF00B3"/>
</linearGradient>
<linearGradient id="paint31_linear_1820_14691" x1="105.496" y1="88.956" x2="208.658" y2="192.118" gradientUnits="userSpaceOnUse">
<stop stop-color="#4800FF"/>
<stop offset="1" stop-color="#FF00B3"/>
</linearGradient>
<linearGradient id="paint32_linear_1820_14691" x1="97.4451" y1="97.0553" x2="200.56" y2="200.17" gradientUnits="userSpaceOnUse">
<stop stop-color="#4800FF"/>
<stop offset="1" stop-color="#FF00B3"/>
</linearGradient>
<linearGradient id="paint33_linear_1820_14691" x1="105.498" y1="88.9559" x2="208.66" y2="192.118" gradientUnits="userSpaceOnUse">
<stop stop-color="#4800FF"/>
<stop offset="1" stop-color="#FF00B3"/>
</linearGradient>
<linearGradient id="paint34_linear_1820_14691" x1="97.444" y1="97.0553" x2="200.558" y2="200.17" gradientUnits="userSpaceOnUse">
<stop stop-color="#4800FF"/>
<stop offset="1" stop-color="#FF00B3"/>
</linearGradient>
<linearGradient id="paint35_linear_1820_14691" x1="105.496" y1="88.956" x2="208.658" y2="192.118" gradientUnits="userSpaceOnUse">
<stop stop-color="#4800FF"/>
<stop offset="1" stop-color="#FF00B3"/>
</linearGradient>
<linearGradient id="paint36_linear_1820_14691" x1="97.4453" y1="97.0553" x2="200.56" y2="200.17" gradientUnits="userSpaceOnUse">
<stop stop-color="#4800FF"/>
<stop offset="1" stop-color="#FF00B3"/>
</linearGradient>
<linearGradient id="paint37_linear_1820_14691" x1="105.497" y1="88.956" x2="208.659" y2="192.118" gradientUnits="userSpaceOnUse">
<stop stop-color="#4800FF"/>
<stop offset="1" stop-color="#FF00B3"/>
</linearGradient>
</defs>
</svg>
