<svg xmlns="http://www.w3.org/2000/svg" width="128" height="128" viewBox="0 0 128 128" fill="none"><path d="M78.74 118.02C73.9385 119.342 68.9802 120.008 64 120C52.9243 120 42.0972 116.716 32.8881 110.562C23.6789 104.409 16.5013 95.663 12.2628 85.4303C8.02426 75.1976 6.91528 63.9379 9.07605 53.075C11.2368 42.212 16.5703 32.2338 24.402 24.402C32.2338 16.5703 42.212 11.2368 53.075 9.07605C63.9379 6.91528 75.1976 8.02426 85.4303 12.2628C95.663 16.5013 104.409 23.6789 110.562 32.8881C116.716 42.0972 120 52.9243 120 64C120.008 68.9802 119.342 73.9385 118.02 78.74C116.113 76.3052 113.815 74.2033 111.22 72.52C111.745 69.7105 112.006 66.8581 112 64C112 54.5065 109.185 45.2262 103.911 37.3327C98.6363 29.4391 91.1397 23.2868 82.3688 19.6538C73.598 16.0208 63.9468 15.0702 54.6357 16.9223C45.3246 18.7744 36.7718 23.346 30.0589 30.0589C23.346 36.7718 18.7744 45.3246 16.9223 54.6357C15.0702 63.9468 16.0208 73.598 19.6538 82.3688C23.2868 91.1397 29.4391 98.6363 37.3327 103.911C45.2262 109.185 54.5065 112 64 112C66.8581 112.006 69.7105 111.745 72.52 111.22C74.2033 113.815 76.3052 116.113 78.74 118.02ZM68 96C67.9928 99.9733 68.8385 103.902 70.48 107.52C68.3352 107.843 66.169 108.003 64 108C55.2976 108 46.7907 105.419 39.5549 100.585C32.3192 95.7499 26.6796 88.878 23.3493 80.8381C20.0191 72.7981 19.1477 63.9512 20.8455 55.4161C22.5432 46.8809 26.7338 39.0408 32.8873 32.8873C39.0408 26.7338 46.8809 22.5432 55.4161 20.8455C63.9512 19.1477 72.7981 20.0191 80.8381 23.3493C88.878 26.6796 95.7499 32.3192 100.585 39.5549C105.419 46.7907 108 55.2976 108 64C108.003 66.169 107.843 68.3352 107.52 70.48C103.256 68.5549 98.5767 67.729 93.9108 68.0781C89.245 68.4271 84.741 69.9398 80.8104 72.4779C76.8798 75.0161 73.648 78.4988 71.4102 82.6078C69.1723 86.7169 67.9999 91.3212 68 96ZM102.04 64C102.04 64.3956 102.157 64.7823 102.377 65.1112C102.597 65.4401 102.909 65.6964 103.275 65.8478C103.64 65.9992 104.042 66.0388 104.43 65.9616C104.818 65.8844 105.175 65.6939 105.454 65.4142C105.734 65.1345 105.924 64.7782 106.002 64.3902C106.079 64.0022 106.039 63.6001 105.888 63.2347C105.736 62.8692 105.48 62.5569 105.151 62.3371C104.822 62.1173 104.436 62 104.04 62H104.02C103.759 62.0012 103.5 62.0539 103.259 62.155C103.018 62.2562 102.799 62.4039 102.615 62.5896C102.432 62.7754 102.286 62.9955 102.187 63.2375C102.089 63.4796 102.039 63.7387 102.04 64ZM90.32 35.72C90.32 36.1156 90.4373 36.5023 90.6571 36.8312C90.8768 37.1601 91.1892 37.4164 91.5547 37.5678C91.9201 37.7192 92.3222 37.7588 92.7102 37.6816C93.0982 37.6044 93.4545 37.4139 93.7342 37.1342C94.0139 36.8545 94.2044 36.4982 94.2816 36.1102C94.3588 35.7222 94.3192 35.3201 94.1678 34.9547C94.0164 34.5892 93.7601 34.2768 93.4312 34.0571C93.1023 33.8373 92.7156 33.72 92.32 33.72H92.3C92.0387 33.7212 91.7801 33.7739 91.5391 33.875C91.2981 33.9762 91.0794 34.1239 90.8955 34.3096C90.7116 34.4954 90.5661 34.7155 90.4674 34.9575C90.3686 35.1996 90.3186 35.4587 90.32 35.72ZM26.04 64C26.0384 63.4701 25.8272 62.9623 25.4525 62.5876C25.0778 62.2128 24.57 62.0016 24.04 62H24.02C23.6253 62.004 23.2406 62.1246 22.9144 62.3468C22.5881 62.5689 22.3349 62.8826 22.1866 63.2484C22.0383 63.6142 22.0015 64.0157 22.0809 64.4023C22.1603 64.789 22.3524 65.1435 22.6329 65.4212C22.9134 65.6989 23.2697 65.8874 23.6571 65.9629C24.0445 66.0385 24.4457 65.9977 24.8099 65.8458C25.1742 65.6939 25.4854 65.4375 25.7043 65.1091C25.9232 64.7806 26.04 64.3947 26.04 64ZM62.04 24C62.04 24.3956 62.1573 24.7823 62.3771 25.1112C62.5969 25.4401 62.9092 25.6964 63.2747 25.8478C63.6401 25.9992 64.0422 26.0388 64.4302 25.9616C64.8182 25.8844 65.1745 25.6939 65.4542 25.4142C65.7339 25.1345 65.9244 24.7782 66.0016 24.3902C66.0788 24.0022 66.0392 23.6001 65.8878 23.2347C65.7364 22.8692 65.4801 22.5568 65.1512 22.3371C64.8223 22.1173 64.4356 22 64.04 22H64.02C63.7586 22.0012 63.5001 22.0539 63.2591 22.155C63.0181 22.2562 62.7994 22.4039 62.6155 22.5896C62.4316 22.7754 62.2861 22.9955 62.1874 23.2375C62.0886 23.4796 62.0386 23.7387 62.04 24ZM37.76 92.28C37.7585 91.7501 37.5473 91.2422 37.1725 90.8675C36.7978 90.4928 36.29 90.2816 35.76 90.28H35.74C35.3453 90.284 34.9606 90.4046 34.6344 90.6268C34.3081 90.8489 34.0549 91.1626 33.9066 91.5284C33.7583 91.8942 33.7215 92.2957 33.8009 92.6823C33.8803 93.069 34.0724 93.4234 34.3529 93.7012C34.6334 93.9789 34.9897 94.1674 35.3771 94.2429C35.7645 94.3185 36.1657 94.2777 36.5299 94.1258C36.8942 93.9738 37.2054 93.7175 37.4243 93.3891C37.6432 93.0606 37.76 92.6747 37.76 92.28ZM37.76 35.72C37.7584 35.1901 37.5472 34.6823 37.1725 34.3076C36.7978 33.9328 36.29 33.7216 35.76 33.72H35.74C35.3453 33.724 34.9606 33.8446 34.6344 34.0668C34.3081 34.2889 34.0549 34.6026 33.9066 34.9684C33.7583 35.3342 33.7215 35.7357 33.8009 36.1223C33.8803 36.509 34.0724 36.8634 34.3529 37.1412C34.6334 37.4189 34.9897 37.6074 35.3771 37.6829C35.7645 37.7585 36.1657 37.7177 36.5299 37.5658C36.8942 37.4138 37.2054 37.1575 37.4243 36.8291C37.6432 36.5006 37.76 36.1147 37.76 35.72ZM66.04 104C66.0384 103.47 65.8272 102.962 65.4525 102.588C65.0778 102.213 64.57 102.002 64.04 102H64.02C63.6253 102.004 63.2406 102.125 62.9144 102.347C62.5881 102.569 62.3349 102.883 62.1866 103.248C62.0383 103.614 62.0015 104.016 62.0809 104.402C62.1603 104.789 62.3524 105.143 62.6329 105.421C62.9133 105.699 63.2697 105.887 63.6571 105.963C64.0445 106.038 64.4457 105.998 64.8099 105.846C65.1742 105.694 65.4854 105.438 65.7043 105.109C65.9232 104.781 66.04 104.395 66.04 104ZM70 64C69.9964 62.7622 69.61 61.5557 68.8939 60.546C68.1778 59.5363 67.167 58.7728 66 58.36V34C66 33.4696 65.7893 32.9609 65.4142 32.5858C65.0392 32.2107 64.5305 32 64 32C63.4696 32 62.9609 32.2107 62.5858 32.5858C62.2107 32.9609 62 33.4696 62 34V58.36C61.1602 58.6568 60.3974 59.1377 59.7675 59.7675C59.1377 60.3974 58.6568 61.1602 58.36 62H40C39.4696 62 38.9609 62.2107 38.5858 62.5858C38.2107 62.9609 38 63.4696 38 64C38 64.5305 38.2107 65.0392 38.5858 65.4142C38.9609 65.7893 39.4696 66 40 66H58.36C58.83 67.3342 59.7569 68.459 60.9766 69.1752C62.1964 69.8915 63.6302 70.153 65.0243 69.9135C66.4183 69.674 67.6826 68.9488 68.5933 67.8665C69.504 66.7842 70.0023 65.4145 70 64ZM64 62C63.6045 62 63.2178 62.1173 62.8889 62.3371C62.56 62.5569 62.3036 62.8692 62.1523 63.2347C62.0009 63.6001 61.9613 64.0022 62.0385 64.3902C62.1156 64.7782 62.3061 65.1345 62.5858 65.4142C62.8655 65.6939 63.2219 65.8844 63.6098 65.9616C63.9978 66.0388 64.3999 65.9992 64.7654 65.8478C65.1308 65.6964 65.4432 65.4401 65.663 65.1112C65.8827 64.7823 66 64.3956 66 64C65.9984 63.4701 65.7872 62.9623 65.4125 62.5876C65.0378 62.2128 64.53 62.0016 64 62ZM120 96C120 100.747 118.592 105.387 115.955 109.334C113.318 113.28 109.57 116.357 105.184 118.173C100.799 119.99 95.9734 120.465 91.3179 119.539C86.6623 118.613 82.3859 116.327 79.0295 112.971C75.673 109.614 73.3872 105.338 72.4612 100.682C71.5351 96.0266 72.0104 91.201 73.8269 86.8156C75.6434 82.4302 78.7196 78.6819 82.6663 76.0448C86.6131 73.4076 91.2533 72 96 72C102.364 72.0051 108.465 74.5352 112.965 79.035C117.465 83.5348 119.995 89.6364 120 96ZM88.96 101.58L93.12 97.56C99.68 90.18 88.72 81.98 82.62 89.36C82.2528 89.7319 82.0456 90.2327 82.0426 90.7553C82.0396 91.278 82.2412 91.7811 82.6041 92.1571C82.9671 92.5331 83.4628 92.7523 83.9852 92.7678C84.5076 92.7833 85.0154 92.5939 85.4 92.24L86.5 91.18C88.86 88.94 92.8 92.14 90.34 94.68L82.62 102.14C82.3385 102.418 82.1453 102.773 82.0648 103.161C81.9843 103.548 82.0199 103.951 82.1673 104.318C82.3147 104.686 82.5672 105.001 82.8932 105.226C83.2192 105.45 83.6043 105.574 84 105.58H93.04C93.5643 105.571 94.0639 105.356 94.4313 104.982C94.7987 104.608 95.0046 104.104 95.0046 103.58C95.0046 103.056 94.7987 102.552 94.4313 102.178C94.0639 101.804 93.5643 101.589 93.04 101.58H88.96ZM110 100.56C110.003 100.104 109.849 99.6615 109.566 99.305C109.282 98.9485 108.885 98.6997 108.44 98.6V88.42C108.442 87.987 108.302 87.5652 108.042 87.2187C107.782 86.8722 107.417 86.6199 107 86.5C106.584 86.3802 106.14 86.3993 105.736 86.5545C105.332 86.7097 104.989 86.9925 104.76 87.36L97.2 99.5C97.0102 99.803 96.9051 100.151 96.8957 100.509C96.8863 100.866 96.9729 101.219 97.1466 101.532C97.3202 101.844 97.5744 102.105 97.8829 102.286C98.1913 102.466 98.5425 102.561 98.9 102.56H104.44V103.58C104.44 104.11 104.651 104.619 105.026 104.994C105.401 105.369 105.91 105.58 106.44 105.58C106.97 105.58 107.479 105.369 107.854 104.994C108.229 104.619 108.44 104.11 108.44 103.58V102.5C108.882 102.402 109.277 102.156 109.56 101.804C109.844 101.451 109.999 101.013 110 100.56ZM104.44 98.56V95.42L102.5 98.56H104.44Z" fill="url(#paint0_linear_300_23701)"></path><defs><linearGradient id="paint0_linear_300_23701" x1="64" y1="8" x2="64" y2="120" gradientUnits="userSpaceOnUse"><stop stop-color="#91D6FF"></stop><stop offset="1" stop-color="#2180EE"></stop></linearGradient></defs></svg>