<svg xmlns="http://www.w3.org/2000/svg" width="40" height="40" viewBox="0 0 40 40" fill="none"><path d="M19.9998 18.333V13.333L13.3332 19.9997L19.9998 26.6663V21.6663H26.6665V18.333H19.9998ZM19.9998 3.33301C10.7998 3.33301 3.33317 10.7997 3.33317 19.9997C3.33317 29.1997 10.7998 36.6663 19.9998 36.6663C29.1998 36.6663 36.6665 29.1997 36.6665 19.9997C36.6665 10.7997 29.1998 3.33301 19.9998 3.33301ZM19.9998 33.333C12.6332 33.333 6.6665 27.3663 6.6665 19.9997C6.6665 12.633 12.6332 6.66634 19.9998 6.66634C27.3665 6.66634 33.3332 12.633 33.3332 19.9997C33.3332 27.3663 27.3665 33.333 19.9998 33.333Z" fill="white"></path></svg>