<svg xmlns="http://www.w3.org/2000/svg" width="40" height="40" viewBox="0 0 40 40" fill="none"><path d="M20.0002 18.333V13.333L26.6668 19.9997L20.0002 26.6663V21.6663H13.3335V18.333H20.0002ZM20.0002 3.33301C29.2002 3.33301 36.6668 10.7997 36.6668 19.9997C36.6668 29.1997 29.2002 36.6663 20.0002 36.6663C10.8002 36.6663 3.3335 29.1997 3.3335 19.9997C3.3335 10.7997 10.8002 3.33301 20.0002 3.33301ZM20.0002 33.333C27.3668 33.333 33.3335 27.3663 33.3335 19.9997C33.3335 12.633 27.3668 6.66634 20.0002 6.66634C12.6335 6.66634 6.66683 12.633 6.66683 19.9997C6.66683 27.3663 12.6335 33.333 20.0002 33.333Z" fill="white"></path></svg>