<svg xmlns="http://www.w3.org/2000/svg" width="128" height="128" viewBox="0 0 128 128" fill="none"><g clip-path="url(#clip0_300_23690)"><path d="M95.866 89.5752C92.3967 89.5752 89.5742 92.3977 89.5742 95.867C89.8905 104.202 101.843 104.2 102.158 95.867C102.158 92.3977 99.3352 89.5752 95.866 89.5752Z" fill="url(#paint0_linear_300_23690)"></path><path d="M64.0275 71.6572L69.2162 66.4685C68.6377 65.8085 68.2842 64.9465 68.2842 63.9997V59.983C68.4687 55.0128 75.6015 55.0165 75.7842 59.983V61.4403C77.5642 60.8198 79.5812 60.676 81.4495 61.0558C83.4125 58.131 86.7487 56.233 90.472 56.233H91.851V3.75C91.851 1.679 90.172 0 88.101 0H23.834C21.763 0 20.084 1.679 20.084 3.75V103.9H56.5612C56.3485 103.053 56.234 102.169 56.234 101.262V90.4713C56.234 86.7475 58.1325 83.4108 61.0577 81.448C60.3772 77.9917 61.3947 74.2903 64.0275 71.6572ZM68.2842 19.8167C68.4687 14.8465 75.6015 14.8503 75.7842 19.8167V23.8335C75.5997 28.8037 68.467 28.8 68.2842 23.8335V19.8167ZM68.2842 39.9C68.4687 34.9298 75.6015 34.9335 75.7842 39.9V43.9165C75.5997 48.8867 68.467 48.883 68.2842 43.9165V39.9ZM43.6507 64C43.4662 68.9703 36.3335 68.9665 36.1507 64V59.9832C36.3352 55.013 43.468 55.0168 43.6507 59.9832V64ZM43.6507 43.9168C43.4662 48.887 36.3335 48.8833 36.1507 43.9168V39.9C36.3352 34.9298 43.468 34.9335 43.6507 39.9V43.9168ZM43.6507 23.8333C43.4662 28.8035 36.3335 28.7997 36.1507 23.8333V19.8167C36.3352 14.8465 43.468 14.8503 43.6507 19.8167V23.8333ZM59.7175 64C59.533 68.9703 52.4002 68.9665 52.2175 64V59.9832C52.402 55.013 59.5347 55.0168 59.7175 59.9832V64ZM59.7175 43.9168C59.533 48.887 52.4002 48.8833 52.2175 43.9168V39.9C52.402 34.9298 59.5347 34.9335 59.7175 39.9V43.9168ZM59.7175 23.8333C59.533 28.8035 52.4002 28.7997 52.2175 23.8333V19.8167C52.402 14.8465 59.5347 14.8503 59.7175 19.8167V23.8333Z" fill="url(#paint1_linear_300_23690)"></path><path d="M110.284 61.0559C112.153 60.6761 114.17 60.8196 115.95 61.4401V35.8831C115.95 34.8886 115.555 33.9349 114.851 33.2316L102.801 21.1816C101.914 20.2854 100.579 19.8916 99.3496 20.1721V56.2331H101.261C104.985 56.2331 108.321 58.1314 110.284 61.0559Z" fill="url(#paint2_linear_300_23690)"></path><path d="M125.058 87.1391L120.961 86.6277C120.716 85.9604 120.443 85.3029 120.144 84.6569L122.679 81.3969C123.719 80.0599 123.6 78.1582 122.403 76.9607L114.772 69.3302C113.574 68.1327 111.673 68.0144 110.336 69.0539L107.076 71.5891C106.429 71.2901 105.772 71.0174 105.105 70.7716L104.594 66.6754C104.384 64.9946 102.955 63.7334 101.261 63.7334H90.4707C88.7769 63.7334 87.3482 64.9946 87.1384 66.6754L86.6269 70.7714C85.9599 71.0171 85.3022 71.2899 84.6559 71.5889L81.3959 69.0536C80.0594 68.0141 78.1579 68.1324 76.9599 69.3299L69.3292 76.9607C68.1317 78.1582 68.0132 80.0596 69.0529 81.3966L71.5884 84.6567C71.2894 85.3032 71.0164 85.9606 70.7707 86.6274L66.6744 87.1389C64.9937 87.3489 63.7324 88.7774 63.7324 90.4711V101.262C63.7324 102.956 64.9937 104.384 66.6744 104.594L70.7704 105.106C71.0162 105.773 71.2889 106.43 71.5882 107.077L69.0529 110.336C68.0132 111.673 68.1317 113.575 69.3292 114.772L76.9599 122.403C78.1577 123.601 80.0592 123.719 81.3959 122.679L84.6562 120.144C85.3027 120.443 85.9602 120.716 86.6269 120.962L87.1384 125.058C87.3482 126.738 88.7769 128 90.4707 128H101.261C102.955 128 104.384 126.738 104.594 125.058L105.105 120.962C105.772 120.716 106.43 120.443 107.076 120.144L110.336 122.679C111.673 123.719 113.574 123.6 114.772 122.403L122.403 114.772C123.6 113.574 123.719 111.673 122.679 110.336L120.144 107.076C120.443 106.429 120.715 105.772 120.961 105.105L125.057 104.594C126.738 104.384 127.999 102.955 127.999 101.262V90.4709C127.999 88.7776 126.738 87.3491 125.058 87.1391ZM95.8662 109.658C88.2614 109.658 82.0744 103.471 82.0744 95.8666C82.7677 77.5951 108.967 77.6002 109.658 95.8669C109.658 103.472 103.471 109.658 95.8662 109.658Z" fill="url(#paint3_linear_300_23690)"></path><path d="M0 47.9336V100.15C0 102.221 1.679 103.9 3.75 103.9H12.5833V44.1836H3.75C1.679 44.1836 0 45.8626 0 47.9336Z" fill="url(#paint4_linear_300_23690)"></path></g><defs><linearGradient id="paint0_linear_300_23690" x1="95.866" y1="89.5752" x2="95.866" y2="102.118" gradientUnits="userSpaceOnUse"><stop stop-color="#91D6FF"></stop><stop offset="1" stop-color="#2180EE"></stop></linearGradient><linearGradient id="paint1_linear_300_23690" x1="55.9675" y1="0" x2="55.9675" y2="103.9" gradientUnits="userSpaceOnUse"><stop stop-color="#91D6FF"></stop><stop offset="1" stop-color="#2180EE"></stop></linearGradient><linearGradient id="paint2_linear_300_23690" x1="107.65" y1="20.083" x2="107.65" y2="61.4401" gradientUnits="userSpaceOnUse"><stop stop-color="#91D6FF"></stop><stop offset="1" stop-color="#2180EE"></stop></linearGradient><linearGradient id="paint3_linear_300_23690" x1="95.8659" y1="63.7334" x2="95.8659" y2="128" gradientUnits="userSpaceOnUse"><stop stop-color="#91D6FF"></stop><stop offset="1" stop-color="#2180EE"></stop></linearGradient><linearGradient id="paint4_linear_300_23690" x1="6.29163" y1="44.1836" x2="6.29163" y2="103.9" gradientUnits="userSpaceOnUse"><stop stop-color="#91D6FF"></stop><stop offset="1" stop-color="#2180EE"></stop></linearGradient><clipPath id="clip0_300_23690"><rect width="128" height="128" fill="white"></rect></clipPath></defs></svg>