<svg xmlns="http://www.w3.org/2000/svg" width="128" height="128" viewBox="0 0 128 128" fill="none"><path d="M0 30.2263V60.2145C0 62.2855 1.679 63.9645 3.75 63.9645C5.821 63.9645 7.5 62.2855 7.5 60.2145L7.7165 17.9775C3.15575 20.1703 0 24.8363 0 30.2263Z" fill="url(#paint0_linear_300_23707)"></path><path d="M120.283 17.9775L120.5 52.2613V60.2145C120.5 62.2855 122.179 63.9645 124.25 63.9645C126.321 63.9645 128 62.2855 128 60.2145V30.2263C128 24.8363 124.844 20.1703 120.283 17.9775Z" fill="url(#paint1_linear_300_23707)"></path><path d="M101.534 5.09375H26.4668C20.2635 5.09375 15.2168 10.1405 15.2168 16.3438V96.6683C15.2168 101.681 18.5128 105.937 23.051 107.386V112.753C23.051 113.58 23.1528 114.383 23.34 115.152C24.4213 119.596 28.4325 122.907 33.2045 122.907C37.8808 122.907 41.8268 119.728 43.0005 115.418C43.232 114.568 43.358 113.675 43.358 112.753V107.918H84.6428V112.753C84.6428 113.675 84.7688 114.568 85.0003 115.418C86.1743 119.728 90.12 122.907 94.7965 122.907C99.5683 122.907 103.58 119.596 104.661 115.152C104.848 114.383 104.95 113.579 104.95 112.753V107.386H104.95C109.488 105.937 112.784 101.681 112.784 96.668V16.3438C112.784 10.1405 107.737 5.09375 101.534 5.09375ZM39.0893 88.454C39.0893 90.525 37.4103 92.204 35.3393 92.204C33.2683 92.204 31.5893 90.525 31.5893 88.454V79.46C31.5893 77.389 33.2683 75.71 35.3393 75.71C37.4103 75.71 39.0893 77.389 39.0893 79.46V88.454ZM96.4113 88.4542C96.4113 90.5252 94.7323 92.2042 92.6613 92.2042C90.5903 92.2042 88.9113 90.5252 88.9113 88.4542V79.4603C88.9113 77.3893 90.5903 75.7103 92.6613 75.7103C94.7323 75.7103 96.4113 77.3893 96.4113 79.4603V88.4542ZM105.284 57.5353H22.7168V29.7752H105.284V57.5353Z" fill="url(#paint2_linear_300_23707)"></path><defs><linearGradient id="paint0_linear_300_23707" x1="3.85825" y1="17.9775" x2="3.85825" y2="63.9645" gradientUnits="userSpaceOnUse"><stop stop-color="#91D6FF"></stop><stop offset="1" stop-color="#2180EE"></stop></linearGradient><linearGradient id="paint1_linear_300_23707" x1="124.141" y1="17.9775" x2="124.141" y2="63.9645" gradientUnits="userSpaceOnUse"><stop stop-color="#91D6FF"></stop><stop offset="1" stop-color="#2180EE"></stop></linearGradient><linearGradient id="paint2_linear_300_23707" x1="64.0003" y1="5.09375" x2="64.0003" y2="122.907" gradientUnits="userSpaceOnUse"><stop stop-color="#91D6FF"></stop><stop offset="1" stop-color="#2180EE"></stop></linearGradient></defs></svg>