<svg xmlns="http://www.w3.org/2000/svg" width="128" height="128" viewBox="0 0 128 128" fill="none"><path d="M12.8051 93.8672C11.6276 93.8672 10.6719 94.8229 10.6719 96.0004V100.267C10.6719 101.445 11.6276 102.4 12.8051 102.4C13.9826 102.4 14.9384 101.445 14.9384 100.267V96.0004C14.9384 94.8229 13.9826 93.8672 12.8051 93.8672Z" fill="url(#paint0_linear_300_23662)"></path><path d="M12.8051 106.667C11.6276 106.667 10.6719 107.623 10.6719 108.8V113.067C10.6719 114.244 11.6276 115.2 12.8051 115.2C13.9826 115.2 14.9384 114.244 14.9384 113.067V108.8C14.9384 107.623 13.9826 106.667 12.8051 106.667Z" fill="url(#paint1_linear_300_23662)"></path><path d="M12.8051 81.0664C11.6276 81.0664 10.6719 82.0222 10.6719 83.1997V87.4664C10.6719 88.6439 11.6276 89.5997 12.8051 89.5997C13.9826 89.5997 14.9384 88.6439 14.9384 87.4664V83.1997C14.9384 82.0222 13.9826 81.0664 12.8051 81.0664Z" fill="url(#paint2_linear_300_23662)"></path><path d="M21.3364 93.8672C20.1589 93.8672 19.2031 94.8229 19.2031 96.0004V100.267C19.2031 101.445 20.1589 102.4 21.3364 102.4C22.5139 102.4 23.4696 101.445 23.4696 100.267V96.0004C23.4699 94.8229 22.5141 93.8672 21.3364 93.8672Z" fill="url(#paint3_linear_300_23662)"></path><path d="M21.3364 81.0674C20.1589 81.0674 19.2031 82.0231 19.2031 83.2006V87.4674C19.2031 88.6449 20.1589 89.6006 21.3364 89.6006C22.5139 89.6006 23.4696 88.6449 23.4696 87.4674V83.2006C23.4699 82.0231 22.5141 81.0674 21.3364 81.0674Z" fill="url(#paint4_linear_300_23662)"></path><path d="M21.3364 106.667C20.1589 106.667 19.2031 107.623 19.2031 108.8V113.067C19.2031 114.244 20.1589 115.2 21.3364 115.2C22.5139 115.2 23.4696 114.244 23.4696 113.067V108.8C23.4699 107.623 22.5141 106.667 21.3364 106.667Z" fill="url(#paint5_linear_300_23662)"></path><path d="M123.736 23.4667H119.469V17.0667C119.469 15.8892 118.514 14.9335 117.336 14.9335H104.536C103.359 14.9335 102.403 15.8892 102.403 17.0667V23.4667H98.1362C96.9587 23.4667 96.003 24.4225 96.003 25.6V59.7332H93.8697V53.3332C93.8697 52.1557 92.914 51.2 91.7365 51.2H89.603V49.0667C89.603 47.8892 88.6472 46.9335 87.4697 46.9335C86.2922 46.9335 85.3365 47.8892 85.3365 49.0667V51.2H83.203C82.0255 51.2 81.0697 52.1557 81.0697 53.3332V59.7332H74.6697V17.0667C74.6697 15.8892 73.714 14.9335 72.5365 14.9335H66.1365V2.1335C66.1362 0.95575 65.1805 0 64.003 0H38.403C37.2255 0 36.2697 0.95575 36.2697 2.13325V14.9333H29.8697C28.6922 14.9333 27.7365 15.889 27.7365 17.0665V72.5332H23.4697V66.1332C23.4697 64.9557 22.514 64 21.3365 64H8.53647C7.35897 64 6.40322 64.9557 6.40322 66.1332V72.5332H4.26997C3.09247 72.5332 2.13672 73.489 2.13672 74.6665V125.867C2.13672 127.044 3.09247 128 4.26997 128H29.87H46.9367H98.1367H123.737C124.914 128 125.87 127.044 125.87 125.867V25.6C125.87 24.4225 124.914 23.4667 123.736 23.4667ZM61.8697 25.6C61.8697 24.4225 62.8255 23.4667 64.003 23.4667C65.1805 23.4667 66.1362 24.4225 66.1362 25.6V59.7332H61.8695L61.8697 25.6ZM53.3362 10.6667C53.3362 9.48925 54.292 8.5335 55.4695 8.5335C56.647 8.5335 57.6027 9.48925 57.6027 10.6667V17.0667C57.6027 18.2442 56.647 19.2 55.4695 19.2C54.292 19.2 53.3362 18.2442 53.3362 17.0667V10.6667ZM53.3362 25.6C53.3362 24.4225 54.292 23.4667 55.4695 23.4667C56.647 23.4667 57.6027 24.4225 57.6027 25.6V59.7332H53.336L53.3362 25.6ZM44.803 10.6667C44.803 9.48925 45.7587 8.5335 46.9362 8.5335C48.1137 8.5335 49.0695 9.48925 49.0695 10.6667V17.0667C49.0695 18.2442 48.1137 19.2 46.9362 19.2C45.7587 19.2 44.803 18.2442 44.803 17.0667V10.6667ZM36.2697 25.6C36.2697 24.4225 37.2255 23.4667 38.403 23.4667C39.5805 23.4667 40.5362 24.4225 40.5362 25.6V72.5332H36.2695V25.6H36.2697ZM44.803 119.467H38.403C37.2255 119.467 36.2697 118.511 36.2697 117.334C36.2697 116.156 37.2255 115.2 38.403 115.2H44.803V119.467ZM44.803 110.933H38.403C37.2255 110.933 36.2697 109.978 36.2697 108.8C36.2697 107.623 37.2255 106.667 38.403 106.667H44.803V110.933ZM44.803 102.4H38.403C37.2255 102.4 36.2697 101.444 36.2697 100.267C36.2697 99.0892 37.2255 98.1335 38.403 98.1335H44.803V102.4ZM44.803 93.8668H38.403C37.2255 93.8668 36.2697 92.911 36.2697 91.7335C36.2697 90.556 37.2255 89.6003 38.403 89.6003H44.803V93.8668ZM44.803 81.0667H29.8697C28.6922 81.0667 27.7365 82.0225 27.7365 83.2V123.733H6.40297V76.8H8.53622H21.3362H29.8695H38.403H44.803V81.0667ZM44.803 61.8667V25.6C44.803 24.4225 45.7587 23.4667 46.9362 23.4667C48.1137 23.4667 49.0695 24.4225 49.0695 25.6V59.7332H46.9362C45.7587 59.7332 44.803 60.689 44.803 61.8667ZM96.003 123.733H91.7362V70.4C91.7362 69.2225 90.7805 68.2667 89.603 68.2667C88.4255 68.2667 87.4697 69.2225 87.4697 70.4V123.733H83.203V70.4C83.203 69.2225 82.2472 68.2667 81.0697 68.2667C79.8922 68.2667 78.9365 69.2225 78.9365 70.4V123.733H74.6697V70.4C74.6697 69.2225 73.714 68.2667 72.5365 68.2667C71.359 68.2667 70.4032 69.2225 70.4032 70.4V123.733H66.1365V70.4C66.1365 69.2225 65.1807 68.2667 64.0032 68.2667C62.8257 68.2667 61.87 69.2225 61.87 70.4V123.733H57.603V70.4C57.603 69.2225 56.6472 68.2667 55.4697 68.2667C54.2922 68.2667 53.3365 69.2225 53.3365 70.4V123.733H49.0697V117.333V108.8V100.267V91.7335V83.2V74.6667V64H55.4697H64.003H72.5362H83.203H91.7362H96.003V123.733ZM108.803 115.616C108.803 116.793 107.847 117.749 106.67 117.749C105.492 117.749 104.536 116.793 104.536 115.616V111.349C104.536 110.172 105.492 109.216 106.67 109.216C107.847 109.216 108.803 110.172 108.803 111.349V115.616ZM108.803 102.816C108.803 103.993 107.847 104.949 106.67 104.949C105.492 104.949 104.536 103.993 104.536 102.816V98.5492C104.536 97.3717 105.492 96.416 106.67 96.416C107.847 96.416 108.803 97.3717 108.803 98.5492V102.816ZM108.803 90.016C108.803 91.1935 107.847 92.1492 106.67 92.1492C105.492 92.1492 104.536 91.1935 104.536 90.016V85.7493C104.536 84.5718 105.492 83.616 106.67 83.616C107.847 83.616 108.803 84.5718 108.803 85.7493V90.016ZM108.803 77.216C108.803 78.3935 107.847 79.3493 106.67 79.3493C105.492 79.3493 104.536 78.3935 104.536 77.216V72.9492C104.536 71.7718 105.492 70.816 106.67 70.816C107.847 70.816 108.803 71.7718 108.803 72.9492V77.216ZM108.803 64.416C108.803 65.5935 107.847 66.5492 106.67 66.5492C105.492 66.5492 104.536 65.5935 104.536 64.416V60.1493C104.536 58.9717 105.492 58.016 106.67 58.016C107.847 58.016 108.803 58.9717 108.803 60.1493V64.416ZM108.803 51.616C108.803 52.7935 107.847 53.7492 106.67 53.7492C105.492 53.7492 104.536 52.7935 104.536 51.616V47.3493C104.536 46.1717 105.492 45.216 106.67 45.216C107.847 45.216 108.803 46.1717 108.803 47.3493V51.616ZM108.803 38.816C108.803 39.9935 107.847 40.9492 106.67 40.9492C105.492 40.9492 104.536 39.9935 104.536 38.816V34.5493C104.536 33.3717 105.492 32.416 106.67 32.416C107.847 32.416 108.803 33.3717 108.803 34.5493V38.816ZM117.336 115.616C117.336 116.793 116.38 117.749 115.203 117.749C114.025 117.749 113.07 116.793 113.07 115.616V111.349C113.07 110.172 114.025 109.216 115.203 109.216C116.38 109.216 117.336 110.172 117.336 111.349V115.616ZM117.336 102.816C117.336 103.993 116.38 104.949 115.203 104.949C114.025 104.949 113.07 103.993 113.07 102.816V98.5492C113.07 97.3717 114.025 96.416 115.203 96.416C116.38 96.416 117.336 97.3717 117.336 98.5492V102.816ZM117.336 90.016C117.336 91.1935 116.38 92.1492 115.203 92.1492C114.025 92.1492 113.07 91.1935 113.07 90.016V85.7493C113.07 84.5718 114.025 83.616 115.203 83.616C116.38 83.616 117.336 84.5718 117.336 85.7493V90.016ZM117.336 77.216C117.336 78.3935 116.38 79.3493 115.203 79.3493C114.025 79.3493 113.07 78.3935 113.07 77.216V72.9492C113.07 71.7718 114.025 70.816 115.203 70.816C116.38 70.816 117.336 71.7718 117.336 72.9492V77.216ZM117.336 64.416C117.336 65.5935 116.38 66.5492 115.203 66.5492C114.025 66.5492 113.07 65.5935 113.07 64.416V60.1493C113.07 58.9717 114.025 58.016 115.203 58.016C116.38 58.016 117.336 58.9717 117.336 60.1493V64.416ZM117.336 51.616C117.336 52.7935 116.38 53.7492 115.203 53.7492C114.025 53.7492 113.07 52.7935 113.07 51.616V47.3493C113.07 46.1717 114.025 45.216 115.203 45.216C116.38 45.216 117.336 46.1717 117.336 47.3493V51.616ZM117.336 38.816C117.336 39.9935 116.38 40.9492 115.203 40.9492C114.025 40.9492 113.07 39.9935 113.07 38.816V34.5493C113.07 33.3717 114.025 32.416 115.203 32.416C116.38 32.416 117.336 33.3717 117.336 34.5493V38.816Z" fill="url(#paint6_linear_300_23662)"></path><defs><linearGradient id="paint0_linear_300_23662" x1="12.8051" y1="93.8672" x2="12.8051" y2="102.4" gradientUnits="userSpaceOnUse"><stop stop-color="#91D6FF"></stop><stop offset="1" stop-color="#2180EE"></stop></linearGradient><linearGradient id="paint1_linear_300_23662" x1="12.8051" y1="106.667" x2="12.8051" y2="115.2" gradientUnits="userSpaceOnUse"><stop stop-color="#91D6FF"></stop><stop offset="1" stop-color="#2180EE"></stop></linearGradient><linearGradient id="paint2_linear_300_23662" x1="12.8051" y1="81.0664" x2="12.8051" y2="89.5997" gradientUnits="userSpaceOnUse"><stop stop-color="#91D6FF"></stop><stop offset="1" stop-color="#2180EE"></stop></linearGradient><linearGradient id="paint3_linear_300_23662" x1="21.3364" y1="93.8672" x2="21.3364" y2="102.4" gradientUnits="userSpaceOnUse"><stop stop-color="#91D6FF"></stop><stop offset="1" stop-color="#2180EE"></stop></linearGradient><linearGradient id="paint4_linear_300_23662" x1="21.3364" y1="81.0674" x2="21.3364" y2="89.6006" gradientUnits="userSpaceOnUse"><stop stop-color="#91D6FF"></stop><stop offset="1" stop-color="#2180EE"></stop></linearGradient><linearGradient id="paint5_linear_300_23662" x1="21.3364" y1="106.667" x2="21.3364" y2="115.2" gradientUnits="userSpaceOnUse"><stop stop-color="#91D6FF"></stop><stop offset="1" stop-color="#2180EE"></stop></linearGradient><linearGradient id="paint6_linear_300_23662" x1="64.0033" y1="0" x2="64.0033" y2="128" gradientUnits="userSpaceOnUse"><stop stop-color="#91D6FF"></stop><stop offset="1" stop-color="#2180EE"></stop></linearGradient></defs></svg>