<svg xmlns="http://www.w3.org/2000/svg" width="54" height="48" viewBox="0 0 54 48" fill="none"><path d="M2.98016 0.433594H50.0006C51.4433 0.433594 52.6128 1.60315 52.6128 3.04584V44.8418C52.6128 46.2845 51.4433 47.454 50.0006 47.454H2.98016C1.53747 47.454 0.36792 46.2845 0.36792 44.8418V3.04584C0.36792 1.60315 1.53747 0.433594 2.98016 0.433594ZM38.1527 33.1794L47.3883 23.9438L38.1527 14.7081L34.4585 18.4024L39.9999 23.9438L34.4585 29.4852L38.1527 33.1794ZM12.981 23.9438L18.5224 18.4024L14.8281 14.7081L5.59241 23.9438L14.8281 33.1794L18.5224 29.4852L12.981 23.9438ZM24.5163 37.005L34.0241 10.8826H28.4644L18.9566 37.005H24.5163Z" fill="#2180EE"></path></svg>