<svg xmlns="http://www.w3.org/2000/svg" width="40" height="40" viewBox="0 0 40 40" fill="none"><g clip-path="url(#clip0_5002_73)"><path d="M16.7 39.8C7.2 38.1 0 29.9 0 20C0 9 9 0 20 0C31 0 40 9 40 20C40 29.9 32.8 38.1 23.3 39.8L22.2 38.9H17.8L16.7 39.8Z" fill="url(#paint0_linear_5002_73)"></path><path d="M27.7998 25.6008L28.6998 20.0008H23.3998V16.1008C23.3998 14.5008 23.9998 13.3008 26.3998 13.3008H28.9998V8.20078C27.5998 8.00078 25.9998 7.80078 24.5998 7.80078C19.9998 7.80078 16.7998 10.6008 16.7998 15.6008V20.0008H11.7998V25.6008H16.7998V39.7008C17.8998 39.9008 18.9998 40.0008 20.0998 40.0008C21.1998 40.0008 22.2998 39.9008 23.3998 39.7008V25.6008H27.7998Z" fill="white"></path></g><defs><linearGradient id="paint0_linear_5002_73" x1="20.001" y1="38.6089" x2="20.001" y2="-0.00736777" gradientUnits="userSpaceOnUse"><stop stop-color="#0062E0"></stop><stop offset="1" stop-color="#19AFFF"></stop></linearGradient><clipPath id="clip0_5002_73"><rect width="40" height="40" fill="white"></rect></clipPath></defs></svg>