<svg xmlns="http://www.w3.org/2000/svg" width="48" height="48" viewBox="0 0 48 48" fill="none"><g clip-path="url(#clip0_5002_1102)"><path d="M24 10.3125C26.8477 10.3125 29.1562 8.00397 29.1562 5.15625C29.1562 2.30853 26.8477 0 24 0C21.1523 0 18.8438 2.30853 18.8438 5.15625C18.8438 8.00397 21.1523 10.3125 24 10.3125Z" fill="#2180EE"></path><path d="M14.7275 38.9023C13.272 40.4605 11.2016 41.4373 8.90625 41.4373C6.61088 41.4373 4.5405 40.4605 3.08503 38.9023C1.22447 40.1686 0 42.3031 0 44.7185V46.5935C0 47.3701 0.629625 47.9998 1.40625 47.9998H16.4062C17.1829 47.9998 17.8125 47.3701 17.8125 46.5935V44.7185C17.8125 42.3031 16.588 40.1686 14.7275 38.9023Z" fill="#2180EE"></path><path d="M44.915 38.9023C43.4595 40.4605 41.3891 41.4373 39.0938 41.4373C36.7984 41.4373 34.728 40.4605 33.2725 38.9023C31.412 40.1686 30.1875 42.3031 30.1875 44.7185V46.5935C30.1875 47.3701 30.8171 47.9998 31.5938 47.9998H46.5938C47.3704 47.9998 48 47.3701 48 46.5935V44.7185C48 42.3031 46.7755 40.1686 44.915 38.9023Z" fill="#2180EE"></path><path d="M34.0052 34.2982C34.4032 36.7482 36.5331 38.6248 39.0938 38.6248C41.9369 38.6248 44.25 36.3117 44.25 33.4685C44.25 30.6253 41.9369 28.3123 39.0938 28.3123C36.9632 28.3123 35.1303 29.6113 34.3454 31.4589L28.2146 29.5549C28.147 27.7928 26.994 26.3048 25.4062 25.7416V19.6873H31.5C32.2766 19.6873 32.9062 19.0576 32.9062 18.281V16.406C32.9062 13.9906 31.6818 11.8561 29.8212 10.5898C28.3657 12.148 26.2954 13.1248 24 13.1248C21.7046 13.1248 19.6342 12.148 18.1788 10.5898C16.3182 11.8561 15.0938 13.9906 15.0938 16.406V18.281C15.0938 19.0576 15.7234 19.6873 16.5 19.6873H22.5938V25.7416C21.006 26.3048 19.8531 27.7927 19.7854 29.5549L13.6546 31.4589C12.8697 29.6113 11.0368 28.3123 8.90625 28.3123C6.06309 28.3123 3.75 30.6253 3.75 33.4685C3.75 36.3117 6.06309 38.6248 8.90625 38.6248C11.4669 38.6248 13.5968 36.7482 13.9948 34.2982L20.6201 32.2407C21.3901 33.2698 22.6186 33.9373 24 33.9373C25.3814 33.9373 26.6099 33.2698 27.3799 32.2406L34.0052 34.2982Z" fill="#2180EE"></path></g><defs><clipPath id="clip0_5002_1102"><rect width="48" height="48" fill="white"></rect></clipPath></defs></svg>