<svg xmlns="http://www.w3.org/2000/svg" width="41" height="40" viewBox="0 0 41 40" fill="none"><g clip-path="url(#clip0_5002_76)"><path d="M20.3393 0C11.9901 0 9.54792 0.00859375 9.07292 0.0476563C7.35964 0.190625 6.29323 0.460156 5.13152 1.03906C4.2362 1.48359 3.52995 1.99922 2.83386 2.72187C1.56433 4.03906 0.795578 5.66016 0.517453 7.58672C0.382297 8.52188 0.342453 8.71328 0.334641 13.4914C0.331516 15.0844 0.334641 17.1805 0.334641 19.9922C0.334641 28.3375 0.344016 30.7773 0.38386 31.2516C0.522141 32.9195 0.78386 33.9688 1.33777 35.1164C2.39636 37.3133 4.41745 38.9625 6.79792 39.5781C7.62214 39.7906 8.53308 39.907 9.70183 39.9625C10.1971 39.9844 15.2456 39.9992 20.2971 39.9992C25.3487 39.9992 30.3995 39.993 30.8831 39.9688C32.237 39.9047 33.0229 39.7992 33.8917 39.575C36.2878 38.9562 38.2721 37.332 39.3518 35.1039C39.8948 33.9836 40.1698 32.8945 40.2948 31.3141C40.3221 30.9695 40.3331 25.4742 40.3331 19.9867C40.3331 14.4984 40.3206 9.01328 40.294 8.66875C40.1682 7.0625 39.8925 5.98203 39.3323 4.84062C38.8721 3.90625 38.362 3.20781 37.6206 2.49453C36.2971 1.23047 34.6792 0.460938 32.751 0.182812C31.8159 0.0484375 31.63 0.00859375 26.8495 0H20.3393Z" fill="url(#paint0_radial_5002_76)"></path><path d="M20.3393 0C11.9901 0 9.54792 0.00859375 9.07292 0.0476563C7.35964 0.190625 6.29323 0.460156 5.13152 1.03906C4.2362 1.48359 3.52995 1.99922 2.83386 2.72187C1.56433 4.03906 0.795578 5.66016 0.517453 7.58672C0.382297 8.52188 0.342453 8.71328 0.334641 13.4914C0.331516 15.0844 0.334641 17.1805 0.334641 19.9922C0.334641 28.3375 0.344016 30.7773 0.38386 31.2516C0.522141 32.9195 0.78386 33.9688 1.33777 35.1164C2.39636 37.3133 4.41745 38.9625 6.79792 39.5781C7.62214 39.7906 8.53308 39.907 9.70183 39.9625C10.1971 39.9844 15.2456 39.9992 20.2971 39.9992C25.3487 39.9992 30.3995 39.993 30.8831 39.9688C32.237 39.9047 33.0229 39.7992 33.8917 39.575C36.2878 38.9562 38.2721 37.332 39.3518 35.1039C39.8948 33.9836 40.1698 32.8945 40.2948 31.3141C40.3221 30.9695 40.3331 25.4742 40.3331 19.9867C40.3331 14.4984 40.3206 9.01328 40.294 8.66875C40.1682 7.0625 39.8925 5.98203 39.3323 4.84062C38.8721 3.90625 38.362 3.20781 37.6206 2.49453C36.2971 1.23047 34.6792 0.460938 32.751 0.182812C31.8159 0.0484375 31.63 0.00859375 26.8495 0H20.3393Z" fill="url(#paint1_radial_5002_76)"></path><path d="M20.3393 0C11.9901 0 9.54792 0.00859375 9.07292 0.0476563C7.35964 0.190625 6.29323 0.460156 5.13152 1.03906C4.2362 1.48359 3.52995 1.99922 2.83386 2.72187C1.56433 4.03906 0.795578 5.66016 0.517453 7.58672C0.382297 8.52188 0.342453 8.71328 0.334641 13.4914C0.331516 15.0844 0.334641 17.1805 0.334641 19.9922C0.334641 28.3375 0.344016 30.7773 0.38386 31.2516C0.522141 32.9195 0.78386 33.9688 1.33777 35.1164C2.39636 37.3133 4.41745 38.9625 6.79792 39.5781C7.62214 39.7906 8.53308 39.907 9.70183 39.9625C10.1971 39.9844 15.2456 39.9992 20.2971 39.9992C25.3487 39.9992 30.3995 39.993 30.8831 39.9688C32.237 39.9047 33.0229 39.7992 33.8917 39.575C36.2878 38.9562 38.2721 37.332 39.3518 35.1039C39.8948 33.9836 40.1698 32.8945 40.2948 31.3141C40.3221 30.9695 40.3331 25.4742 40.3331 19.9867C40.3331 14.4984 40.3206 9.01328 40.294 8.66875C40.1682 7.0625 39.8925 5.98203 39.3323 4.84062C38.8721 3.90625 38.362 3.20781 37.6206 2.49453C36.2971 1.23047 34.6792 0.460938 32.751 0.182812C31.8159 0.0484375 31.63 0.00859375 26.8495 0H20.3393Z" fill="url(#paint2_radial_5002_76)"></path><path d="M20.3393 0C11.9901 0 9.54792 0.00859375 9.07292 0.0476563C7.35964 0.190625 6.29323 0.460156 5.13152 1.03906C4.2362 1.48359 3.52995 1.99922 2.83386 2.72187C1.56433 4.03906 0.795578 5.66016 0.517453 7.58672C0.382297 8.52188 0.342453 8.71328 0.334641 13.4914C0.331516 15.0844 0.334641 17.1805 0.334641 19.9922C0.334641 28.3375 0.344016 30.7773 0.38386 31.2516C0.522141 32.9195 0.78386 33.9688 1.33777 35.1164C2.39636 37.3133 4.41745 38.9625 6.79792 39.5781C7.62214 39.7906 8.53308 39.907 9.70183 39.9625C10.1971 39.9844 15.2456 39.9992 20.2971 39.9992C25.3487 39.9992 30.3995 39.993 30.8831 39.9688C32.237 39.9047 33.0229 39.7992 33.8917 39.575C36.2878 38.9562 38.2721 37.332 39.3518 35.1039C39.8948 33.9836 40.1698 32.8945 40.2948 31.3141C40.3221 30.9695 40.3331 25.4742 40.3331 19.9867C40.3331 14.4984 40.3206 9.01328 40.294 8.66875C40.1682 7.0625 39.8925 5.98203 39.3323 4.84062C38.8721 3.90625 38.362 3.20781 37.6206 2.49453C36.2971 1.23047 34.6792 0.460938 32.751 0.182812C31.8159 0.0484375 31.63 0.00859375 26.8495 0H20.3393Z" fill="url(#paint3_radial_5002_76)"></path><path d="M20.5241 7.58105C17.3534 7.58105 16.9554 7.59516 15.7104 7.65158C14.4673 7.70862 13.6191 7.90487 12.877 8.19373C12.1091 8.49179 11.4578 8.89043 10.809 9.53869C10.1595 10.1869 9.76084 10.8383 9.46156 11.6049C9.17208 12.347 8.97521 13.1951 8.91941 14.4364C8.8636 15.6808 8.84888 16.0788 8.84888 19.2471C8.84888 22.4154 8.86298 22.8122 8.91941 24.0565C8.97644 25.2985 9.17331 26.146 9.46156 26.8881C9.76023 27.6553 10.1589 28.3061 10.8083 28.9549C11.4572 29.6038 12.1085 30.0036 12.8758 30.3017C13.6185 30.59 14.4673 30.7868 15.7098 30.8439C16.9554 30.9003 17.3528 30.9144 20.5235 30.9144C23.6942 30.9144 24.091 30.9003 25.3366 30.8439C26.5798 30.7868 27.4292 30.5906 28.1719 30.3017C28.9397 30.0036 29.5898 29.6044 30.2387 28.9555C30.8882 28.3073 31.2868 27.656 31.5861 26.8893C31.8731 26.1473 32.07 25.2991 32.1282 24.0578C32.184 22.8134 32.1988 22.4166 32.1988 19.2483C32.1988 16.0801 32.184 15.682 32.1282 14.4377C32.07 13.1957 31.8731 12.3482 31.5861 11.6061C31.2868 10.8389 30.8882 10.1882 30.2387 9.5393C29.5892 8.89043 28.9397 8.49179 28.1713 8.19373C27.4267 7.90549 26.5779 7.70862 25.3354 7.65158C24.0898 7.59516 23.6936 7.58105 20.5217 7.58105H20.5241ZM19.4772 9.68342C19.7882 9.68281 20.1347 9.68342 20.5247 9.68342C23.6421 9.68342 24.0113 9.69446 25.2422 9.75027C26.3805 9.8024 26.998 9.99252 27.4096 10.152C27.9542 10.3636 28.343 10.6162 28.7514 11.0247C29.1599 11.4331 29.4132 11.822 29.6254 12.3666C29.7855 12.7775 29.9756 13.3945 30.0277 14.5321C30.0835 15.7618 30.0958 16.1316 30.0958 19.2447C30.0958 22.3583 30.0835 22.7275 30.0277 23.9572C29.9756 25.0949 29.7855 25.7118 29.6254 26.1227C29.4138 26.6673 29.1605 27.0549 28.7514 27.4628C28.343 27.8712 27.9548 28.1239 27.4096 28.3355C26.9987 28.4962 26.3805 28.6857 25.2422 28.7372C24.0113 28.793 23.6415 28.8053 20.5247 28.8053C17.4074 28.8053 17.0376 28.793 15.8073 28.7372C14.669 28.6845 14.0514 28.4949 13.6393 28.3349C13.0947 28.1233 12.7053 27.8706 12.2968 27.4622C11.8884 27.0537 11.6351 26.6661 11.4229 26.1215C11.2628 25.7106 11.0727 25.0936 11.0205 23.956C10.9647 22.7263 10.9537 22.3565 10.9537 19.2416C10.9537 16.1261 10.9647 15.7587 11.0205 14.529C11.0727 13.3914 11.2628 12.7744 11.4229 12.3629C11.6345 11.8183 11.8877 11.4295 12.2968 11.021C12.7053 10.6126 13.0947 10.3599 13.6393 10.1477C14.0508 9.987 14.669 9.79749 15.8073 9.74536C16.8842 9.69691 17.3019 9.6822 19.4779 9.67974L19.4772 9.68342ZM26.7564 11.6208C25.983 11.6208 25.3556 12.247 25.3556 13.0203C25.3556 13.7931 25.983 14.4205 26.7564 14.4205C27.5298 14.4205 28.1572 13.7937 28.1572 13.0203C28.1572 12.247 27.5298 11.6202 26.7564 11.6208ZM20.5241 13.2565C17.213 13.2565 14.5286 15.939 14.5286 19.2477C14.5286 22.5564 17.213 25.2378 20.5241 25.2378C23.8353 25.2378 26.5184 22.5564 26.5184 19.2477C26.5184 15.939 23.8353 13.2565 20.5241 13.2565ZM20.5241 15.3588C22.6731 15.3588 24.4161 17.1 24.4161 19.2477C24.4161 21.3955 22.6737 23.1366 20.5241 23.1366C18.3745 23.1366 16.6322 21.3955 16.6322 19.2477C16.6328 17.0994 18.3752 15.3588 20.5241 15.3588Z" fill="white"></path></g><defs><radialGradient id="paint0_radial_5002_76" cx="0" cy="0" r="1" gradientUnits="userSpaceOnUse" gradientTransform="translate(39.0418 18.7487) rotate(164.251) scale(25.5578 18.4132)"><stop stop-color="#FF005F"></stop><stop offset="1" stop-color="#FC01D8"></stop></radialGradient><radialGradient id="paint1_radial_5002_76" cx="0" cy="0" r="1" gradientUnits="userSpaceOnUse" gradientTransform="translate(10.9578 43.0809) rotate(-90) scale(31.9288 33.8759)"><stop stop-color="#FFCC00"></stop><stop offset="0.1242" stop-color="#FFCC00"></stop><stop offset="0.5672" stop-color="#FE4A05"></stop><stop offset="0.6942" stop-color="#FF0F3F"></stop><stop offset="1" stop-color="#FE0657" stop-opacity="0"></stop></radialGradient><radialGradient id="paint2_radial_5002_76" cx="0" cy="0" r="1" gradientUnits="userSpaceOnUse" gradientTransform="translate(21.3435 39.4358) rotate(-59.8697) scale(13.2028 17.1887)"><stop stop-color="#FFCC00"></stop><stop offset="1" stop-color="#FFCC00" stop-opacity="0"></stop></radialGradient><radialGradient id="paint3_radial_5002_76" cx="0" cy="0" r="1" gradientUnits="userSpaceOnUse" gradientTransform="translate(5.76032 1.6301) rotate(164.274) scale(25.2742 8.61097)"><stop stop-color="#780CFF"></stop><stop offset="1" stop-color="#820BFF" stop-opacity="0"></stop></radialGradient><clipPath id="clip0_5002_76"><rect x="0.33313" width="40" height="40" rx="20" fill="white"></rect></clipPath></defs></svg>