<svg xmlns="http://www.w3.org/2000/svg" width="44" height="48" viewBox="0 0 44 48" fill="none"><g clip-path="url(#clip0_5002_636)"><path d="M19.2421 18.3854C17.5859 16.0195 16.9613 14.3023 16.8257 13.0528C16.6977 11.8725 16.9859 10.9375 17.5577 10.035C18.1752 9.06005 19.1018 8.15335 20.2809 7.0833C21.3827 6.08315 22.7614 4.89485 23.8431 3.54867L20.4415 0.81543C19.5343 1.94447 18.4174 2.88157 17.348 3.85216C16.1828 4.90979 14.8413 6.16879 13.8714 7.69986C12.8556 9.30334 12.2371 11.2147 12.4875 13.5234C12.7305 15.7628 13.7697 18.1772 15.6673 20.8878L19.2421 18.3854ZM21.9689 11.7747C22.5903 10.2834 23.8501 8.78763 25.8528 7.07095L28.6927 10.3841C26.8772 11.9401 26.2279 12.8989 25.997 13.453C25.7699 13.9978 25.9204 14.5419 26.0732 15.0835C26.2553 15.7291 26.5588 16.8052 26.5394 17.9684C26.5139 19.5074 25.9863 21.1359 24.7246 23.0286L21.0936 20.6082C22.0137 19.2282 22.1679 18.4021 22.1764 17.8957C22.1871 17.2518 22.0191 16.8906 21.7471 15.8021C21.4861 14.7586 21.2887 13.4076 21.9689 11.7747ZM9.0372 21.818C10.061 21.1328 11.3273 20.7843 12.5103 20.4997L11.4897 16.2571C9.71594 16.6838 8.10482 17.2623 6.88174 18.0172C5.7689 18.704 4.36364 19.9329 4.36364 21.8182C4.36364 23.4028 5.42339 24.6678 6.68834 25.4963C6.59566 25.8955 6.54545 26.312 6.54545 26.744C6.54545 28.8831 7.45756 30.6866 9.0387 32.0262C8.80652 32.6788 8.70133 33.408 8.7345 34.138C7.03826 34.4668 5.3825 34.9514 4.00004 35.585C3.05644 36.0174 2.12747 36.5701 1.403 37.2818C0.673658 37.9981 0 39.0357 0 40.3638C0 41.2955 0.411557 42.0475 0.815607 42.5659C1.22806 43.0952 1.75833 43.5462 2.3086 43.9285C3.413 44.6956 4.89249 45.3881 6.58189 45.9715C9.9819 47.1458 14.5873 48.0002 19.6364 48.0002C26.8959 48.0002 31.9913 47.1626 35.3234 46.2933C36.9892 45.8587 38.2117 45.4169 39.0415 45.0696C39.4988 44.8782 39.958 44.6749 40.3859 44.4222C40.4092 44.4083 38.1419 40.6797 38.1521 40.6736C36.9199 41.3153 35.5599 41.7218 34.222 42.0709C31.2814 42.838 26.5586 43.6365 19.6364 43.6365C15.0455 43.6365 10.9237 42.8546 8.0064 41.847C6.84744 41.4469 5.63337 40.9787 4.64496 40.234C4.8967 40.0348 5.27937 39.7987 5.81815 39.5517C7.03553 38.9939 8.70454 38.5361 10.486 38.2619C10.9858 38.792 11.5827 39.2598 12.2643 39.6576C14.3703 40.8861 17.264 41.4547 20.7273 41.4547C23.5855 41.4547 25.6534 41.1672 27.0506 40.8576C27.826 40.6858 28.6073 40.4919 29.3241 40.1411C29.3311 40.1378 27.4012 36.224 27.4012 36.224C26.9784 36.3787 26.5468 36.4998 26.107 36.5973C25.0418 36.8332 23.2916 37.0911 20.7273 37.0911C17.645 37.0911 15.6297 36.5688 14.463 35.8883C13.5349 35.3469 13.1784 34.7465 13.1056 34.0922C14.9992 34.6437 17.2415 34.9093 19.7727 34.9093C22.966 34.9093 25.2687 34.5962 26.8163 34.2619C27.6578 34.0802 28.5085 33.8709 29.292 33.5055C29.3363 33.4843 27.4207 29.5634 27.4207 29.5634C27.3011 29.6123 26.8128 29.7984 25.8951 29.9965C24.6724 30.2607 22.6798 30.5456 19.7727 30.5456C16.2749 30.5456 13.9442 29.9688 12.5673 29.1857C11.5397 28.6012 11.0886 27.9469 10.9545 27.2445C13.6592 27.9569 17.0725 28.3636 20.7273 28.3636C24.691 28.3636 28.3671 27.8851 31.1633 27.0595L29.9276 22.8746C27.6275 23.5538 24.3844 24 20.7273 24C16.9664 24 13.6473 23.528 11.3409 22.8185C10.2521 22.4834 9.49558 22.1275 9.0372 21.818ZM34.0156 23.4453C36.6609 23.2049 37.6357 23.8562 37.9503 24.1933C38.2756 24.5419 38.3895 25.0824 38.2471 25.6525C37.9935 26.6661 37.2812 27.6491 36.1237 28.5521C34.9704 29.4521 33.5047 30.1673 32.0376 30.656L33.4169 34.796C35.2226 34.1943 37.166 33.2738 38.808 31.9924C40.4461 30.7143 41.9156 28.9704 42.4802 26.7109C42.883 25.0996 42.7241 22.9128 41.1406 21.2159C39.5459 19.5074 36.9755 18.7947 33.6207 19.0997L34.0156 23.4453Z" fill="#2180EE"></path></g><defs><clipPath id="clip0_5002_636"><rect width="43.6364" height="48" fill="white"></rect></clipPath></defs></svg>