<svg xmlns="http://www.w3.org/2000/svg" width="128" height="128" viewBox="0 0 128 128" fill="none"><path d="M96.3333 60.1211C84.5418 60.1211 75 69.6629 75 81.4544C75 93.2459 84.5418 102.788 96.3333 102.788C108.105 102.788 117.667 93.2459 117.667 81.4544C117.667 69.6629 108.105 60.1211 96.3333 60.1211ZM96.3333 79.515C100.406 79.515 103.703 82.812 103.703 86.8847C103.703 90.2787 101.395 93.1102 98.2727 93.9635V95.0302C98.2727 96.0969 97.4 96.9696 96.3333 96.9696C95.2667 96.9696 94.3939 96.0969 94.3939 95.0302V93.9635C91.2715 93.1102 88.9636 90.2787 88.9636 86.8847C88.9636 85.8181 89.8364 84.9453 90.903 84.9453C91.9697 84.9453 92.8424 85.8181 92.8424 86.8847C92.8424 88.8047 94.4133 90.3756 96.3333 90.3756C98.2533 90.3756 99.8242 88.8047 99.8242 86.8847C99.8242 84.9647 98.2533 83.3938 96.3333 83.3938C92.2606 83.3938 88.9636 80.0969 88.9636 76.0241C88.9636 72.6302 91.2715 69.7987 94.3939 68.9453V67.8787C94.3939 66.812 95.2667 65.9393 96.3333 65.9393C97.4 65.9393 98.2727 66.812 98.2727 67.8787V68.9453C101.395 69.7987 103.703 72.6302 103.703 76.0241C103.703 77.0908 102.83 77.9635 101.764 77.9635C100.697 77.9635 99.8242 77.0908 99.8242 76.0241C99.8242 74.1041 98.2533 72.5332 96.3333 72.5332C94.4133 72.5332 92.8424 74.1041 92.8424 76.0241C92.8424 77.9441 94.4133 79.515 96.3333 79.515Z" fill="url(#paint0_linear_300_23677)"></path><path d="M92.4549 106.337V108.606C92.4549 112.892 88.9834 116.364 84.6973 116.364H22.6367V120.242C22.6367 122.376 24.3822 124.121 26.5155 124.121H96.3337C98.467 124.121 100.212 122.376 100.212 120.242V106.337C98.9519 106.531 97.6525 106.667 96.3337 106.667C95.0149 106.667 93.7155 106.531 92.4549 106.337Z" fill="url(#paint1_linear_300_23677)"></path><path d="M100.213 56.5726V19.3944C100.213 17.2611 98.4672 15.5156 96.3339 15.5156H92.4551V56.5726C93.7157 56.3787 95.0151 56.2429 96.3339 56.2429C97.6527 56.2429 98.952 56.3787 100.213 56.5726Z" fill="url(#paint2_linear_300_23677)"></path><path d="M25.1378 28.5282C25.5257 28.9161 26.0105 29.0906 26.5148 29.0906C27.019 29.0906 27.5039 28.8967 27.8917 28.5282L33.7099 22.71C34.4663 21.9537 34.4663 20.7318 33.7099 19.9755C32.9536 19.2191 31.7317 19.2191 30.9754 19.9755L26.5342 24.4167L25.9717 23.8543C25.2154 23.0979 23.9936 23.0979 23.2372 23.8543C22.4808 24.6106 22.4808 25.8324 23.2372 26.5888L25.1378 28.5282Z" fill="url(#paint3_linear_300_23677)"></path><path d="M25.1378 57.62C25.5257 58.0079 26.0105 58.1824 26.5148 58.1824C27.019 58.1824 27.5039 57.9885 27.8917 57.62L33.7099 51.8018C34.4663 51.0455 34.4663 49.8236 33.7099 49.0673C32.9536 48.3109 31.7317 48.3109 30.9754 49.0673L26.5342 53.5085L25.9717 52.9461C25.2154 52.1897 23.9936 52.1897 23.2372 52.9461C22.4808 53.7024 22.4808 54.9242 23.2372 55.6806L25.1378 57.62Z" fill="url(#paint4_linear_300_23677)"></path><path d="M25.1378 86.7108C25.5257 87.0987 26.0105 87.2732 26.5148 87.2732C27.019 87.2732 27.5039 87.0793 27.8917 86.7108L33.7099 80.8926C34.4663 80.1363 34.4663 78.9145 33.7099 78.1581C32.9536 77.4017 31.7317 77.4017 30.9754 78.1581L26.5342 82.5993L25.9717 82.0369C25.2154 81.2805 23.9936 81.2805 23.2372 82.0369C22.4808 82.7932 22.4808 84.0151 23.2372 84.7714L25.1378 86.7108Z" fill="url(#paint5_linear_300_23677)"></path><path d="M88.5758 108.606V105.426C78.4521 102.148 71.1212 92.645 71.1212 81.4547C71.1212 70.2644 78.4521 60.7613 88.5758 57.4838V7.75769C88.5758 5.62436 86.8303 3.87891 84.697 3.87891H14.8788C12.7455 3.87891 11 5.62436 11 7.75769V108.606C11 110.74 12.7455 112.485 14.8788 112.485H84.697C86.8303 112.485 88.5758 110.74 88.5758 108.606ZM45.9091 23.2728H80.8182C81.8848 23.2728 82.7576 24.1456 82.7576 25.2122C82.7576 26.2789 81.8848 27.1516 80.8182 27.1516H45.9091C44.8424 27.1516 43.9697 26.2789 43.9697 25.2122C43.9697 24.1456 44.8424 23.2728 45.9091 23.2728ZM45.9091 31.0304H69.1818C70.2485 31.0304 71.1212 31.9031 71.1212 32.9698C71.1212 34.0365 70.2485 34.9092 69.1818 34.9092H45.9091C44.8424 34.9092 43.9697 34.0365 43.9697 32.9698C43.9697 31.9031 44.8424 31.0304 45.9091 31.0304ZM45.9091 52.3638H80.8182C81.8848 52.3638 82.7576 53.2365 82.7576 54.3032C82.7576 55.3698 81.8848 56.2425 80.8182 56.2425H45.9091C44.8424 56.2425 43.9697 55.3698 43.9697 54.3032C43.9697 53.2365 44.8424 52.3638 45.9091 52.3638ZM38.1515 93.091H18.7576V73.6971H38.1515V93.091ZM38.1515 64.0001H18.7576V44.6062H38.1515V64.0001ZM38.1515 34.9092H18.7576V15.5153H38.1515V34.9092ZM59.4848 93.091H45.9091C44.8424 93.091 43.9697 92.2183 43.9697 91.1516C43.9697 90.085 44.8424 89.2122 45.9091 89.2122H59.4848C60.5515 89.2122 61.4242 90.085 61.4242 91.1516C61.4242 92.2183 60.5515 93.091 59.4848 93.091ZM65.303 85.3335H45.9091C44.8424 85.3335 43.9697 84.4607 43.9697 83.3941C43.9697 82.3274 44.8424 81.4547 45.9091 81.4547H65.303C66.3697 81.4547 67.2424 82.3274 67.2424 83.3941C67.2424 84.4607 66.3697 85.3335 65.303 85.3335ZM69.1818 64.0001H45.9091C44.8424 64.0001 43.9697 63.1274 43.9697 62.0607C43.9697 60.9941 44.8424 60.1213 45.9091 60.1213H69.1818C70.2485 60.1213 71.1212 60.9941 71.1212 62.0607C71.1212 63.1274 70.2485 64.0001 69.1818 64.0001Z" fill="url(#paint6_linear_300_23677)"></path><defs><linearGradient id="paint0_linear_300_23677" x1="96.3333" y1="60.1211" x2="96.3333" y2="102.788" gradientUnits="userSpaceOnUse"><stop stop-color="#91D6FF"></stop><stop offset="1" stop-color="#2180EE"></stop></linearGradient><linearGradient id="paint1_linear_300_23677" x1="61.4246" y1="106.337" x2="61.4246" y2="124.121" gradientUnits="userSpaceOnUse"><stop stop-color="#91D6FF"></stop><stop offset="1" stop-color="#2180EE"></stop></linearGradient><linearGradient id="paint2_linear_300_23677" x1="96.3339" y1="15.5156" x2="96.3339" y2="56.5726" gradientUnits="userSpaceOnUse"><stop stop-color="#91D6FF"></stop><stop offset="1" stop-color="#2180EE"></stop></linearGradient><linearGradient id="paint3_linear_300_23677" x1="28.4736" y1="19.4082" x2="28.4736" y2="29.0906" gradientUnits="userSpaceOnUse"><stop stop-color="#91D6FF"></stop><stop offset="1" stop-color="#2180EE"></stop></linearGradient><linearGradient id="paint4_linear_300_23677" x1="28.4736" y1="48.5" x2="28.4736" y2="58.1824" gradientUnits="userSpaceOnUse"><stop stop-color="#91D6FF"></stop><stop offset="1" stop-color="#2180EE"></stop></linearGradient><linearGradient id="paint5_linear_300_23677" x1="28.4736" y1="77.5908" x2="28.4736" y2="87.2732" gradientUnits="userSpaceOnUse"><stop stop-color="#91D6FF"></stop><stop offset="1" stop-color="#2180EE"></stop></linearGradient><linearGradient id="paint6_linear_300_23677" x1="49.7879" y1="3.87891" x2="49.7879" y2="112.485" gradientUnits="userSpaceOnUse"><stop stop-color="#91D6FF"></stop><stop offset="1" stop-color="#2180EE"></stop></linearGradient></defs></svg>