<svg xmlns="http://www.w3.org/2000/svg" width="14" height="24" viewBox="0 0 14 24" fill="none"><g clip-path="url(#clip0_5002_98)"><path d="M6.0563 20.6368C0.948164 13.2316 0 12.4715 0 9.75C0 6.02207 3.02207 3 6.75 3C10.4779 3 13.5 6.02207 13.5 9.75C13.5 12.4715 12.5518 13.2316 7.4437 20.6368C7.10849 21.1211 6.39148 21.121 6.0563 20.6368ZM6.75 12.5625C8.30331 12.5625 9.5625 11.3033 9.5625 9.75C9.5625 8.19669 8.30331 6.9375 6.75 6.9375C5.19669 6.9375 3.9375 8.19669 3.9375 9.75C3.9375 11.3033 5.19669 12.5625 6.75 12.5625Z" fill="white"></path></g><defs><clipPath id="clip0_5002_98"><rect width="13.5" height="24" fill="white"></rect></clipPath></defs></svg>