<svg xmlns="http://www.w3.org/2000/svg" width="77" height="48" viewBox="0 0 77 48" fill="none"><path d="M22.839 0.698062C13.9635 0.506062 0.400607 10.3953 0.431327 22.7755C0.456927 32.4241 4.25341 44.5201 21.4412 47.7662C21.4412 47.7662 54.6649 47.5153 54.9005 47.4872C66.1491 46.1048 74.3693 34.5336 74.7046 23.9198C75.0451 13.0961 65.5091 2.07022 53.6716 0.792782L22.8416 0.700621L22.839 0.698062ZM22.6624 8.87726H52.2893C61.0137 10.0958 66.0672 17.2587 66.0083 24.099C65.9469 31.0622 60.8601 38.5041 52.2893 39.4104C52.1101 39.4283 23.0361 39.4104 23.0361 39.4104C11.3779 37.0168 9.50141 29.5518 9.41693 23.3489C9.31453 15.6689 18.1593 9.06926 22.6624 8.87726Z" fill="#2180EE"></path></svg>