<svg xmlns="http://www.w3.org/2000/svg" width="44" height="32" viewBox="0 0 44 32" fill="none"><path d="M9.70339 32C6.78448 32 4.4178 30.9841 2.60335 28.9524C0.867783 26.8425 0 24.1074 0 20.7473C0 16.3712 1.30167 12.3077 3.90502 8.55677C6.50837 4.72771 9.74283 1.87546 13.6084 0L14.3184 1.40659C12.6617 2.6569 11.2023 4.25885 9.94006 6.21245C8.67783 8.16605 7.7706 10.5885 7.21837 13.4798L9.70339 14.0659C12.4645 14.6911 14.5945 15.8632 16.0934 17.5824C17.6712 19.2234 18.4601 21.2161 18.4601 23.5604C18.4601 26.061 17.5923 28.0928 15.8568 29.6557C14.2001 31.2186 12.149 32 9.70339 32ZM34.6719 32C31.753 32 29.3863 30.9841 27.5718 28.9524C25.8363 26.8425 24.9685 24.1074 24.9685 20.7473C24.9685 16.3712 26.2701 12.3077 28.8735 8.55677C31.4768 4.72771 34.7113 1.87546 38.5769 0L39.2869 1.40659C37.6302 2.6569 36.1708 4.25885 34.9085 6.21245C33.6463 8.16605 32.7391 10.5885 32.1868 13.4798L34.6719 14.0659C37.433 14.6911 39.563 15.8632 41.0619 17.5824C42.6397 19.2234 43.4286 21.2161 43.4286 23.5604C43.4286 26.061 42.5608 28.0928 40.8252 29.6557C39.1685 31.2186 37.1174 32 34.6719 32Z" fill="#2180EE"></path></svg>