<svg xmlns="http://www.w3.org/2000/svg" width="40" height="40" viewBox="0 0 40 40" fill="none"><rect x="-0.000244141" width="40" height="40" rx="20" fill="black"></rect><path d="M18.2049 17.6657V16.7767C17.875 16.733 17.5427 16.7105 17.21 16.7091C13.1404 16.7091 9.82886 19.8082 9.82886 23.6175C9.82886 25.9539 11.0769 28.0227 12.9801 29.2732C11.7057 27.9976 10.9967 26.3164 10.9979 24.57C10.9979 20.8151 14.2149 17.7531 18.2049 17.6657Z" fill="#00F2EA"></path><path d="M18.4006 27.4783C20.1212 27.4783 21.5242 26.1184 21.5883 24.4228L21.5942 9.29087H24.3763C24.3167 8.97505 24.2865 8.6544 24.2859 8.33301H20.4868L20.4802 23.4656C20.4168 25.1599 19.0126 26.5198 17.2925 26.5198C16.7765 26.5199 16.2681 26.3946 15.8112 26.1549C16.1073 26.5646 16.4964 26.8982 16.9466 27.1283C17.3967 27.3583 17.895 27.4783 18.4006 27.4783ZM29.5718 14.4272V13.586C28.5505 13.5871 27.5508 13.2918 26.6941 12.7358C27.446 13.5953 28.4551 14.1886 29.5718 14.4272Z" fill="#00F2EA"></path><path d="M26.581 12.9506C25.7456 12.0068 25.2842 10.79 25.2839 9.52959H24.2686C24.4015 10.227 24.675 10.89 25.0726 11.4782C25.4702 12.0663 25.9834 12.5673 26.581 12.9506ZM17.2028 20.3377C15.4438 20.3401 14.0187 21.7503 14.0169 23.4907C14.0187 24.0677 14.1789 24.633 14.48 25.1252C14.7811 25.6174 15.2116 26.0174 15.7244 26.2817C15.3331 25.7486 15.1218 25.1045 15.1213 24.4432C15.1231 22.7022 16.5483 21.2914 18.3072 21.2896C18.6363 21.2896 18.9504 21.3434 19.2477 21.4356V17.6065C18.9361 17.5627 18.6219 17.5399 18.3072 17.5383C18.2522 17.5383 18.1977 17.5419 18.1433 17.5425V20.4837C17.839 20.3879 17.5219 20.3386 17.2028 20.3377Z" fill="#FF004F"></path><path d="M29.0657 14.9142V17.8363C27.1758 17.8391 25.3322 17.2511 23.793 16.1545V23.7928C23.793 27.6081 20.6639 30.7121 16.8181 30.7121C15.3313 30.7121 13.9529 30.2466 12.8203 29.4574C13.4741 30.1555 14.2644 30.7117 15.1421 31.0917C16.0197 31.4716 16.9661 31.6672 17.9225 31.6663C21.7689 31.6663 24.898 28.5624 24.898 24.7477V17.1087C26.4373 18.2051 28.2809 18.7929 30.1707 18.7899V15.0309C29.7993 15.0308 29.4289 14.9917 29.0657 14.9142Z" fill="#FF004F"></path><path d="M24.1753 23.5416V15.8906C25.7593 16.9917 27.6433 17.5799 29.5724 17.5754V14.6498C28.4381 14.415 27.4084 13.8238 26.6336 12.9626C25.394 12.1806 24.5384 10.9404 24.2668 9.52959H21.4267L21.4207 24.6155C21.3549 26.3051 19.922 27.6608 18.166 27.6608C17.1166 27.6596 16.133 27.169 15.5216 26.3421C14.4483 25.7959 13.7752 24.7172 13.7746 23.541C13.7764 21.7939 15.2344 20.379 17.0353 20.3766C17.3703 20.3766 17.6922 20.4304 17.9973 20.5232V17.5718C14.1377 17.6598 11.0254 20.7308 11.0254 24.4964C11.0254 26.3182 11.7548 27.9761 12.943 29.2139C14.1495 30.035 15.5758 30.4727 17.0353 30.4698C20.972 30.4698 24.1753 27.3616 24.1753 23.5416Z" fill="white"></path></svg>