<?xml version="1.0" encoding="UTF-8"?>
<svg xmlns="http://www.w3.org/2000/svg" width="32" height="32" viewBox="0 0 32 32" fill="none">
  <path d="M22.9033 4.82495C22.6268 4.82495 22.4033 5.04895 22.4033 5.32495V6.17745C22.4033 6.45345 22.6268 6.67745 22.9033 6.67745C23.1798 6.67745 23.4033 6.45345 23.4033 6.17745V5.32495C23.4033 5.04895 23.1798 4.82495 22.9033 4.82495Z" fill="#7644CE"></path>
  <path d="M22.4033 9.03255C22.4033 9.30855 22.6268 9.53255 22.9033 9.53255C23.1798 9.53255 23.4033 9.30855 23.4033 9.03255V8.18005C23.4033 7.90405 23.1798 7.68005 22.9033 7.68005C22.6268 7.68005 22.4033 7.90405 22.4033 8.18005V9.03255Z" fill="#7644CE"></path>
  <path d="M24.7568 6.67896H23.9048C23.6283 6.67896 23.4048 6.90296 23.4048 7.17896C23.4048 7.45496 23.6283 7.67896 23.9048 7.67896H24.7568C25.0333 7.67896 25.2568 7.45496 25.2568 7.17896C25.2568 6.90296 25.0333 6.67896 24.7568 6.67896Z" fill="#7644CE"></path>
  <path d="M21.9018 7.67896C22.1783 7.67896 22.4018 7.45496 22.4018 7.17896C22.4018 6.90296 22.1783 6.67896 21.9018 6.67896H21.0493C20.7728 6.67896 20.5493 6.90296 20.5493 7.17896C20.5493 7.45496 20.7728 7.67896 21.0493 7.67896H21.9018Z" fill="#7644CE"></path>
  <path d="M28.355 20.228C28.2585 21.1915 27.8845 22.097 27.271 22.8485L28.414 23.9915C29.298 22.963 29.866 21.6595 29.975 20.2275H28.3555L28.355 20.228Z" fill="#7644CE"></path>
  <path d="M21.6221 19.7291L23.4415 17.9097L25.2608 19.7291L23.4415 21.5485L21.6221 19.7291Z" fill="#7644CE"></path>
  <path d="M9.05506 26.6804C9.17056 26.9469 9.48056 27.0734 9.74606 26.9584L17.0946 23.8034C16.3366 22.6264 15.8916 21.2299 15.8916 19.7289C15.8916 17.8139 16.6136 16.0684 17.7921 14.7354L13.7516 5.31895C13.6371 5.05245 13.3276 4.92695 13.0606 5.04145L2.32106 9.65045C2.19006 9.70645 2.09006 9.80895 2.03756 9.94045C1.98556 10.0704 1.98756 10.2124 2.04356 10.3409L9.05556 26.6809L9.05506 26.6804ZM6.55456 14.4684C7.10006 13.1019 8.56656 12.3514 9.96456 12.6524C10.7111 11.4309 12.2671 10.8839 13.6341 11.4299C14.3731 11.7249 14.9556 12.2934 15.2741 13.0299C15.5816 13.7464 15.5981 14.5434 15.3216 15.2754C15.3206 15.2784 15.3191 15.2809 15.3181 15.2839L13.4686 19.9149C13.4191 20.0379 13.3231 20.1364 13.2016 20.1889C13.1386 20.2159 13.0716 20.2294 13.0041 20.2294C12.9411 20.2294 12.8781 20.2179 12.8186 20.1939L8.18506 18.3434C6.68006 17.7139 5.95156 15.9774 6.55406 14.4689L6.55456 14.4684ZM3.58106 10.3379C3.83456 10.2289 4.12906 10.3464 4.23756 10.5999L4.89856 12.1409C5.00756 12.3949 4.89006 12.6889 4.63656 12.7974C4.57206 12.8249 4.50506 12.8384 4.43906 12.8384C4.24506 12.8384 4.06056 12.7249 3.97956 12.5354L3.31856 10.9944C3.20956 10.7404 3.32706 10.4464 3.58056 10.3379H3.58106Z" fill="#7644CE"></path>
  <path d="M8.56386 17.4175L12.7254 19.0795L14.3874 14.9175C14.5709 14.43 14.5599 13.9005 14.3559 13.426C14.1434 12.935 13.7554 12.5555 13.2629 12.359C12.2574 11.9575 11.0989 12.4425 10.6819 13.441C10.5779 13.69 10.2929 13.811 10.0429 13.7155C9.81286 13.628 9.57536 13.5865 9.34186 13.5865C8.54886 13.5865 7.79336 14.064 7.48336 14.84C7.08186 15.8445 7.56686 17.0005 8.56386 17.4175Z" fill="#7644CE"></path>
  <path d="M18.478 23.992L19.619 22.849C19.005 22.0965 18.6305 21.1915 18.5345 20.228H16.9175C17.026 21.66 17.594 22.9635 18.478 23.992Z" fill="#7644CE"></path>
  <path d="M19.1851 24.699C20.2131 25.5815 21.5156 26.149 22.9461 26.258V24.64C21.9821 24.5435 21.0771 24.1695 20.3256 23.5565L19.1846 24.6995L19.1851 24.699Z" fill="#7644CE"></path>
  <path d="M23.9463 26.258C25.3768 26.149 26.6788 25.5815 27.7068 24.699L26.5643 23.5565C25.8143 24.17 24.9103 24.544 23.9463 24.64V26.258Z" fill="#7644CE"></path>
  <path d="M23.9463 14.819C24.9108 14.9155 25.8148 15.2895 26.5648 15.9025L27.7078 14.7595C26.6798 13.8765 25.3773 13.3085 23.9468 13.2L23.9463 14.819Z" fill="#7644CE"></path>
  <path d="M20.3261 15.903C21.0781 15.2895 21.9826 14.9155 22.9461 14.819V13.2C21.5151 13.3085 20.2126 13.8765 19.1841 14.7595L20.3261 15.903Z" fill="#7644CE"></path>
  <path d="M27.2715 16.61C27.8845 17.36 28.259 18.264 28.355 19.2285H29.9745C29.8655 17.7975 29.2975 16.495 28.4145 15.467L27.2715 16.61Z" fill="#7644CE"></path>
  <path d="M19.5088 19.7279C19.5088 20.7784 19.9178 21.7679 20.6618 22.5139C21.4058 23.2554 22.3953 23.6649 23.4463 23.6649C24.4973 23.6649 25.4863 23.2564 26.2288 22.5134C26.9708 21.7674 27.3803 20.7779 27.3803 19.7279C27.3803 18.6779 26.9713 17.6884 26.2288 16.9454C25.4863 16.2029 24.4978 15.7939 23.4463 15.7939C22.3948 15.7939 21.4063 16.2029 20.6603 16.9464C19.9183 17.6879 19.5088 18.6764 19.5088 19.7279ZM23.7993 16.8489L26.3258 19.3754C26.5213 19.5709 26.5213 19.8869 26.3258 20.0824L23.7993 22.6089C23.7018 22.7064 23.5738 22.7554 23.4458 22.7554C23.3178 22.7554 23.1898 22.7064 23.0923 22.6089L20.5658 20.0824C20.3703 19.8869 20.3703 19.5709 20.5658 19.3754L23.0923 16.8489C23.2878 16.6534 23.6038 16.6534 23.7993 16.8489Z" fill="#7644CE"></path>
  <path d="M16.917 19.2281H18.534C18.6305 18.2636 19.005 17.3591 19.618 16.6096L18.477 15.4666C17.594 16.4946 17.026 17.7971 16.917 19.2281Z" fill="#7644CE"></path>
</svg>
