<?xml version="1.0" encoding="UTF-8"?>
<svg xmlns="http://www.w3.org/2000/svg" width="32" height="32" viewBox="0 0 32 32" fill="none">
  <g clip-path="url(#clip0_1572_2701)">
    <path d="M2.14002 8.60597C2.16887 8.83619 2.28791 9.04554 2.47101 9.18804C2.6541 9.33054 2.88627 9.39454 3.11652 9.36597L8.00002 8.75697C8.19323 8.73297 8.37289 8.64518 8.51056 8.50751C8.64823 8.36985 8.73602 8.19018 8.76002 7.99697L9.22502 4.26347L12.692 5.72397C12.8712 5.79933 13.0704 5.81292 13.2581 5.76258C13.4459 5.71225 13.6116 5.60086 13.729 5.44597L16 2.44997L18.2735 5.44997C18.391 5.60486 18.5567 5.71625 18.7444 5.76658C18.9322 5.81692 19.1313 5.80333 19.3105 5.72797L22.7775 4.26747L23.2425 7.99997C23.2666 8.19314 23.3544 8.37277 23.4921 8.51042C23.6297 8.64807 23.8094 8.73588 24.0025 8.75997L28.8835 9.36847C29.1128 9.3952 29.3434 9.33023 29.525 9.18772C29.7066 9.0452 29.8246 8.83669 29.8531 8.60761C29.8817 8.37853 29.8185 8.14745 29.6775 7.9647C29.5364 7.78196 29.3289 7.66236 29.1 7.63197L24.895 7.10497L24.3705 2.89997C24.3541 2.76568 24.3067 2.63703 24.2321 2.52414C24.1575 2.41124 24.0578 2.31719 23.9407 2.24935C23.8237 2.18151 23.6925 2.14175 23.5574 2.13318C23.4224 2.12461 23.2872 2.14748 23.1625 2.19997L19.2575 3.84997L16.697 0.471473C16.6155 0.363849 16.5101 0.276572 16.3892 0.216482C16.2683 0.156392 16.1351 0.125122 16 0.125122C15.865 0.125122 15.7318 0.156392 15.6109 0.216482C15.4899 0.276572 15.3846 0.363849 15.303 0.471473L12.7425 3.84997L8.83752 2.20497C8.71282 2.15248 8.57765 2.12961 8.44262 2.13818C8.30759 2.14675 8.17639 2.18651 8.05932 2.25435C7.94225 2.32219 7.84251 2.41624 7.76794 2.52914C7.69336 2.64203 7.64598 2.77068 7.62952 2.90497L7.10502 7.10497L2.90002 7.62947C2.66975 7.65819 2.46032 7.7772 2.31779 7.96033C2.17527 8.14346 2.11132 8.3757 2.14002 8.60597Z" fill="#7644CE"></path>
    <path d="M28.8835 22.634L24.0025 23.2425C23.8094 23.2666 23.6297 23.3544 23.4921 23.492C23.3544 23.6297 23.2666 23.8093 23.2425 24.0025L22.7775 27.7365L19.3105 26.276C19.1313 26.2006 18.9322 26.187 18.7444 26.2374C18.5567 26.2877 18.391 26.3991 18.2735 26.554L16 29.55L13.7265 26.55C13.6091 26.3951 13.4434 26.2837 13.2556 26.2334C13.0679 26.183 12.8687 26.1966 12.6895 26.272L9.22252 27.7325L8.75752 23.999C8.73281 23.8069 8.64502 23.6284 8.50792 23.4916C8.37082 23.3548 8.19218 23.2673 8.00002 23.243L3.11652 22.634C2.88627 22.6054 2.6541 22.6694 2.47101 22.8119C2.28791 22.9544 2.16887 23.1638 2.14002 23.394C2.11132 23.6243 2.17527 23.8565 2.31779 24.0396C2.46032 24.2228 2.66975 24.3418 2.90002 24.3705L7.10502 24.895L7.62952 29.1C7.64598 29.2343 7.69336 29.3629 7.76794 29.4758C7.84251 29.5887 7.94225 29.6828 8.05932 29.7506C8.17639 29.8184 8.30759 29.8582 8.44262 29.8668C8.57765 29.8753 8.71282 29.8525 8.83752 29.8L12.7425 28.155L15.303 31.531C15.3846 31.6386 15.4899 31.7259 15.6109 31.786C15.7318 31.8461 15.865 31.8773 16 31.8773C16.1351 31.8773 16.2683 31.8461 16.3892 31.786C16.5101 31.7259 16.6155 31.6386 16.697 31.531L19.2575 28.155L23.1625 29.8C23.2872 29.8525 23.4224 29.8753 23.5574 29.8668C23.6925 29.8582 23.8237 29.8184 23.9407 29.7506C24.0578 29.6828 24.1575 29.5887 24.2321 29.4758C24.3067 29.3629 24.3541 29.2343 24.3705 29.1L24.895 24.895L29.1 24.3705C29.3289 24.3401 29.5364 24.2205 29.6775 24.0378C29.8185 23.855 29.8817 23.6239 29.8531 23.3948C29.8246 23.1658 29.7066 22.9573 29.525 22.8147C29.3434 22.6722 29.1128 22.6073 28.8835 22.634Z" fill="#7644CE"></path>
    <path d="M5.875 18C5.87499 17.5662 5.77669 17.138 5.58747 16.7476C5.39825 16.3572 5.12304 16.0148 4.7825 15.746C5.10862 15.3203 5.30912 14.8118 5.3613 14.2781C5.41348 13.7444 5.31528 13.2067 5.07779 12.7259C4.8403 12.2451 4.473 11.8404 4.01745 11.5575C3.5619 11.2745 3.03626 11.1247 2.5 11.125H1C0.767936 11.125 0.545376 11.2172 0.381282 11.3813C0.217187 11.5454 0.125 11.7679 0.125 12V20C0.125 20.2321 0.217187 20.4546 0.381282 20.6187C0.545376 20.7828 0.767936 20.875 1 20.875H3C3.76221 20.8741 4.49294 20.5709 5.03191 20.0319C5.57088 19.4929 5.87407 18.7622 5.875 18ZM1.875 12.875H2.5C2.79837 12.875 3.08452 12.9935 3.2955 13.2045C3.50647 13.4155 3.625 13.7016 3.625 14C3.625 14.2984 3.50647 14.5845 3.2955 14.7955C3.08452 15.0065 2.79837 15.125 2.5 15.125H1.875V12.875ZM1.875 16.875H3C3.29837 16.875 3.58452 16.9935 3.7955 17.2045C4.00647 17.4155 4.125 17.7016 4.125 18C4.125 18.2984 4.00647 18.5845 3.7955 18.7955C3.58452 19.0065 3.29837 19.125 3 19.125H1.875V16.875Z" fill="#7644CE"></path>
    <path d="M8.5 11.125C8.26794 11.125 8.04538 11.2172 7.88128 11.3813C7.71719 11.5454 7.625 11.7679 7.625 12V20C7.625 20.2321 7.71719 20.4546 7.88128 20.6187C8.04538 20.7828 8.26794 20.875 8.5 20.875C8.73206 20.875 8.95462 20.7828 9.11872 20.6187C9.28281 20.4546 9.375 20.2321 9.375 20V12C9.375 11.7679 9.28281 11.5454 9.11872 11.3813C8.95462 11.2172 8.73206 11.125 8.5 11.125Z" fill="#7644CE"></path>
    <path d="M16.875 12C16.875 11.7679 16.7828 11.5454 16.6187 11.3813C16.4546 11.2172 16.2321 11.125 16 11.125C15.7679 11.125 15.5454 11.2172 15.3813 11.3813C15.2172 11.5454 15.125 11.7679 15.125 12V16.2935L12.7825 11.6085C12.6943 11.4323 12.5492 11.2909 12.3707 11.2075C12.1921 11.124 11.9907 11.1032 11.7989 11.1485C11.6071 11.1938 11.4362 11.3025 11.3139 11.4571C11.1916 11.6116 11.125 11.8029 11.125 12V20C11.125 20.2321 11.2172 20.4546 11.3813 20.6187C11.5454 20.7828 11.7679 20.875 12 20.875C12.2321 20.875 12.4546 20.7828 12.6187 20.6187C12.7828 20.4546 12.875 20.2321 12.875 20V15.7065L15.2175 20.3915C15.3057 20.5677 15.4508 20.7091 15.6293 20.7925C15.8079 20.876 16.0093 20.8968 16.2011 20.8515C16.3929 20.8062 16.5638 20.6975 16.6861 20.5429C16.8084 20.3884 16.875 20.1971 16.875 20V12Z" fill="#7644CE"></path>
    <path d="M29 11.125C28.2378 11.1259 27.5071 11.4291 26.9681 11.9681C26.4291 12.5071 26.1259 13.2378 26.125 14V18C26.125 18.7625 26.4279 19.4938 26.9671 20.0329C27.5062 20.5721 28.2375 20.875 29 20.875C29.7625 20.875 30.4938 20.5721 31.0329 20.0329C31.5721 19.4938 31.875 18.7625 31.875 18V14C31.8741 13.2378 31.5709 12.5071 31.0319 11.9681C30.4929 11.4291 29.7622 11.1259 29 11.125ZM30.125 18C30.125 18.2984 30.0065 18.5845 29.7955 18.7955C29.5845 19.0065 29.2984 19.125 29 19.125C28.7016 19.125 28.4155 19.0065 28.2045 18.7955C27.9935 18.5845 27.875 18.2984 27.875 18V14C27.875 13.7016 27.9935 13.4155 28.2045 13.2045C28.4155 12.9935 28.7016 12.875 29 12.875C29.2984 12.875 29.5845 12.9935 29.7955 13.2045C30.0065 13.4155 30.125 13.7016 30.125 14V18Z" fill="#7644CE"></path>
    <path d="M24.375 18V16C24.375 15.7679 24.2828 15.5454 24.1187 15.3813C23.9546 15.2172 23.7321 15.125 23.5 15.125H22.5C22.2679 15.125 22.0454 15.2172 21.8813 15.3813C21.7172 15.5454 21.625 15.7679 21.625 16C21.625 16.232 21.7172 16.4546 21.8813 16.6187C22.0454 16.7828 22.2679 16.875 22.5 16.875H22.625V18C22.625 18.2983 22.5065 18.5845 22.2955 18.7955C22.0845 19.0065 21.7984 19.125 21.5 19.125C21.2016 19.125 20.9155 19.0065 20.7045 18.7955C20.4935 18.5845 20.375 18.2983 20.375 18V14C20.375 13.7775 20.441 13.56 20.5646 13.375C20.6882 13.1899 20.8639 13.0458 21.0695 12.9606C21.275 12.8755 21.5012 12.8532 21.7195 12.8966C21.9377 12.94 22.1382 13.0471 22.2955 13.2045C22.3762 13.288 22.4728 13.3547 22.5796 13.4005C22.6863 13.4463 22.8011 13.4705 22.9173 13.4714C23.0335 13.4724 23.1487 13.4503 23.2563 13.4063C23.3638 13.3622 23.4615 13.2972 23.5436 13.2151C23.6257 13.1329 23.6907 13.0352 23.7347 12.9276C23.7786 12.8201 23.8008 12.7049 23.7997 12.5887C23.7987 12.4725 23.7745 12.3577 23.7286 12.251C23.6828 12.1442 23.6161 12.0477 23.5325 11.967C23.1305 11.5648 22.6182 11.2909 22.0605 11.1799C21.5028 11.0689 20.9247 11.1259 20.3994 11.3435C19.874 11.5611 19.425 11.9297 19.1092 12.4026C18.7933 12.8754 18.6248 13.4313 18.625 14V18C18.625 18.7625 18.9279 19.4937 19.4671 20.0329C20.0062 20.5721 20.7375 20.875 21.5 20.875C22.2625 20.875 22.9938 20.5721 23.5329 20.0329C24.0721 19.4937 24.375 18.7625 24.375 18Z" fill="#7644CE"></path>
    <path d="M16 24.375C16.4832 24.375 16.875 23.9832 16.875 23.5C16.875 23.0168 16.4832 22.625 16 22.625C15.5168 22.625 15.125 23.0168 15.125 23.5C15.125 23.9832 15.5168 24.375 16 24.375Z" fill="#7644CE"></path>
    <path d="M12.5 24.375C12.9832 24.375 13.375 23.9832 13.375 23.5C13.375 23.0168 12.9832 22.625 12.5 22.625C12.0168 22.625 11.625 23.0168 11.625 23.5C11.625 23.9832 12.0168 24.375 12.5 24.375Z" fill="#7644CE"></path>
    <path d="M19.5 24.375C19.9832 24.375 20.375 23.9832 20.375 23.5C20.375 23.0168 19.9832 22.625 19.5 22.625C19.0168 22.625 18.625 23.0168 18.625 23.5C18.625 23.9832 19.0168 24.375 19.5 24.375Z" fill="#7644CE"></path>
    <path d="M16 9.375C16.4832 9.375 16.875 8.98325 16.875 8.5C16.875 8.01675 16.4832 7.625 16 7.625C15.5168 7.625 15.125 8.01675 15.125 8.5C15.125 8.98325 15.5168 9.375 16 9.375Z" fill="#7644CE"></path>
    <path d="M12.5 9.375C12.9832 9.375 13.375 8.98325 13.375 8.5C13.375 8.01675 12.9832 7.625 12.5 7.625C12.0168 7.625 11.625 8.01675 11.625 8.5C11.625 8.98325 12.0168 9.375 12.5 9.375Z" fill="#7644CE"></path>
    <path d="M19.5 9.375C19.9832 9.375 20.375 8.98325 20.375 8.5C20.375 8.01675 19.9832 7.625 19.5 7.625C19.0168 7.625 18.625 8.01675 18.625 8.5C18.625 8.98325 19.0168 9.375 19.5 9.375Z" fill="#7644CE"></path>
  </g>
  <defs>
    <clipPath id="clip0_1572_2701">
      <rect width="32" height="32" fill="white"></rect>
    </clipPath>
  </defs>
</svg>
