<?xml version="1.0" encoding="UTF-8"?>
<svg xmlns="http://www.w3.org/2000/svg" width="32" height="32" viewBox="0 0 32 32" fill="none">
  <path d="M8.5335 21.1094C10.3008 21.1094 11.7335 19.6767 11.7335 17.9094C11.7335 16.142 10.3008 14.7094 8.5335 14.7094C6.76618 14.7094 5.3335 16.142 5.3335 17.9094C5.3335 19.6767 6.76618 21.1094 8.5335 21.1094Z" fill="#7644CE"></path>
  <path d="M23.4666 21.1094C25.2339 21.1094 26.6666 19.6767 26.6666 17.9094C26.6666 16.142 25.2339 14.7094 23.4666 14.7094C21.6993 14.7094 20.2666 16.142 20.2666 17.9094C20.2666 19.6767 21.6993 21.1094 23.4666 21.1094Z" fill="#7644CE"></path>
  <path d="M3.73353 27.5093H5.86686V25.9093C5.86686 25.6159 6.10686 25.3759 6.4002 25.3759C6.69353 25.3759 6.93353 25.6159 6.93353 25.9093V27.5093H10.1335V25.9093C10.1335 25.6159 10.3735 25.3759 10.6669 25.3759C10.9602 25.3759 11.2002 25.6159 11.2002 25.9093V27.5093H13.3335C13.6269 27.5093 13.8669 27.2693 13.8669 26.9759V26.4426C13.8669 24.2719 12.5655 22.4053 10.7095 21.5786C10.0695 21.9573 9.3282 22.1759 8.53353 22.1759C7.73886 22.1759 6.99753 21.9573 6.35753 21.5786C4.50153 22.4053 3.2002 24.2719 3.2002 26.4426V26.9759C3.2002 27.2693 3.4402 27.5093 3.73353 27.5093Z" fill="#7644CE"></path>
  <path d="M25.6426 21.5786C25.0026 21.9573 24.2613 22.1759 23.4666 22.1759C22.672 22.1759 21.9306 21.9573 21.2906 21.5786C19.4346 22.4053 18.1333 24.2719 18.1333 26.4426V26.9759C18.1333 27.2693 18.3733 27.5093 18.6666 27.5093H20.8V25.9093C20.8 25.6159 21.04 25.3759 21.3333 25.3759C21.6266 25.3759 21.8666 25.6159 21.8666 25.9093V27.5093H25.0666V25.9093C25.0666 25.6159 25.3066 25.3759 25.6 25.3759C25.8933 25.3759 26.1333 25.6159 26.1333 25.9093V27.5093H28.2666C28.56 27.5093 28.8 27.2693 28.8 26.9759V26.4426C28.8 24.2719 27.4986 22.4053 25.6426 21.5786Z" fill="#7644CE"></path>
  <path d="M21.2479 4.49072H10.7519C8.3519 4.49072 6.3999 6.44272 6.3999 8.84272C6.3999 11.2427 8.3519 13.1947 10.7519 13.1947C12.4106 13.1947 13.8986 12.2667 14.6346 10.8054H17.3652C18.1012 12.2667 19.5892 13.1947 21.2479 13.1947C23.6479 13.1947 25.5999 11.2427 25.5999 8.84272C25.5999 6.44272 23.6479 4.49072 21.2479 4.49072ZM12.2666 9.37606H11.1999V10.4427C11.1999 10.7361 10.9599 10.9761 10.6666 10.9761C10.3732 10.9761 10.1332 10.7361 10.1332 10.4427V9.37606H9.06657C8.77324 9.37606 8.53324 9.13606 8.53324 8.84272C8.53324 8.54939 8.77324 8.30939 9.06657 8.30939H10.1332V7.24272C10.1332 6.94939 10.3732 6.70939 10.6666 6.70939C10.9599 6.70939 11.1999 6.94939 11.1999 7.24272V8.30939H12.2666C12.5599 8.30939 12.7999 8.54939 12.7999 8.84272C12.7999 9.13606 12.5599 9.37606 12.2666 9.37606ZM20.7999 7.24272C20.7999 6.94939 21.0399 6.70939 21.3332 6.70939C21.6266 6.70939 21.8666 6.94939 21.8666 7.24272V7.77606C21.8666 8.06939 21.6266 8.30939 21.3332 8.30939C21.0399 8.30939 20.7999 8.06939 20.7999 7.77606V7.24272ZM20.2666 9.37606H19.7332C19.4399 9.37606 19.1999 9.13606 19.1999 8.84272C19.1999 8.54939 19.4399 8.30939 19.7332 8.30939H20.2666C20.5599 8.30939 20.7999 8.54939 20.7999 8.84272C20.7999 9.13606 20.5599 9.37606 20.2666 9.37606ZM21.8666 10.4427C21.8666 10.7361 21.6266 10.9761 21.3332 10.9761C21.0399 10.9761 20.7999 10.7361 20.7999 10.4427V9.90939C20.7999 9.61606 21.0399 9.37606 21.3332 9.37606C21.6266 9.37606 21.8666 9.61606 21.8666 9.90939V10.4427ZM22.9332 9.37606H22.3999C22.1066 9.37606 21.8666 9.13606 21.8666 8.84272C21.8666 8.54939 22.1066 8.30939 22.3999 8.30939H22.9332C23.2266 8.30939 23.4666 8.54939 23.4666 8.84272C23.4666 9.13606 23.2266 9.37606 22.9332 9.37606Z" fill="#7644CE"></path>
</svg>
