<?xml version="1.0" encoding="UTF-8"?>
<svg xmlns="http://www.w3.org/2000/svg" width="32" height="32" viewBox="0 0 32 32" fill="none">
  <g clip-path="url(#clip0_1572_7088)">
    <path d="M21.9089 26.09C21.7562 26.3991 21.5892 26.7007 21.4083 26.9947C19.8738 29.4917 17.7148 30.6718 14.8531 30.6718C14.0172 30.6718 13.5999 29.6589 14.1893 29.0695L14.7924 28.4663C15.3493 27.9095 15.1973 26.9728 14.4927 26.6206C13.817 26.2827 13.0493 26.685 12.8503 27.4171C12.2459 29.6388 10.7462 31.2061 8.51316 31.9507C7.86308 32.1678 7.21113 31.636 7.28371 30.9603L7.68915 27.1856C7.5102 26.8583 7.15419 26.6606 6.7863 26.7019C5.26653 26.8721 3.28502 27.5872 2.47101 30.0299C2.20635 30.822 1.11392 30.8983 0.741017 30.1525C-0.96251 26.7467 0.367614 22.6044 3.74176 20.8293L4.81041 20.2668C5.67572 19.8113 5.56748 18.5218 4.6177 18.2321C4.22103 18.1114 3.80808 18.2146 3.51464 18.5081L2.24389 19.7788C1.75086 20.2718 0.90995 20.0722 0.690338 19.4115C-0.616887 15.4924 1.17086 11.2836 6.08491 9.13794C5.87031 10.1134 5.75706 11.1263 5.75706 12.165C5.75706 19.9277 12.072 26.2427 19.8348 26.2427C20.5393 26.2427 21.2319 26.1907 21.9089 26.09Z" fill="#7644CE"></path>
    <path d="M7.66992 13.1035C7.81132 14.9549 8.36818 16.6924 9.24725 18.2222C11.3564 17.3356 12.8699 15.3929 13.1984 13.1035H7.66992ZM24.5794 13.1035H20.7735V24.33C24.2322 24.0654 27.2924 22.3529 29.3465 19.7983C26.7449 18.5663 24.9042 16.0536 24.5794 13.1035ZM26.4715 13.1035C26.7993 15.4073 28.3204 17.3419 30.4226 18.2234C31.3011 16.6937 31.8586 14.9555 32 13.1035H26.4715ZM15.0904 13.1035C14.7651 16.0342 12.9331 18.5575 10.3222 19.797C12.3769 22.3523 15.4371 24.0654 18.8964 24.33V13.1035H15.0904ZM10.3222 4.53302C12.8311 5.72581 14.7566 8.18884 15.0911 11.2265H18.8964V0C15.4371 0.264661 12.3769 1.97776 10.3222 4.53302ZM9.2435 6.1141C8.36692 7.642 7.81132 9.37763 7.66992 11.2265H13.1971C12.8637 8.92777 11.3232 6.99818 9.2435 6.1141ZM30.422 6.10597C28.3191 6.9863 26.7987 8.91963 26.4709 11.2265H32C31.8586 9.37387 31.3011 7.63637 30.422 6.10597ZM29.3483 4.53427C27.2942 1.97839 24.2334 0.264661 20.7735 0V11.2265H24.5801C24.9034 8.31135 26.7206 5.78506 29.3483 4.53427Z" fill="#7644CE"></path>
  </g>
  <defs>
    <clipPath id="clip0_1572_7088">
      <rect width="32" height="32" fill="white"></rect>
    </clipPath>
  </defs>
</svg>
